<svg width="24" height="24" viewBox="0 0 24 24" fill="none" xmlns="http://www.w3.org/2000/svg">
<path d="M18.6454 14.179C18.1768 13.691 17.6115 13.4302 17.0124 13.4302C16.4183 13.4302 15.8481 13.6862 15.3602 14.1742L13.8336 15.696C13.708 15.6284 13.5824 15.5655 13.4616 15.5028C13.2876 15.4158 13.1234 15.3336 12.9833 15.2467C11.5532 14.3384 10.2537 13.1548 9.00721 11.6234C8.40331 10.86 7.99749 10.2174 7.70278 9.56523C8.09894 9.2029 8.46611 8.82607 8.82362 8.46372C8.9589 8.32845 9.09417 8.18835 9.22943 8.05307C10.244 7.03853 10.244 5.72445 9.22943 4.70991L7.91053 3.39099C7.76076 3.24122 7.60617 3.08663 7.46123 2.93203C7.17135 2.6325 6.86699 2.3233 6.55297 2.03343C6.08434 1.56963 5.52393 1.32324 4.93452 1.32324C4.34511 1.32324 3.77503 1.56963 3.29193 2.03343C3.28709 2.03826 3.28709 2.03826 3.28226 2.04309L1.63966 3.70019C1.02127 4.31858 0.66859 5.07224 0.591291 5.94668C0.475342 7.35739 0.890824 8.67147 1.20968 9.53141C1.99234 11.6427 3.16148 13.5992 4.90554 15.696C7.02159 18.2227 9.56762 20.218 12.476 21.6238C13.5872 22.1504 15.0704 22.7736 16.7274 22.8799C16.8289 22.8848 16.9352 22.8896 17.0318 22.8896C18.1478 22.8896 19.085 22.4886 19.8194 21.6915C19.8242 21.6819 19.8339 21.677 19.8387 21.6674C20.0899 21.363 20.3798 21.0876 20.6842 20.7928C20.8919 20.5948 21.1044 20.3871 21.3122 20.1696C21.7905 19.672 22.0417 19.0923 22.0417 18.4981C22.0417 17.899 21.7857 17.3242 21.2977 16.841L18.6454 14.179ZM20.375 19.2662C20.3702 19.2662 20.3702 19.2711 20.375 19.2662C20.1865 19.4692 19.9934 19.6527 19.7856 19.8557C19.4715 20.1551 19.1527 20.4692 18.8531 20.8219C18.3652 21.3437 17.7903 21.59 17.0367 21.59C16.9642 21.59 16.8868 21.59 16.8144 21.5852C15.3795 21.4934 14.0462 20.933 13.046 20.4547C10.3116 19.131 7.91053 17.2516 5.91525 14.8699C4.26782 12.8843 3.16631 11.0484 2.43681 9.07729C1.9875 7.87433 1.82324 6.93707 1.89571 6.05297C1.94402 5.48772 2.16142 5.01909 2.56242 4.61811L4.20985 2.97068C4.44658 2.74844 4.69779 2.62767 4.94419 2.62767C5.24854 2.62767 5.49494 2.81125 5.64954 2.96585C5.65437 2.97068 5.65919 2.97551 5.66403 2.98034C5.95873 3.25572 6.23894 3.54076 6.53364 3.84512C6.68341 3.99972 6.83801 4.15432 6.9926 4.31375L8.31151 5.63266C8.82362 6.14476 8.82362 6.61821 8.31151 7.13033C8.17141 7.27043 8.03613 7.41053 7.89603 7.5458C7.49021 7.96129 7.10372 8.34778 6.68341 8.72461C6.67374 8.73427 6.66409 8.73911 6.65925 8.74876C6.24377 9.16425 6.32107 9.57007 6.40803 9.84545C6.41286 9.85994 6.4177 9.87443 6.42252 9.88892C6.76554 10.7199 7.24866 11.5026 7.983 12.4349L7.98782 12.4398C9.32123 14.0824 10.7271 15.3627 12.2779 16.3434C12.476 16.469 12.679 16.5704 12.8721 16.667C13.046 16.754 13.2104 16.8362 13.3504 16.9231C13.3698 16.9327 13.3891 16.9472 13.4084 16.957C13.5727 17.039 13.7273 17.0778 13.8867 17.0778C14.2876 17.0778 14.539 16.8264 14.621 16.7444L16.2732 15.0922C16.4376 14.9278 16.6985 14.7298 17.0028 14.7298C17.3024 14.7298 17.5488 14.9182 17.6985 15.0824C17.7033 15.0872 17.7033 15.0872 17.7082 15.0922L20.3702 17.7541C20.8678 18.2469 20.8678 18.7541 20.375 19.2662Z" fill="#0A165E"/>
<path d="M12.9253 5.44421C14.191 5.65678 15.3408 6.25585 16.2588 7.17377C17.1767 8.09169 17.771 9.24152 17.9884 10.5073C18.0415 10.8261 18.3168 11.0484 18.6309 11.0484C18.6695 11.0484 18.7033 11.0435 18.742 11.0387C19.0996 10.9807 19.3363 10.6426 19.2783 10.2851C19.0174 8.75357 18.2927 7.35736 17.1864 6.25102C16.08 5.14468 14.6838 4.42 13.1524 4.15912C12.7949 4.10115 12.4615 4.33788 12.3987 4.69055C12.3359 5.04323 12.5678 5.38624 12.9253 5.44421Z" fill="#0A165E"/>
<path d="M23.4188 10.0974C22.9889 7.57557 21.8003 5.28075 19.9741 3.45457C18.1479 1.62839 15.8532 0.439918 13.3312 0.00994328C12.9786 -0.0528621 12.6452 0.188697 12.5824 0.541373C12.5245 0.89888 12.7612 1.23223 13.1187 1.29504C15.37 1.6767 17.4233 2.74439 19.0562 4.3725C20.6892 6.00544 21.7521 8.05869 22.1336 10.31C22.1868 10.6289 22.4622 10.8511 22.7763 10.8511C22.8149 10.8511 22.8487 10.8463 22.8874 10.8414C23.2401 10.7883 23.4815 10.4501 23.4188 10.0974Z" fill="#0A165E"/>
</svg>
