<svg width="65" height="65" viewBox="0 0 65 65" fill="none" xmlns="http://www.w3.org/2000/svg">
<rect width="65" height="65" rx="10" fill="#0A165E"/>
<path d="M32.5 38.1545C31.9065 38.1545 31.3282 37.9668 30.8478 37.6182C30.3674 37.2697 30.0095 36.7781 29.8253 36.2139C29.6847 35.7794 30.0531 35.342 30.5101 35.342H34.4912C34.9483 35.342 35.3167 35.7808 35.1761 36.2139C34.9911 36.7779 34.6328 37.2691 34.1523 37.6175C33.6718 37.966 33.0935 38.1539 32.5 38.1545Z" fill="white"/>
<path d="M27.5781 47.9688C27.4509 47.9687 27.3262 47.9341 27.2171 47.8687C27.108 47.8034 27.0186 47.7096 26.9586 47.5975C26.8986 47.4854 26.8701 47.3591 26.8762 47.232C26.8822 47.105 26.9227 46.982 26.9931 46.8761L29.8056 42.6573C29.8697 42.5609 29.9566 42.4817 30.0587 42.427C30.1608 42.3723 30.2748 42.3437 30.3906 42.3438H40.9375C42.4886 42.3438 43.75 41.0823 43.75 39.5312V26.875C43.75 25.3239 42.4886 24.0625 40.9375 24.0625H24.0625C22.5114 24.0625 21.25 25.3239 21.25 26.875V39.5312C21.25 41.0823 22.5114 42.3438 24.0625 42.3438H26.1719C26.3584 42.3438 26.5372 42.4178 26.6691 42.5497C26.8009 42.6816 26.875 42.8604 26.875 43.0469C26.875 43.2334 26.8009 43.4122 26.6691 43.5441C26.5372 43.6759 26.3584 43.75 26.1719 43.75H24.0625C21.7366 43.75 19.8438 41.8572 19.8438 39.5312V26.875C19.8438 24.5491 21.7366 22.6562 24.0625 22.6562H40.9375C43.2634 22.6562 45.1562 24.5491 45.1562 26.875V39.5312C45.1562 41.8572 43.2634 43.75 40.9375 43.75H30.7675L28.1631 47.6552C28.0992 47.7517 28.0122 47.8309 27.9101 47.8857C27.808 47.9404 27.694 47.9689 27.5781 47.9688Z" fill="white"/>
<path d="M26.875 35.342C26.6885 35.342 26.5097 35.268 26.3778 35.1361C26.246 35.0042 26.1719 34.8254 26.1719 34.6389V33.2327C26.1719 33.0462 26.246 32.8673 26.3778 32.7355C26.5097 32.6036 26.6885 32.5295 26.875 32.5295C27.0615 32.5295 27.2403 32.6036 27.3722 32.7355C27.504 32.8673 27.5781 33.0462 27.5781 33.2327V34.6389C27.5781 34.8254 27.504 35.0042 27.3722 35.1361C27.2403 35.268 27.0615 35.342 26.875 35.342ZM38.125 35.342C37.9385 35.342 37.7597 35.268 37.6278 35.1361C37.496 35.0042 37.4219 34.8254 37.4219 34.6389V33.2327C37.4219 33.0462 37.496 32.8673 37.6278 32.7355C37.7597 32.6036 37.9385 32.5295 38.125 32.5295C38.3115 32.5295 38.4903 32.6036 38.6222 32.7355C38.754 32.8673 38.8281 33.0462 38.8281 33.2327V34.6389C38.8281 34.8254 38.754 35.0042 38.6222 35.1361C38.4903 35.268 38.3115 35.342 38.125 35.342Z" fill="white"/>
<path d="M16.3281 37.4219C16.1416 37.4219 15.9628 37.3478 15.8309 37.2159C15.6991 37.0841 15.625 36.9052 15.625 36.7188V29.6875C15.625 20.3823 23.1948 12.8125 32.5 12.8125C41.8052 12.8125 49.375 20.3823 49.375 29.6875V33.9062C49.375 34.0927 49.3009 34.2716 49.1691 34.4034C49.0372 34.5353 48.8584 34.6094 48.6719 34.6094C48.4854 34.6094 48.3066 34.5353 48.1747 34.4034C48.0428 34.2716 47.9688 34.0927 47.9688 33.9062V29.6875C47.9688 21.1586 41.0289 14.2188 32.5 14.2188C23.9711 14.2188 17.0312 21.1586 17.0312 29.6875V36.7188C17.0312 36.9052 16.9572 37.0841 16.8253 37.2159C16.6934 37.3478 16.5146 37.4219 16.3281 37.4219Z" fill="white"/>
<path d="M50.0781 40.9376C48.9152 40.9376 47.9688 39.9912 47.9688 38.8282V31.797C47.9688 30.634 48.9152 29.6876 50.0781 29.6876C51.0259 29.6876 51.9091 30.0574 52.5644 30.7296C52.8931 31.0518 53.1536 31.4368 53.3305 31.8618C53.5073 32.2867 53.5969 32.7429 53.5938 33.2032V37.422C53.5938 39.3598 52.0159 40.9376 50.0781 40.9376ZM50.0781 31.0938C49.8916 31.0938 49.7128 31.1679 49.5809 31.2998C49.4491 31.4316 49.375 31.6105 49.375 31.797V38.8282C49.375 39.0147 49.4491 39.1935 49.5809 39.3254C49.7128 39.4572 49.8916 39.5313 50.0781 39.5313C51.2411 39.5313 52.1875 38.5849 52.1875 37.422V33.2032C52.1875 32.6379 51.9681 32.112 51.5702 31.7238C51.3769 31.5235 51.1451 31.3643 50.8886 31.2561C50.6322 31.1478 50.3565 31.0926 50.0781 31.0938ZM14.9219 40.9376C13.9898 40.9365 13.0963 40.5657 12.4372 39.9066C11.7781 39.2476 11.4074 38.354 11.4062 37.422V33.2032C11.4062 32.2554 11.7761 31.3723 12.4483 30.717C12.7705 30.3882 13.1555 30.1277 13.5805 29.9509C14.0054 29.774 14.4616 29.6845 14.9219 29.6876C16.0848 29.6876 17.0312 30.634 17.0312 31.797V38.8282C17.0312 39.9912 16.0848 40.9376 14.9219 40.9376ZM14.9219 31.0938C14.3566 31.0938 13.8306 31.3132 13.4425 31.7112C13.2421 31.9044 13.083 32.1362 12.9747 32.3927C12.8665 32.6491 12.8113 32.9248 12.8125 33.2032V37.422C12.8125 38.5849 13.7589 39.5313 14.9219 39.5313C15.1084 39.5313 15.2872 39.4572 15.4191 39.3254C15.5509 39.1935 15.625 39.0147 15.625 38.8282V31.797C15.625 31.6105 15.5509 31.4316 15.4191 31.2998C15.2872 31.1679 15.1084 31.0938 14.9219 31.0938ZM40.9375 50.7813H36.0156C35.8291 50.7813 35.6503 50.7072 35.5184 50.5754C35.3866 50.4435 35.3125 50.2647 35.3125 50.0782C35.3125 49.8917 35.3866 49.7129 35.5184 49.581C35.6503 49.4492 35.8291 49.3751 36.0156 49.3751H40.9375C44.8145 49.3751 47.9688 46.2209 47.9688 42.3438C47.9688 42.1573 48.0428 41.9785 48.1747 41.8466C48.3066 41.7148 48.4854 41.6407 48.6719 41.6407C48.8584 41.6407 49.0372 41.7148 49.1691 41.8466C49.3009 41.9785 49.375 42.1573 49.375 42.3438C49.375 46.9971 45.5908 50.7813 40.9375 50.7813Z" fill="white"/>
<path d="M34.6094 52.1875H31.7969C30.6339 52.1875 29.6875 51.2411 29.6875 50.0781C29.6875 48.9152 30.6339 47.9688 31.7969 47.9688H34.6094C35.7723 47.9688 36.7188 48.9152 36.7188 50.0781C36.7188 51.2411 35.7723 52.1875 34.6094 52.1875ZM31.7969 49.375C31.6104 49.375 31.4316 49.4491 31.2997 49.5809C31.1678 49.7128 31.0938 49.8916 31.0938 50.0781C31.0938 50.2646 31.1678 50.4434 31.2997 50.5753C31.4316 50.7072 31.6104 50.7812 31.7969 50.7812H34.6094C34.7959 50.7812 34.9747 50.7072 35.1066 50.5753C35.2384 50.4434 35.3125 50.2646 35.3125 50.0781C35.3125 49.8916 35.2384 49.7128 35.1066 49.5809C34.9747 49.4491 34.7959 49.375 34.6094 49.375H31.7969Z" fill="white"/>
</svg>
