<svg width="18" height="18" viewBox="0 0 18 18" fill="none" xmlns="http://www.w3.org/2000/svg">
<g clip-path="url(#clip0_0_2903)">
<path d="M16.778 16.3027L10.2962 9.47941L16.778 2.65608C17.136 2.27924 17.136 1.66827 16.778 1.29144C16.42 0.914597 15.8396 0.914597 15.4817 1.29144L8.99984 8.11474L2.51799 1.29139C2.15998 0.914582 1.57959 0.914582 1.22161 1.29143C0.86363 1.66826 0.86363 2.27922 1.22161 2.65607L7.70344 9.47938L1.22162 16.3027C0.863644 16.6796 0.863645 17.2905 1.22162 17.6673C1.5796 18.0442 2.15999 18.0442 2.51797 17.6673L8.99978 10.8441L15.4816 17.6673C15.8396 18.0442 16.42 18.0442 16.778 17.6673C17.136 17.2906 17.136 16.6796 16.778 16.3027Z" fill="#2B4DFF"/>
</g>
<defs>
<clipPath id="clip0_0_2903">
<rect width="18" height="18" fill="white"/>
</clipPath>
</defs>
</svg>
