<svg width="18" height="18" viewBox="0 0 18 18" fill="none" xmlns="http://www.w3.org/2000/svg">
<g clip-path="url(#clip0_0_2183)">
<path fill-rule="evenodd" clip-rule="evenodd" d="M9.69164 2.22001L9.18769 1.59658C9.0188 1.3877 8.70038 1.3877 8.53149 1.59658L8.02753 2.22001C7.73655 2.57998 7.34733 2.84773 6.90712 2.99077C6.46691 3.13381 5.99465 3.14597 5.54766 3.02579L4.77347 2.81767C4.51411 2.74792 4.25644 2.93509 4.24261 3.20336L4.20136 4.00394C4.17753 4.46619 4.02002 4.91159 3.74795 5.28605C3.47588 5.66052 3.10096 5.94795 2.66869 6.11345L1.92005 6.40009C1.66922 6.49614 1.57083 6.79905 1.71727 7.02414L2.15447 7.69614C2.40689 8.08411 2.54126 8.53702 2.54126 8.99987C2.54126 9.46273 2.40689 9.91564 2.15447 10.3036L1.71727 10.9756C1.57078 11.2007 1.66922 11.5036 1.92005 11.5997L2.66869 11.8863C3.10096 12.0518 3.47588 12.3392 3.74795 12.7137C4.02002 13.0882 4.17753 13.5336 4.20136 13.9958L4.24261 14.7964C4.25644 15.0647 4.51411 15.2518 4.77347 15.1821L5.54766 14.974C5.99464 14.8538 6.46691 14.8659 6.90712 15.009C7.34733 15.152 7.73655 15.4197 8.02753 15.7797L8.53149 16.4032C8.70038 16.6121 9.0188 16.6121 9.18769 16.4032L9.69164 15.7797C9.98263 15.4197 10.3718 15.152 10.8121 15.009C11.2523 14.8659 11.7245 14.8538 12.1715 14.974L12.9457 15.1821C13.2051 15.2518 13.4627 15.0647 13.4766 14.7964L13.5178 13.9958C13.5416 13.5336 13.6992 13.0882 13.9712 12.7137C14.2433 12.3392 14.6182 12.0518 15.0505 11.8863L15.7991 11.5997C16.05 11.5036 16.1484 11.2007 16.0019 10.9756L15.5647 10.3036C15.3123 9.91564 15.1779 9.46273 15.1779 8.99987C15.1779 8.53702 15.3123 8.08411 15.5647 7.69614L16.0019 7.02414C16.1484 6.79905 16.05 6.49614 15.7991 6.40009L15.0505 6.11345C14.6182 5.94795 14.2433 5.66052 13.9712 5.28605C13.6992 4.91159 13.5416 4.46619 13.5178 4.00394L13.4766 3.20336C13.4627 2.93509 13.2051 2.74792 12.9457 2.81767L12.1715 3.02579C11.7245 3.14597 11.2523 3.13381 10.812 2.99077C10.3718 2.84773 9.98262 2.57998 9.69164 2.22001ZM9.9532 0.977777C9.39038 0.281496 8.3288 0.281496 7.76597 0.977777L7.26202 1.60122C7.09084 1.81296 6.86188 1.97046 6.60293 2.0546C6.34397 2.13873 6.06616 2.14588 5.80322 2.07517L5.02908 1.86705C4.16447 1.63455 3.30563 2.25854 3.25955 3.15269L3.2183 3.95326C3.20428 4.22518 3.11163 4.48718 2.95158 4.70745C2.79154 4.92772 2.57098 5.0968 2.3167 5.19414L1.56806 5.48083C0.731907 5.80094 0.403876 6.81053 0.892126 7.561L1.32938 8.23295C1.47787 8.46117 1.55691 8.7276 1.55691 8.99987C1.55691 9.27215 1.47787 9.53857 1.32938 9.76679L0.892173 10.4388C0.403876 11.1892 0.731907 12.1988 1.56806 12.5189L2.3167 12.8056C2.57098 12.9029 2.79153 13.072 2.95157 13.2923C3.11162 13.5126 3.20427 13.7746 3.2183 14.0465L3.25955 14.8471C3.30563 15.7412 4.16447 16.3652 5.02908 16.1327L5.80322 15.9246C6.06616 15.8539 6.34397 15.861 6.60293 15.9452C6.86188 16.0293 7.09084 16.1868 7.26202 16.3986L7.76597 17.022C8.3288 17.7183 9.39038 17.7183 9.9532 17.022L10.4572 16.3986C10.6283 16.1868 10.8573 16.0293 11.1162 15.9452C11.3752 15.861 11.653 15.8539 11.916 15.9246L12.6901 16.1327C13.5547 16.3652 14.4135 15.7412 14.4596 14.8471L14.5009 14.0465C14.5149 13.7746 14.6076 13.5126 14.7676 13.2923C14.9276 13.072 15.1482 12.9029 15.4025 12.8056L16.1511 12.5189C16.9873 12.1988 17.3153 11.1892 16.827 10.4388L16.3898 9.76679C16.2413 9.53857 16.1623 9.27215 16.1623 8.99987C16.1623 8.7276 16.2413 8.46117 16.3898 8.23295L16.827 7.561C17.3153 6.81053 16.9873 5.80094 16.1511 5.48083L15.4025 5.19414C15.1482 5.0968 14.9276 4.92772 14.7676 4.70745C14.6075 4.48718 14.5149 4.22518 14.5009 3.95326L14.4596 3.15269C14.4135 2.25854 13.5547 1.63455 12.6901 1.86705L11.916 2.07517C11.653 2.14588 11.3752 2.13873 11.1162 2.0546C10.8573 1.97046 10.6283 1.81296 10.4572 1.60122L9.9532 0.977777Z" fill="#2562FF"/>
<path fill-rule="evenodd" clip-rule="evenodd" d="M12.4446 6.45177C12.6353 6.64555 12.6327 6.95717 12.4388 7.14777L8.6863 10.8382C8.11635 11.3987 7.19751 11.383 6.64705 10.8033L5.31496 9.40039C5.12779 9.20328 5.13585 8.89175 5.33296 8.70454C5.53007 8.51736 5.8416 8.52543 6.02877 8.72258L7.36091 10.1255C7.53238 10.306 7.81855 10.3109 7.99607 10.1363L11.7486 6.44596C11.9424 6.25536 12.2541 6.25794 12.4446 6.45177Z" fill="#2562FF"/>
</g>
<defs>
<clipPath id="clip0_0_2183">
<rect width="18" height="18" fill="white"/>
</clipPath>
</defs>
</svg>
