<svg width="86" height="14" viewBox="0 0 86 14" fill="none" xmlns="http://www.w3.org/2000/svg">
<g clip-path="url(#clip0_0_1917)">
<path d="M8.08421 14V7.61441H10.2267L10.5482 5.12509H8.08421V3.53603C8.08421 2.81554 8.28346 2.32454 9.31781 2.32454L10.6349 2.32399V0.097461C10.4071 0.0678617 9.62527 0 8.71527 0C6.81505 0 5.51413 1.15988 5.51413 3.28949V5.12509H3.36511V7.61441H5.51413V14H8.08421Z" fill="white"/>
</g>
<g clip-path="url(#clip1_0_1917)">
<path d="M32.3033 5.92804L37.403 0H36.1945L31.7664 5.14724L28.2297 0H24.1505L29.4987 7.78354L24.1505 14H25.3591L30.0353 8.56434L33.7703 14H37.8495L32.303 5.92804H32.3033ZM30.648 7.85211L30.1061 7.07705L25.7945 0.909771H27.6508L31.1303 5.88696L31.6722 6.66202L36.1951 13.1316H34.3388L30.648 7.85241V7.85211Z" fill="white"/>
</g>
<g clip-path="url(#clip2_0_1917)">
<path d="M58.4999 0H51.5C49.5753 0 48.0001 1.57513 48.0001 3.49991V10.5001C48.0001 12.4244 49.5753 14 51.5 14H58.4999C60.4246 14 61.9998 12.4244 61.9998 10.5001V3.49991C61.9998 1.57513 60.4246 0 58.4999 0ZM60.8331 10.5001C60.8331 11.7863 59.7868 12.8333 58.4999 12.8333H51.5C50.2136 12.8333 49.1668 11.7863 49.1668 10.5001V3.49991C49.1668 2.21335 50.2136 1.1667 51.5 1.1667H58.4999C59.7868 1.1667 60.8331 2.21335 60.8331 3.49991V10.5001Z" fill="white"/>
<path d="M58.7922 4.08297C59.2754 4.08297 59.6671 3.69122 59.6671 3.20799C59.6671 2.72475 59.2754 2.33301 58.7922 2.33301C58.3089 2.33301 57.9172 2.72475 57.9172 3.20799C57.9172 3.69122 58.3089 4.08297 58.7922 4.08297Z" fill="white"/>
<path d="M55 3.5C53.0666 3.5 51.5001 5.06672 51.5001 6.99991C51.5001 8.93239 53.0666 10.5002 55 10.5002C56.9328 10.5002 58.4999 8.93239 58.4999 6.99991C58.4999 5.06672 56.9328 3.5 55 3.5ZM55 9.33348C53.7115 9.33348 52.6668 8.28876 52.6668 6.99991C52.6668 5.71106 53.7115 4.6667 55 4.6667C56.2885 4.6667 57.3332 5.71106 57.3332 6.99991C57.3332 8.28876 56.2885 9.33348 55 9.33348Z" fill="white"/>
</g>
<g clip-path="url(#clip3_0_1917)">
<path d="M85.9965 14L86 13.9994V8.86492C86 6.35308 85.4592 4.41817 82.5227 4.41817C81.1111 4.41817 80.1637 5.19283 79.777 5.92725H79.7362V4.65267H76.9519V13.9994H79.8511V9.37125C79.8511 8.15267 80.0821 6.97433 81.5912 6.97433C83.0781 6.97433 83.1002 8.365 83.1002 9.44942V14H85.9965ZM72.231 4.65325H75.1337V14H72.231V4.65325ZM73.6812 0C72.7531 0 72 0.753083 72 1.68117C72 2.60925 72.7531 3.37808 73.6812 3.37808C74.6092 3.37808 75.3623 2.60925 75.3623 1.68117C75.362 1.23539 75.1848 0.807957 74.8696 0.492744C74.5544 0.177531 74.1269 0.000309032 73.6812 0Z" fill="white"/>
</g>
<defs>
<clipPath id="clip0_0_1917">
<rect width="14" height="14" fill="white"/>
</clipPath>
<clipPath id="clip1_0_1917">
<rect width="14" height="14" fill="white" transform="translate(24)"/>
</clipPath>
<clipPath id="clip2_0_1917">
<rect width="14" height="14" fill="white" transform="translate(48)"/>
</clipPath>
<clipPath id="clip3_0_1917">
<rect width="14" height="14" fill="white" transform="translate(72)"/>
</clipPath>
</defs>
</svg>
