<svg width="40" height="40" viewBox="0 0 40 40" fill="none" xmlns="http://www.w3.org/2000/svg">
<g clip-path="url(#clip0_0_2527)">
<path d="M24.8023 36.0286H3.62664V33.4933H24.0066C24.3509 33.4933 24.6299 33.2143 24.6299 32.87C24.6299 32.5257 24.3509 32.2466 24.0066 32.2466H17.1323V19.5764C17.1323 19.2321 16.8509 18.9531 16.5067 18.9531H8.25742C8.0921 18.9531 7.93354 19.0188 7.81664 19.1357C7.69974 19.2526 7.63406 19.4111 7.63406 19.5764V32.2465H5.10984V15.7379C6.4718 15.5799 7.63734 14.9125 8.31266 13.9775C9.08914 15.0525 10.5133 15.7746 12.1389 15.7746C13.7636 15.7746 15.187 15.0526 15.963 13.9779C16.7395 15.0526 18.1636 15.7746 19.7891 15.7746C21.4164 15.7746 22.8416 15.0511 23.6177 13.9744C24.3936 15.0511 25.8188 15.7746 27.4461 15.7746C29.0717 15.7746 30.4959 15.0525 31.2723 13.9775C31.9477 14.9125 33.1132 15.5799 34.4752 15.7379V23.1861C34.4752 23.5304 34.7542 23.8095 35.0985 23.8095C35.4428 23.8095 35.7219 23.5304 35.7219 23.1861V15.7368C36.5567 15.6384 37.3503 15.345 37.9955 14.8891C38.9808 14.1937 39.5459 13.1807 39.5459 12.1097V9.26926C39.5459 9.17514 39.5246 9.08224 39.4836 8.99754L36.4066 2.64473C35.8794 1.55684 34.8293 0.907227 33.5977 0.907227H5.98508C4.75484 0.907227 3.70563 1.55676 3.17828 2.6448L0.101406 8.99762C0.0603813 9.08232 0.0390672 9.17522 0.0390625 9.26934V12.1098C0.0390625 13.1807 0.604141 14.1937 1.58922 14.8889C2.23508 15.3454 3.02883 15.6389 3.86313 15.7371V32.2467H3.0032C2.83788 32.2467 2.67932 32.3124 2.56242 32.4293C2.44552 32.5462 2.37984 32.7047 2.37984 32.87V36.6521C2.37984 36.8174 2.44552 36.976 2.56242 37.0929C2.67932 37.2098 2.83788 37.2754 3.0032 37.2754H24.8023C24.9665 37.2736 25.1233 37.2071 25.2387 37.0904C25.3541 36.9737 25.4188 36.8162 25.4188 36.652C25.4188 36.4879 25.3541 36.3304 25.2387 36.2137C25.1233 36.097 24.9665 36.0305 24.8023 36.0286ZM12.1389 14.5279C10.4027 14.5279 8.93602 13.4205 8.93602 12.1097V9.8927H15.3395V12.1097C15.3395 13.4205 13.8739 14.5279 12.1389 14.5279ZM16.3055 2.15402L16.3013 2.18418L15.4189 8.6459H9.20758L11.607 2.15402H16.3055ZM17.5636 2.15402H22.0194L22.5279 5.87184L22.9059 8.6459H16.6775L16.9498 6.65684L17.5636 2.15402ZM27.9758 2.15402L29.5943 6.52973L30.377 8.6459H24.1641L23.8704 6.48816L23.764 5.71012L23.2795 2.15402H27.9758ZM19.7891 14.5279C18.053 14.5279 16.5863 13.4205 16.5863 12.1097V9.8927H22.9921V12.1097C22.992 13.4205 21.5253 14.5279 19.7891 14.5279ZM27.446 14.5279C25.7098 14.5279 24.2432 13.4205 24.2432 12.1097V9.8927H30.6489V12.1097C30.6489 13.4205 29.1822 14.5279 27.446 14.5279ZM37.2763 13.8707C36.7087 14.2718 35.977 14.5043 35.2151 14.5258C35.1918 14.5259 35.1684 14.5265 35.1452 14.5271C35.1296 14.5275 35.1141 14.528 35.0985 14.528C33.3623 14.528 31.8956 13.4206 31.8956 12.1098V9.89277H38.2991V12.1098C38.2991 12.77 37.9265 13.4118 37.2763 13.8707ZM33.5977 2.15402C34.3401 2.15402 34.9707 2.54074 35.2846 3.18832L37.9279 8.6459H31.7062L29.3051 2.15402H33.5977ZM4.30023 3.18848C4.61422 2.54074 5.24406 2.15402 5.98508 2.15402H10.278L7.87844 8.6459H1.65703L4.30023 3.18848ZM1.28578 12.1097V9.8927H7.68922V12.1097C7.68922 13.3979 6.2725 14.4889 4.57578 14.5261C4.5462 14.5216 4.51633 14.5192 4.48641 14.519C4.45563 14.519 4.42562 14.522 4.39602 14.5263C4.38648 14.5261 4.37719 14.5258 4.3675 14.5258C3.60719 14.5043 2.87625 14.2718 2.3082 13.8706C1.65852 13.4118 1.28578 12.77 1.28578 12.1097ZM8.88078 20.1999H15.8855V32.2466H8.88078V20.1999ZM30.7041 22.8789V20.1999H20.523V24.7666H23.4407C23.785 24.7666 24.0641 25.0457 24.0641 25.39C24.0641 25.7343 23.785 26.0133 23.4407 26.0133H19.8997C19.7344 26.0133 19.5758 25.9476 19.4589 25.8307C19.342 25.7138 19.2763 25.5553 19.2763 25.39V19.5765C19.2763 19.4112 19.342 19.2526 19.4589 19.1357C19.5758 19.0188 19.7344 18.9532 19.8997 18.9532H31.3275C31.4928 18.9532 31.6514 19.0188 31.7683 19.1357C31.8852 19.2526 31.9509 19.4112 31.9509 19.5765V22.8789C31.9483 23.0425 31.8815 23.1985 31.7648 23.3133C31.6482 23.4281 31.4911 23.4924 31.3275 23.4924C31.1639 23.4924 31.0068 23.4281 30.8902 23.3133C30.7735 23.1985 30.7067 23.0425 30.7041 22.8789ZM27.4814 33.4889H27.5503C27.5563 33.4901 27.5624 33.4908 27.5684 33.4919C27.575 33.4931 27.5816 33.4939 27.5881 33.4949C27.6158 33.4989 27.6438 33.5016 27.6725 33.5018C27.6743 33.5018 27.6759 33.5022 27.6777 33.5022C27.6789 33.5022 27.68 33.502 27.6812 33.502L31.981 33.4888H35.6488C35.6895 33.4888 35.729 33.4846 35.7675 33.4771L37.0279 33.4733C37.1593 33.4729 37.2873 33.4309 37.3934 33.3535C37.4996 33.276 37.5786 33.1669 37.6191 33.0419L39.8983 26.0009C40.0245 25.6093 39.9586 25.1932 39.7147 24.8553C39.4702 24.5221 39.0945 24.3309 38.6838 24.3309H25.9577L25.518 22.7433C25.4816 22.6119 25.4032 22.4961 25.2947 22.4136C25.1862 22.3311 25.0536 22.2864 24.9173 22.2864H22.8616C22.5173 22.2864 22.2382 22.5654 22.2382 22.9097C22.2382 23.254 22.5173 23.5331 22.8616 23.5331H24.443L24.885 25.1289C24.8863 25.1333 24.8873 25.1378 24.8886 25.1421L26.8786 32.3276C25.9729 32.5893 25.3084 33.4247 25.3084 34.4127C25.3084 35.6107 26.2832 36.5856 27.4813 36.5856H27.7804C27.7081 36.7877 27.6712 37.0008 27.6713 37.2155C27.6713 38.2504 28.5132 39.0921 29.548 39.0921C30.5828 39.0921 31.4247 38.2503 31.4247 37.2155C31.4247 36.9946 31.386 36.7826 31.3156 36.5856H33.4214C33.3491 36.7877 33.3122 37.0008 33.3123 37.2155C33.3123 38.2504 34.1542 39.0921 35.189 39.0921C36.2238 39.0921 37.0656 38.2503 37.0656 37.2155C37.0656 36.9946 37.027 36.7826 36.9566 36.5856H38.1111C38.4554 36.5856 38.7345 36.3065 38.7345 35.9622C38.7345 35.6179 38.4554 35.3389 38.1111 35.3389H27.4814C26.9707 35.3389 26.5553 34.9234 26.5553 34.4127C26.5553 33.9034 26.9707 33.4889 27.4814 33.4889ZM38.6838 25.5778C38.6923 25.5778 38.6963 25.5788 38.6966 25.5788C38.6971 25.5792 38.7018 25.5824 38.7067 25.589C38.7101 25.5933 38.7129 25.5981 38.7149 25.6032C38.7148 25.6082 38.7138 25.6132 38.712 25.6179L36.5722 32.2282L32.0127 32.2421H28.1487L26.303 25.5778H38.6838ZM30.1781 37.2157C30.1781 37.563 29.8955 37.8456 29.5481 37.8456C29.2008 37.8456 28.9182 37.563 28.9182 37.2157C28.9182 36.8683 29.2008 36.5857 29.5481 36.5857C29.8955 36.5857 30.1781 36.8683 30.1781 37.2157ZM35.8191 37.2157C35.8191 37.563 35.5365 37.8456 35.1891 37.8456C34.8418 37.8456 34.5592 37.563 34.5592 37.2157C34.5592 36.8683 34.8418 36.5857 35.1891 36.5857C35.5365 36.5857 35.8191 36.8683 35.8191 37.2157ZM29.473 30.9933V26.8377C29.473 26.4934 29.752 26.2143 30.0963 26.2143C30.4406 26.2143 30.7197 26.4934 30.7197 26.8377V30.9933C30.7197 31.3376 30.4406 31.6167 30.0963 31.6167C29.752 31.6167 29.473 31.3376 29.473 30.9933ZM31.9089 30.9933V26.8377C31.9089 26.4934 32.188 26.2143 32.5323 26.2143C32.8766 26.2143 33.1556 26.4934 33.1556 26.8377V30.9933C33.1556 31.3376 32.8766 31.6167 32.5323 31.6167C32.188 31.6167 31.9089 31.3376 31.9089 30.9933ZM34.3447 30.9933V26.8377C34.3447 26.4934 34.6237 26.2143 34.968 26.2143C35.3123 26.2143 35.5914 26.4934 35.5914 26.8377V30.9933C35.5914 31.3376 35.3123 31.6167 34.968 31.6167C34.6237 31.6167 34.3447 31.3376 34.3447 30.9933Z" fill="white"/>
</g>
<defs>
<clipPath id="clip0_0_2527">
<rect width="40" height="40" fill="white"/>
</clipPath>
</defs>
</svg>
