<svg width="60" height="60" viewBox="0 0 60 60" fill="none" xmlns="http://www.w3.org/2000/svg">
<rect width="60" height="60" rx="10" fill="#F5F6F7"/>
<g clip-path="url(#clip0_0_2308)">
<path d="M39.575 20.1251C39.4579 20.0087 39.2995 19.9434 39.1344 19.9434C38.9692 19.9434 38.8108 20.0087 38.6937 20.1251L30.2687 28.2939C30.1494 28.4099 30.081 28.5686 30.0787 28.735C30.0763 28.9015 30.1402 29.062 30.2562 29.1814C30.3723 29.3007 30.531 29.3691 30.6974 29.3714C30.8638 29.3738 31.0244 29.3099 31.1437 29.1939L39.5625 21.0064C39.6806 20.8909 39.7482 20.7334 39.7505 20.5683C39.7528 20.4032 39.6897 20.2439 39.575 20.1251Z" fill="#2B4DFF"/>
<path d="M44.1499 26.5002H43.1687C43.0014 26.5008 42.8382 26.4486 42.7024 26.3509C42.5666 26.2533 42.4651 26.1152 42.4125 25.9564C42.1253 25.1023 41.7525 24.2794 41.3 23.5002L45.1499 19.6939C45.7106 19.1326 46.0255 18.3717 46.0255 17.5783C46.0255 16.785 45.7106 16.024 45.1499 15.4627L44.1624 14.5064C43.6021 13.9517 42.8447 13.6416 42.0562 13.6439C41.6642 13.6435 41.276 13.7212 40.9144 13.8725C40.5527 14.0239 40.2249 14.2457 39.9499 14.5252L36.075 18.3502C35.3601 17.961 34.6137 17.6327 33.8437 17.3689C33.6856 17.316 33.5483 17.2143 33.4518 17.0784C33.3552 16.9425 33.3042 16.7794 33.3062 16.6127V15.6252C33.3045 15.0809 33.0872 14.5595 32.7017 14.1752C32.3163 13.791 31.7942 13.5752 31.2499 13.5752H27.7437C27.1994 13.5752 26.6774 13.791 26.2919 14.1752C25.9065 14.5595 25.6891 15.0809 25.6875 15.6252V16.6064C25.6881 16.7737 25.6358 16.9369 25.5382 17.0727C25.4405 17.2085 25.3025 17.31 25.1437 17.3627C24.5517 17.5645 23.9733 17.8046 23.4124 18.0814C23.2635 18.154 23.0958 18.1785 22.9323 18.1516C22.7689 18.1248 22.6178 18.0478 22.5 17.9314L21.8125 17.2377C21.425 16.8537 20.9017 16.6383 20.3562 16.6383C19.8107 16.6383 19.2874 16.8537 18.9 17.2377L16.4375 19.7002C16.2458 19.8912 16.0938 20.1182 15.9901 20.3681C15.8863 20.618 15.8329 20.8859 15.8329 21.1564C15.8329 21.427 15.8863 21.6949 15.9901 21.9448C16.0938 22.1947 16.2458 22.4217 16.4375 22.6127L17.125 23.3064C17.2437 23.4241 17.3226 23.5759 17.3507 23.7407C17.3787 23.9055 17.3544 24.0749 17.2812 24.2252C17.0027 24.7845 16.7645 25.3631 16.5687 25.9564C16.514 26.1152 16.4112 26.2529 16.2745 26.3504C16.1378 26.4479 15.9741 26.5002 15.8062 26.5002H14.8187C14.2733 26.5002 13.7503 26.7168 13.3647 27.1025C12.9791 27.4881 12.7625 28.0111 12.7625 28.5564V32.0377C12.7625 32.583 12.9791 33.1061 13.3647 33.4917C13.7503 33.8773 14.2733 34.0939 14.8187 34.0939H15.8C15.9672 34.0933 16.1304 34.1456 16.2662 34.2432C16.402 34.3409 16.5035 34.4789 16.5562 34.6377C16.758 35.2297 16.9981 35.808 17.275 36.3689C17.3482 36.5192 17.3724 36.6886 17.3444 36.8534C17.3164 37.0182 17.2375 37.1701 17.1187 37.2877L16.4312 37.9814C16.2345 38.1697 16.0777 38.3957 15.9703 38.6459C15.8629 38.8961 15.8071 39.1654 15.8062 39.4377C15.8089 39.7097 15.8655 39.9785 15.9728 40.2284C16.0801 40.4784 16.2359 40.7046 16.4312 40.8939L18.8937 43.3564C19.2811 43.7404 19.8045 43.9558 20.3499 43.9558C20.8954 43.9558 21.4188 43.7404 21.8062 43.3564L22.5 42.6627C22.6164 42.5442 22.7668 42.465 22.9303 42.4358C23.0938 42.4067 23.2623 42.4292 23.4124 42.5002C23.9723 42.7777 24.5508 43.0157 25.1437 43.2127C25.3024 43.2674 25.4402 43.3702 25.5376 43.5069C25.6351 43.6436 25.6875 43.8073 25.6875 43.9752V44.9564C25.6875 45.5018 25.9041 46.0248 26.2897 46.4104C26.6753 46.7961 27.1983 47.0127 27.7437 47.0127H31.2499C31.5205 47.0135 31.7886 46.9609 32.0388 46.858C32.289 46.755 32.5164 46.6037 32.708 46.4126C32.8996 46.2216 33.0516 45.9947 33.1553 45.7448C33.2591 45.4949 33.3124 45.227 33.3124 44.9564V43.9814C33.3101 43.8139 33.3608 43.6499 33.4574 43.5129C33.5539 43.3759 33.6913 43.273 33.8499 43.2189C34.437 43.02 35.0093 42.7798 35.5625 42.5002C35.7118 42.4275 35.8801 42.4035 36.0438 42.4315C36.2075 42.4595 36.3583 42.5382 36.475 42.6564L37.1687 43.3502C37.5561 43.7341 38.0795 43.9496 38.6249 43.9496C39.1704 43.9496 39.6938 43.7341 40.0812 43.3502L42.5437 40.8877C42.9277 40.5003 43.1431 39.9769 43.1431 39.4314C43.1431 38.886 42.9277 38.3626 42.5437 37.9752L41.875 37.2877C41.7562 37.1701 41.6773 37.0182 41.6492 36.8534C41.6212 36.6886 41.6455 36.5192 41.7187 36.3689C41.9992 35.8097 42.2394 35.2312 42.4375 34.6377C42.4901 34.4789 42.5916 34.3409 42.7274 34.2432C42.8632 34.1456 43.0264 34.0933 43.1937 34.0939H44.1749C44.7203 34.0939 45.2433 33.8773 45.6289 33.4917C46.0146 33.1061 46.2312 32.583 46.2312 32.0377V28.5564C46.2312 28.2843 46.1772 28.0149 46.0723 27.7637C45.9674 27.5126 45.8137 27.2848 45.6201 27.0935C45.4265 26.9023 45.1969 26.7513 44.9445 26.6495C44.6922 26.5476 44.4221 26.4969 44.1499 26.5002ZM38.525 27.3502C39.1484 29.267 39.1485 31.332 38.5253 33.2489C37.9022 35.1657 36.6877 36.8359 35.0563 38.0196C33.4249 39.2034 31.4604 39.8398 29.4448 39.8376C27.4292 39.8354 25.466 39.1947 23.8372 38.0075C22.2084 36.8202 20.9975 35.1474 20.3785 33.2292C19.7595 31.311 19.7641 29.2459 20.3917 27.3305C21.0193 25.4151 22.2376 23.7477 23.8717 22.5678C25.5059 21.3878 27.4718 20.7559 29.4874 20.7627C30.6726 20.7617 31.8474 20.9843 32.95 21.4189L25.4499 28.8564C25.3677 28.937 25.3093 29.0386 25.2812 29.1502L23.8499 34.8502C23.8176 34.9593 23.8156 35.0752 23.8442 35.1853C23.8729 35.2954 23.931 35.3957 24.0125 35.4752C24.0703 35.5342 24.1394 35.5812 24.2155 35.6134C24.2917 35.6456 24.3735 35.6623 24.4562 35.6627C24.506 35.6687 24.5564 35.6687 24.6062 35.6627L30.3687 34.2439C30.4789 34.2205 30.5793 34.1638 30.6562 34.0814L38.2562 26.5814C38.3688 26.8326 38.4689 27.0892 38.5562 27.3502H38.525ZM26.2062 30.5127L28.9687 33.2439L25.2999 34.1502L26.2062 30.5127ZM30.1999 32.7064L26.7562 29.3002L39.1562 17.0502L42.5999 20.4564L30.1999 32.7064ZM42.0749 14.8939C42.5412 14.8893 42.9905 15.069 43.3249 15.3939L44.2874 16.3502C44.6134 16.6771 44.7964 17.1198 44.7964 17.5814C44.7964 18.0431 44.6134 18.4858 44.2874 18.8127L43.5124 19.5752L40.0437 16.1689L40.8124 15.4064C40.9736 15.2439 41.1654 15.1148 41.3767 15.0269C41.5881 14.9389 41.8148 14.8937 42.0437 14.8939H42.0749ZM44.9874 32.0377C44.9874 32.2515 44.9025 32.4566 44.7513 32.6078C44.6001 32.759 44.395 32.8439 44.1812 32.8439H43.1687C42.7431 32.8492 42.3297 32.9869 41.9859 33.2377C41.6421 33.4886 41.3849 33.8403 41.25 34.2439C41.0754 34.7797 40.8666 35.3037 40.625 35.8127C40.4362 36.1969 40.3722 36.6304 40.4416 37.0528C40.5111 37.4752 40.7106 37.8654 41.0124 38.1689L41.7062 38.8627C41.7816 38.9376 41.8414 39.0267 41.8823 39.1249C41.9231 39.223 41.9441 39.3283 41.9441 39.4346C41.9441 39.5409 41.9231 39.6461 41.8823 39.7443C41.8414 39.8424 41.7816 39.9315 41.7062 40.0064L39.1937 42.5002C39.1188 42.5756 39.0297 42.6354 38.9315 42.6763C38.8334 42.7171 38.7281 42.7381 38.6218 42.7381C38.5155 42.7381 38.4103 42.7171 38.3121 42.6763C38.214 42.6354 38.1249 42.5756 38.0499 42.5002L37.3562 41.8064C37.0578 41.497 36.6692 41.2899 36.246 41.2147C35.8228 41.1395 35.3867 41.2 35 41.3877C34.4893 41.6305 33.9631 41.8393 33.4249 42.0127C33.0169 42.1476 32.6621 42.4084 32.4117 42.7577C32.1612 43.107 32.028 43.5267 32.0312 43.9564V44.9377C32.0363 45.1511 31.9572 45.3579 31.811 45.5135C31.6648 45.669 31.4633 45.7608 31.2499 45.7689H27.7437C27.5299 45.7689 27.3248 45.684 27.1736 45.5328C27.0224 45.3816 26.9375 45.1765 26.9375 44.9627V43.9814C26.9397 43.5519 26.8061 43.1326 26.5558 42.7835C26.3055 42.4345 25.9513 42.1734 25.5437 42.0377C25.0055 41.8643 24.4794 41.6555 23.9687 41.4127C23.5851 41.2212 23.1509 41.1555 22.7279 41.2251C22.3048 41.2947 21.9145 41.4959 21.6125 41.8002L20.9187 42.5002C20.8438 42.5756 20.7547 42.6354 20.6565 42.6763C20.5584 42.7171 20.4531 42.7381 20.3468 42.7381C20.2405 42.7381 20.1353 42.7171 20.0371 42.6763C19.939 42.6354 19.8499 42.5756 19.775 42.5002L17.3125 40.0002C17.2364 39.9265 17.1761 39.838 17.1352 39.7402C17.0944 39.6425 17.0739 39.5374 17.075 39.4314C17.0741 39.3246 17.0947 39.2187 17.1355 39.1199C17.1763 39.0212 17.2365 38.9316 17.3125 38.8564L18.0062 38.1627C18.3113 37.8612 18.5131 37.4708 18.5828 37.0475C18.6524 36.6242 18.5862 36.1898 18.3937 35.8064C18.1509 35.2958 17.9421 34.7696 17.7687 34.2314C17.6313 33.8249 17.3699 33.4718 17.0212 33.2217C16.6724 32.9717 16.254 32.8374 15.825 32.8377H14.8187C14.6049 32.8377 14.3998 32.7527 14.2486 32.6015C14.0974 32.4503 14.0125 32.2453 14.0125 32.0314V28.5564C14.0125 28.3426 14.0974 28.1375 14.2486 27.9863C14.3998 27.8351 14.6049 27.7502 14.8187 27.7502H15.8C16.2295 27.7524 16.6488 27.6189 16.9979 27.3685C17.3469 27.1182 17.608 26.764 17.7437 26.3564C17.9171 25.8162 18.1259 25.288 18.3687 24.7752C18.5607 24.3928 18.6266 23.9594 18.557 23.5372C18.4874 23.115 18.2858 22.7257 17.9812 22.4252L17.3125 21.7314C17.1617 21.5793 17.0771 21.3738 17.0771 21.1596C17.0771 20.9454 17.1617 20.7398 17.3125 20.5877L19.775 18.1252C19.8499 18.0498 19.939 17.99 20.0371 17.9491C20.1353 17.9083 20.2405 17.8873 20.3468 17.8873C20.4531 17.8873 20.5584 17.9083 20.6565 17.9491C20.7547 17.99 20.8438 18.0498 20.9187 18.1252L21.6125 18.8189C21.915 19.1224 22.3053 19.3231 22.7281 19.3926C23.1509 19.4621 23.5849 19.397 23.9687 19.2064C24.4794 18.9637 25.0055 18.7549 25.5437 18.5814C25.9507 18.4449 26.3044 18.1836 26.5546 17.8347C26.8048 17.4858 26.9387 17.067 26.9375 16.6377V15.6252C26.9375 15.4114 27.0224 15.2063 27.1736 15.0551C27.3248 14.9039 27.5299 14.8189 27.7437 14.8189H31.2499C31.46 14.8254 31.6594 14.913 31.8062 15.0633C31.9531 15.2137 32.0359 15.4151 32.0374 15.6252V16.6064C32.0352 17.036 32.1688 17.4553 32.4191 17.8043C32.6694 18.1534 33.0236 18.4145 33.4312 18.5502C34.0102 18.7516 34.5741 18.9939 35.1187 19.2752L33.9187 20.4564C32.5271 19.8248 31.0157 19.5007 29.4874 19.5064C27.2183 19.5113 25.0088 20.2336 23.175 21.5702C21.3412 22.9067 19.9771 24.7889 19.2777 26.9476C18.5784 29.1064 18.5797 31.4309 19.2814 33.5889C19.9831 35.7468 21.3493 37.6276 23.1845 38.9621C25.0198 40.2966 27.2301 41.0166 29.4992 41.0189C31.7684 41.0213 33.9802 40.3059 35.8182 38.9752C37.6562 37.6445 39.0263 35.7666 39.7325 33.6102C40.4387 31.4537 40.4448 29.1291 39.7499 26.9689C39.5917 26.4983 39.4017 26.0389 39.1812 25.5939L40.3687 24.4189C40.7196 25.0372 41.0145 25.6856 41.25 26.3564C41.3873 26.763 41.6488 27.1161 41.9975 27.3662C42.3462 27.6162 42.7646 27.7505 43.1937 27.7502H44.1749C44.3888 27.7502 44.5938 27.8351 44.7451 27.9863C44.8963 28.1375 44.9812 28.3426 44.9812 28.5564L44.9874 32.0377Z" fill="#2B4DFF"/>
</g>
<defs>
<clipPath id="clip0_0_2308">
<rect width="40" height="40" fill="white" transform="translate(10 10)"/>
</clipPath>
</defs>
</svg>
