<svg width="65" height="65" viewBox="0 0 65 65" fill="none" xmlns="http://www.w3.org/2000/svg">
<rect width="65" height="65" rx="10" fill="#0A165E"/>
<path d="M31.9945 39.4888H25.9103L26.9271 36.1484H30.9777L31.9945 39.4888Z" stroke="white" stroke-linecap="round" stroke-linejoin="round"/>
<path d="M16.125 20.1765H41.7797V32.3783H16.125V20.1765Z" stroke="white" stroke-linecap="round" stroke-linejoin="round"/>
<path d="M16.125 32.3784V34.8838C16.126 35.2344 16.2657 35.5705 16.5137 35.8185C16.7616 36.0665 17.0976 36.2063 17.4482 36.2074H40.4567C40.8074 36.2063 41.1434 36.0665 41.3913 35.8185C41.6392 35.5705 41.7789 35.2344 41.78 34.8838V32.3784H16.125ZM41.7797 19.0226V20.1852H16.125V19.0226C16.125 18.5726 16.5115 18.2007 16.9825 18.2007H40.92C41.3925 18.2 41.7797 18.5708 41.7797 19.0226Z" stroke="white" stroke-linecap="round" stroke-linejoin="round"/>
<path d="M44.1978 25.2013C44.1971 24.9607 44.1012 24.7301 43.931 24.56C43.7609 24.3898 43.5303 24.2939 43.2897 24.2932H31.9348C31.6942 24.2939 31.4636 24.3898 31.2935 24.56C31.1233 24.7301 31.0274 24.9607 31.0267 25.2013V40.3526H44.1978V25.2013Z" stroke="white" stroke-linecap="round" stroke-linejoin="round"/>
<path d="M31.0267 40.3525V41.4829C31.0274 41.7236 31.1233 41.9541 31.2935 42.1243C31.4636 42.2944 31.6942 42.3903 31.9348 42.391H43.2897C43.5303 42.3903 43.7609 42.2944 43.931 42.1243C44.1012 41.9541 44.1971 41.7236 44.1978 41.4829V40.3525H31.0267Z" stroke="white" stroke-linecap="round" stroke-linejoin="round"/>
<path d="M49.875 37.5791V45.7016C49.875 46.3058 49.3858 46.7999 48.788 46.7999H41.6667C41.0689 46.7999 40.5798 46.3049 40.5798 45.7016V31.3939C40.5798 30.7898 41.0689 30.2957 41.6667 30.2957H48.788C49.3858 30.2957 49.875 30.7907 49.875 31.3939V36.417" stroke="white" stroke-linecap="round" stroke-linejoin="round"/>
<path d="M43.217 32.1699H42.3179M45.6767 44.9877H44.7778M48.8179 43.9703H41.5527" stroke="white" stroke-linecap="round" stroke-linejoin="round"/>
<path d="M33.3796 37.2251H38.3744M33.3796 38.5872H37.0122" stroke="white" stroke-linecap="round" stroke-linejoin="round"/>
</svg>
