<svg width="60" height="60" viewBox="0 0 60 60" fill="none" xmlns="http://www.w3.org/2000/svg">
<rect width="60" height="60" rx="30" fill="#2B4DFF"/>
<g clip-path="url(#clip0_0_2953)">
<path d="M35.8147 31.907C35.4047 31.48 34.9101 31.2518 34.3859 31.2518C33.866 31.2518 33.3671 31.4758 32.9402 31.9028L31.6044 33.2344C31.4945 33.1752 31.3846 33.1202 31.2789 33.0653C31.1267 32.9892 30.983 32.9173 30.8604 32.8412C29.6091 32.0465 28.472 31.0108 27.3813 29.6708C26.8529 29.0029 26.4978 28.4406 26.24 27.8699C26.5866 27.5529 26.9079 27.2232 27.2207 26.9061C27.3391 26.7878 27.4574 26.6652 27.5758 26.5468C28.4635 25.6591 28.4635 24.5093 27.5758 23.6215L26.4217 22.4675C26.2907 22.3364 26.1554 22.2012 26.0286 22.0659C25.775 21.8038 25.5086 21.5333 25.2339 21.2796C24.8238 20.8738 24.3334 20.6582 23.8177 20.6582C23.302 20.6582 22.8032 20.8738 22.3805 21.2796C22.3762 21.2838 22.3762 21.2838 22.372 21.2881L20.9347 22.738C20.3936 23.2791 20.085 23.9386 20.0174 24.7037C19.9159 25.9381 20.2795 27.0879 20.5585 27.8404C21.2433 29.6877 22.2663 31.3997 23.7924 33.2344C25.6439 35.4452 27.8717 37.1911 30.4165 38.4212C31.3888 38.882 32.6866 39.4273 34.1365 39.5203C34.2253 39.5246 34.3183 39.5288 34.4028 39.5288C35.3793 39.5288 36.1994 39.1779 36.842 38.4804C36.8462 38.472 36.8547 38.4677 36.8589 38.4593C37.0787 38.193 37.3323 37.952 37.5987 37.6941C37.7804 37.5208 37.9664 37.3391 38.1482 37.1488C38.5667 36.7134 38.7865 36.2061 38.7865 35.6862C38.7865 35.162 38.5625 34.659 38.1355 34.2362L35.8147 31.907ZM37.3281 36.3583C37.3239 36.3583 37.3239 36.3626 37.3281 36.3583C37.1632 36.5359 36.9942 36.6965 36.8124 36.8741C36.5376 37.1361 36.2586 37.4109 35.9965 37.7195C35.5696 38.1761 35.0665 38.3916 34.4071 38.3916C34.3437 38.3916 34.276 38.3916 34.2126 38.3874C32.9571 38.3071 31.7904 37.8167 30.9153 37.3982C28.5227 36.24 26.4217 34.5955 24.6759 32.5115C23.2344 30.7741 22.2705 29.1677 21.6322 27.443C21.2391 26.3904 21.0953 25.5703 21.1588 24.7967C21.201 24.3021 21.3913 23.8921 21.7421 23.5412L23.1836 22.0997C23.3908 21.9053 23.6106 21.7996 23.8262 21.7996C24.0925 21.7996 24.3081 21.9602 24.4434 22.0955C24.4476 22.0997 24.4518 22.1039 24.456 22.1082C24.7139 22.3491 24.9591 22.5985 25.2169 22.8648C25.348 23.0001 25.4833 23.1354 25.6185 23.2749L26.7726 24.4289C27.2207 24.877 27.2207 25.2913 26.7726 25.7394C26.65 25.862 26.5316 25.9846 26.409 26.1029C26.0539 26.4665 25.7158 26.8047 25.348 27.1344C25.3395 27.1429 25.3311 27.1471 25.3269 27.1555C24.9633 27.5191 25.031 27.8742 25.107 28.1151C25.1113 28.1278 25.1155 28.1405 25.1197 28.1532C25.4199 28.8803 25.8426 29.5651 26.4851 30.3809L26.4894 30.3852C27.6561 31.8225 28.8862 32.9427 30.2432 33.8008C30.4165 33.9107 30.5941 33.9995 30.7631 34.084C30.9153 34.1601 31.0591 34.232 31.1816 34.3081C31.1986 34.3165 31.2155 34.3292 31.2324 34.3377C31.3761 34.4095 31.5114 34.4434 31.6509 34.4434C32.0017 34.4434 32.2216 34.2235 32.2934 34.1517L33.7391 32.706C33.8829 32.5622 34.1112 32.3889 34.3775 32.3889C34.6396 32.3889 34.8552 32.5538 34.9862 32.6975C34.9904 32.7017 34.9904 32.7017 34.9947 32.706L37.3239 35.0352C37.7593 35.4664 37.7593 35.9102 37.3281 36.3583Z" fill="white"/>
<path d="M30.8096 24.2639C31.9171 24.4499 32.9232 24.9741 33.7264 25.7773C34.5296 26.5805 35.0496 27.5866 35.2398 28.6941C35.2863 28.9731 35.5272 29.1676 35.802 29.1676C35.8358 29.1676 35.8654 29.1633 35.8992 29.1591C36.2121 29.1084 36.4192 28.8125 36.3685 28.4997C36.1402 27.1596 35.5061 25.9379 34.5381 24.9699C33.57 24.0018 32.3483 23.3677 31.0083 23.1395C30.6955 23.0887 30.4038 23.2959 30.3488 23.6045C30.2939 23.9131 30.4968 24.2132 30.8096 24.2639Z" fill="white"/>
<path d="M39.9914 28.3353C39.6152 26.1286 38.5752 24.1207 36.9773 22.5227C35.3794 20.9248 33.3715 19.8849 31.1648 19.5087C30.8562 19.4537 30.5645 19.6651 30.5096 19.9737C30.4589 20.2865 30.666 20.5782 30.9788 20.6332C32.9487 20.9671 34.7453 21.9013 36.1741 23.3259C37.603 24.7548 38.533 26.5514 38.8669 28.5213C38.9134 28.8003 39.1544 28.9947 39.4292 28.9947C39.463 28.9947 39.4926 28.9905 39.5264 28.9863C39.835 28.9398 40.0463 28.6439 39.9914 28.3353Z" fill="white"/>
</g>
<defs>
<clipPath id="clip0_0_2953">
<rect width="20" height="21" fill="white" transform="translate(20 19.5)"/>
</clipPath>
</defs>
</svg>
