<svg width="40" height="40" viewBox="0 0 40 40" fill="none" xmlns="http://www.w3.org/2000/svg">
<g clip-path="url(#clip0_0_2511)">
<path d="M14.9042 21.3636C14.9042 22.3715 15.203 23.3567 15.763 24.1947C16.3229 25.0327 17.1188 25.6858 18.0499 26.0715C18.981 26.4572 20.0056 26.5581 20.9941 26.3615C21.9826 26.1649 22.8906 25.6796 23.6032 24.9669C24.3159 24.2542 24.8012 23.3463 24.9978 22.3578C25.1944 21.3693 25.0935 20.3447 24.7078 19.4136C24.3222 18.4824 23.669 17.6866 22.831 17.1266C21.993 16.5667 21.0078 16.2679 20 16.2679C18.6489 16.2694 17.3537 16.8068 16.3984 17.7621C15.4431 18.7174 14.9057 20.0126 14.9042 21.3636ZM20 17.3619C20.7914 17.3619 21.5651 17.5966 22.2232 18.0363C22.8813 18.476 23.3942 19.101 23.6971 19.8322C23.9999 20.5635 24.0792 21.3681 23.9248 22.1443C23.7704 22.9206 23.3893 23.6336 22.8296 24.1933C22.27 24.7529 21.5569 25.1341 20.7807 25.2885C20.0044 25.4429 19.1998 25.3636 18.4686 25.0607C17.7373 24.7579 17.1124 24.245 16.6727 23.5869C16.2329 22.9288 15.9982 22.1551 15.9982 21.3636C15.9994 20.3027 16.4214 19.2855 17.1716 18.5353C17.9218 17.7851 18.939 17.3631 20 17.3619ZM21.9753 27.2079H18.0246C14.2525 27.2079 11.1836 30.0361 11.1836 33.5126V37.8134C11.1843 38.2042 11.34 38.5787 11.6165 38.8549C11.893 39.131 12.2678 39.2862 12.6586 39.2864H27.3414C27.7321 39.2862 28.1068 39.1311 28.3833 38.855C28.6598 38.5789 28.8155 38.2044 28.8163 37.8136V33.5129C28.8163 30.0364 25.7475 27.2079 21.9753 27.2079ZM27.7222 37.8136C27.7206 37.9139 27.6799 38.0097 27.6088 38.0804C27.5376 38.1511 27.4417 38.1913 27.3414 38.1923H24.9518V33.5126C24.9518 33.3676 24.8942 33.2285 24.7917 33.1259C24.6891 33.0234 24.55 32.9657 24.405 32.9657C24.2599 32.9657 24.1208 33.0234 24.0183 33.1259C23.9157 33.2285 23.8581 33.3676 23.8581 33.5126V38.1923H16.1422V33.5126C16.1422 33.3676 16.0846 33.2285 15.982 33.1259C15.8795 33.0234 15.7404 32.9657 15.5954 32.9657C15.4503 32.9657 15.3112 33.0234 15.2087 33.1259C15.1061 33.2285 15.0485 33.3676 15.0485 33.5126V38.1923H12.6586C12.5579 38.1925 12.4612 38.1527 12.3898 38.0817C12.3184 38.0107 12.2781 37.9143 12.2777 37.8136V33.5129C12.2777 30.6396 14.8558 28.3019 18.0246 28.3019H21.9753C25.1442 28.3019 27.7222 30.6395 27.7222 33.5129V37.8136ZM13.494 6.17598C13.6038 6.17602 13.7111 6.14285 13.8018 6.08082L14.8577 5.36059V10.7491C14.8577 11.3023 15.276 11.7524 15.79 11.7524H18.4458C18.4603 11.7535 18.4748 11.7546 18.4896 11.7546C18.5045 11.7546 18.5189 11.7535 18.5335 11.7524H21.4665C21.4811 11.7535 21.4956 11.7546 21.5103 11.7546C21.5251 11.7546 21.5397 11.7535 21.5542 11.7524H24.2077C24.7233 11.7524 25.1423 11.3023 25.1423 10.7491V5.36035L26.1982 6.08074C26.318 6.16252 26.4654 6.19334 26.6079 6.16643C26.7505 6.13952 26.8765 6.05709 26.9583 5.93727C27.0401 5.81744 27.0709 5.67004 27.044 5.5275C27.0171 5.38495 26.9346 5.25892 26.8148 5.17715L22.6668 2.34692C22.6641 2.34504 22.6613 2.34364 22.6586 2.34184L20.501 0.869729L20.4979 0.867698C20.3509 0.766528 20.1766 0.71253 19.9982 0.712892C19.8197 0.713255 19.6456 0.767962 19.499 0.869729L15.2901 3.74129L13.1853 5.17707C13.0886 5.24292 13.0155 5.33805 12.9769 5.44848C12.9382 5.55891 12.936 5.67882 12.9706 5.7906C13.0051 5.90238 13.0746 6.00013 13.1688 6.0695C13.263 6.13886 13.377 6.17618 13.494 6.17598ZM20.9633 10.6583H19.0367V8.33075C19.039 8.07676 19.1415 7.83395 19.3219 7.65516C19.5023 7.47637 19.746 7.37606 20 7.37606C20.254 7.37606 20.4977 7.47637 20.6781 7.65516C20.8585 7.83395 20.961 8.07676 20.9633 8.33075V10.6583ZM20 1.85231L24.0482 4.61434V10.6583H22.0574V8.33075C22.054 7.78729 21.8358 7.26723 21.4503 6.88413C21.0649 6.50103 20.5435 6.286 20 6.286C19.4565 6.286 18.9351 6.50103 18.5497 6.88413C18.1642 7.26723 17.946 7.78729 17.9426 8.33075V10.6583H15.9518V4.61418L18.0094 3.21059C18.0112 3.20942 18.0128 3.20793 18.0146 3.20668L20 1.85231ZM34.2841 19.3772C33.1533 19.3769 32.0478 19.712 31.1075 20.3401C30.1672 20.9682 29.4342 21.8611 29.0013 22.9057C28.5685 23.9504 28.4551 25.1 28.6757 26.2091C28.8962 27.3182 29.4407 28.337 30.2402 29.1366C31.0398 29.9362 32.0586 30.4808 33.1676 30.7014C34.2767 30.922 35.4263 30.8087 36.471 30.3759C37.5157 29.9431 38.4086 29.2102 39.0368 28.2699C39.6649 27.3297 40.0001 26.2242 40 25.0934C39.998 23.578 39.3952 22.1252 38.3237 21.0537C37.2522 19.9821 35.7995 19.3792 34.2841 19.3772ZM34.2841 29.7171C33.3698 29.7172 32.4759 29.4463 31.7156 28.9384C30.9552 28.4306 30.3625 27.7087 30.0125 26.864C29.6624 26.0193 29.5707 25.0898 29.7489 24.193C29.9272 23.2962 30.3673 22.4724 31.0138 21.8257C31.6602 21.1791 32.4839 20.7386 33.3806 20.5601C34.2773 20.3816 35.2069 20.473 36.0517 20.8228C36.8965 21.1725 37.6186 21.7649 38.1267 22.5251C38.6348 23.2853 38.9061 24.1791 38.9062 25.0934C38.9047 26.319 38.4174 27.4939 37.5509 28.3607C36.6844 29.2274 35.5097 29.7152 34.2841 29.7171ZM37.1933 22.6755C36.816 22.2995 36.305 22.0883 35.7723 22.0883C35.2396 22.0883 34.7286 22.2995 34.3512 22.6755L34.2832 22.7436L34.2146 22.6756C33.8372 22.3013 33.3269 22.0918 32.7954 22.0929C32.2639 22.094 31.7544 22.3056 31.3786 22.6815C31.0027 23.0573 30.7911 23.5667 30.7899 24.0983C30.7888 24.6298 30.9983 25.1401 31.3726 25.5175L33.7222 27.8668C33.7957 27.9403 33.8829 27.9984 33.9789 28.038C34.0749 28.0776 34.1778 28.0978 34.2817 28.0975C34.4928 28.0975 34.6954 28.0146 34.8461 27.8668L37.1925 25.5181C37.3793 25.3315 37.5275 25.11 37.6287 24.8661C37.7298 24.6223 37.7819 24.3609 37.782 24.0969C37.7821 23.8329 37.7301 23.5715 37.6291 23.3275C37.5281 23.0836 37.38 22.862 37.1933 22.6754V22.6755ZM36.4199 24.7441L34.2844 26.8816L32.1466 24.7439C31.9759 24.5719 31.8804 24.3391 31.8811 24.0968C31.8817 23.8544 31.9784 23.6221 32.15 23.451C32.3216 23.2798 32.5541 23.1836 32.7964 23.1835C33.0388 23.1835 33.2713 23.2795 33.443 23.4506L33.7222 23.7275C33.795 23.8014 33.8817 23.86 33.9773 23.9002C34.0728 23.9403 34.1754 23.9611 34.2791 23.9614H34.2838C34.3883 23.9616 34.4919 23.9411 34.5884 23.9011C34.685 23.8611 34.7726 23.8022 34.8463 23.7281L35.1253 23.449C35.21 23.3628 35.3111 23.2943 35.4225 23.2474C35.5339 23.2004 35.6534 23.176 35.7743 23.1755C35.8952 23.175 36.015 23.1985 36.1268 23.2445C36.2386 23.2906 36.3401 23.3583 36.4256 23.4438C36.511 23.5293 36.5787 23.6309 36.6247 23.7427C36.6707 23.8545 36.6942 23.9743 36.6936 24.0951C36.6931 24.216 36.6686 24.3356 36.6217 24.447C36.5747 24.5584 36.5061 24.6594 36.4199 24.7441ZM5.71629 19.3769C4.58557 19.377 3.48028 19.7125 2.54019 20.3408C1.6001 20.969 0.867429 21.862 0.434832 22.9067C0.00223526 23.9514 -0.11086 25.1009 0.109848 26.2099C0.330556 27.3188 0.875154 28.3375 1.67477 29.1369C2.4744 29.9364 3.49312 30.4808 4.60214 30.7012C5.71115 30.9217 6.86064 30.8084 7.90525 30.3756C8.94985 29.9428 9.84266 29.2099 10.4708 28.2697C11.0989 27.3295 11.4341 26.2241 11.4339 25.0934C11.4323 23.5775 10.8293 22.1243 9.75725 21.0526C8.68521 19.9809 7.23175 19.3783 5.7159 19.3772L5.71629 19.3769ZM5.71629 29.7168C4.802 29.7167 3.90827 29.4455 3.14812 28.9375C2.38797 28.4294 1.79553 27.7074 1.44571 26.8627C1.09589 26.018 1.0044 25.0885 1.18281 24.1918C1.36122 23.295 1.80152 22.4714 2.44803 21.8249C3.09455 21.1784 3.91824 20.7381 4.81496 20.5597C5.71168 20.3814 6.64116 20.4729 7.48586 20.8227C8.33057 21.1726 9.05258 21.765 9.56059 22.5252C10.0686 23.2854 10.3398 24.1791 10.3399 25.0934C10.3387 26.3194 9.85114 27.4948 8.98423 28.3616C8.11731 29.2285 6.94186 29.716 5.7159 29.7171L5.71629 29.7168ZM7.91535 23.8128H6.9959V22.8939C6.99326 22.5562 6.85723 22.2332 6.61747 21.9953C6.3777 21.7574 6.05362 21.6239 5.71586 21.6239C5.37809 21.6239 5.05402 21.7574 4.81425 21.9953C4.57448 22.2332 4.43846 22.5562 4.43582 22.8939V23.813H3.51676C3.17728 23.813 2.85171 23.9479 2.61166 24.1879C2.37161 24.428 2.23676 24.7535 2.23676 25.093C2.23676 25.4325 2.37161 25.7581 2.61166 25.9981C2.85171 26.2382 3.17728 26.373 3.51676 26.373H4.43582V27.2921C4.4345 27.461 4.46663 27.6285 4.53037 27.785C4.59411 27.9415 4.68818 28.0838 4.80718 28.2037C4.92617 28.3236 5.06773 28.4188 5.22368 28.4838C5.37964 28.5487 5.54691 28.5822 5.71586 28.5822C5.8848 28.5822 6.05207 28.5487 6.20803 28.4838C6.36399 28.4188 6.50554 28.3236 6.62454 28.2037C6.74353 28.0838 6.83761 27.9415 6.90134 27.785C6.96508 27.6285 6.99722 27.461 6.9959 27.2921V26.373H7.91496C8.25444 26.373 8.58001 26.2382 8.82006 25.9981C9.0601 25.7581 9.19496 25.4325 9.19496 25.093C9.19496 24.7535 9.0601 24.428 8.82006 24.1879C8.58001 23.9479 8.25444 23.813 7.91496 23.813L7.91535 23.8128ZM7.91535 25.2787H6.44886C6.30382 25.2787 6.16472 25.3363 6.06217 25.4389C5.95961 25.5414 5.90199 25.6805 5.90199 25.8256V27.2917C5.9025 27.3164 5.89806 27.341 5.88894 27.364C5.87982 27.387 5.86621 27.408 5.84889 27.4257C5.83157 27.4434 5.81089 27.4574 5.78808 27.467C5.76526 27.4766 5.74076 27.4815 5.71601 27.4815C5.69126 27.4815 5.66676 27.4766 5.64395 27.467C5.62113 27.4574 5.60046 27.4434 5.58314 27.4257C5.56582 27.408 5.5522 27.387 5.54308 27.364C5.53396 27.341 5.52953 27.3164 5.53004 27.2917V25.826C5.53004 25.6809 5.47242 25.5418 5.36986 25.4393C5.2673 25.3367 5.1282 25.2791 4.98316 25.2791H3.51676C3.46744 25.2791 3.42015 25.2595 3.38528 25.2246C3.35041 25.1898 3.33082 25.1425 3.33082 25.0932C3.33082 25.0439 3.35041 24.9966 3.38528 24.9617C3.42015 24.9268 3.46744 24.9072 3.51676 24.9072H4.98285C5.12789 24.9072 5.26699 24.8496 5.36955 24.7471C5.47211 24.6445 5.52972 24.5054 5.52972 24.3604V22.8939C5.53072 22.8453 5.55075 22.799 5.58552 22.7649C5.62029 22.7308 5.66703 22.7117 5.7157 22.7117C5.76437 22.7117 5.81111 22.7308 5.84588 22.7649C5.88065 22.799 5.90068 22.8453 5.90168 22.8939V24.36C5.90168 24.5051 5.95929 24.6442 6.06185 24.7467C6.16441 24.8493 6.30351 24.9069 6.44855 24.9069H7.91465C7.96396 24.9069 8.01125 24.9265 8.04612 24.9614C8.08099 24.9962 8.10058 25.0435 8.10058 25.0929C8.10058 25.1422 8.08099 25.1895 8.04612 25.2243C8.01125 25.2592 7.96396 25.2788 7.91465 25.2788L7.91535 25.2787ZM6.62832 17.7605C7.75895 17.7603 8.86413 17.4248 9.80413 16.7966C10.7441 16.1683 11.4767 15.2754 11.9093 14.2308C12.3419 13.1862 12.455 12.0367 12.2343 10.9278C12.0137 9.81895 11.4692 8.80037 10.6697 8.0009C9.87027 7.20143 8.85168 6.65696 7.74278 6.43634C6.63388 6.21572 5.48447 6.32886 4.43986 6.76145C3.39526 7.19403 2.50237 7.92664 1.8741 8.86664C1.24583 9.80665 0.910394 10.9118 0.910193 12.0425C0.91162 13.5586 1.51452 15.0121 2.58657 16.0842C3.65862 17.1562 5.11222 17.7591 6.62832 17.7605ZM6.62832 7.42059C7.54265 7.4208 8.43639 7.69215 9.19652 8.20031C9.95664 8.70847 10.549 9.43062 10.8987 10.2754C11.2484 11.1203 11.3397 12.0498 11.1611 12.9465C10.9826 13.8433 10.5421 14.6669 9.89538 15.3133C9.2487 15.9596 8.42486 16.3997 7.52805 16.5779C6.63124 16.7561 5.70173 16.6643 4.85708 16.3142C4.01243 15.9641 3.29056 15.3714 2.78276 14.611C2.27496 13.8507 2.00404 12.9568 2.00426 12.0425C2.00562 10.8167 2.49331 9.64158 3.36025 8.77504C4.2272 7.9085 5.40256 7.42137 6.62832 7.42059ZM4.84113 10.8043C4.84175 10.4264 4.96211 10.0584 5.18492 9.75311C5.40773 9.44784 5.72153 9.22102 6.08129 9.1052V8.63184C6.08129 8.4868 6.1389 8.3477 6.24146 8.24514C6.34402 8.14258 6.48312 8.08496 6.62816 8.08496C6.7732 8.08496 6.9123 8.14258 7.01486 8.24514C7.11742 8.3477 7.17504 8.4868 7.17504 8.63184V9.10598C7.43521 9.19034 7.67267 9.33299 7.86933 9.52307C8.06599 9.71315 8.21664 9.94563 8.3098 10.2028C8.35907 10.3392 8.35213 10.4896 8.29049 10.621C8.22885 10.7523 8.11757 10.8537 7.98113 10.903C7.84469 10.9523 7.69426 10.9453 7.56294 10.8837C7.43162 10.8221 7.33017 10.7108 7.2809 10.5743C7.23885 10.4545 7.16464 10.3485 7.06638 10.268C6.96812 10.1874 6.8496 10.1355 6.72379 10.1179C6.59799 10.1002 6.46976 10.1175 6.35313 10.1679C6.2365 10.2182 6.13598 10.2997 6.06256 10.4033C5.98914 10.507 5.94566 10.6289 5.93688 10.7556C5.9281 10.8824 5.95436 11.0091 6.01278 11.1219C6.07119 11.2347 6.15952 11.3292 6.26809 11.3952C6.37666 11.4611 6.50128 11.496 6.62832 11.4958C7.05381 11.4962 7.46521 11.6484 7.78844 11.9251C8.11167 12.2018 8.32551 12.5848 8.39145 13.0052C8.45739 13.4255 8.37111 13.8556 8.14813 14.218C7.92516 14.5804 7.58014 14.8513 7.17519 14.9819V15.4555C7.17519 15.6006 7.11758 15.7396 7.01502 15.8422C6.91246 15.9448 6.77336 16.0024 6.62832 16.0024C6.48328 16.0024 6.34418 15.9448 6.24162 15.8422C6.13906 15.7396 6.08144 15.6006 6.08144 15.4555V14.9818C5.82061 14.8978 5.58257 14.755 5.38568 14.5643C5.1888 14.3737 5.03833 14.1404 4.9459 13.8825C4.8972 13.7458 4.9048 13.5954 4.96701 13.4643C5.02922 13.3332 5.14095 13.2322 5.27761 13.1836C5.41428 13.1349 5.5647 13.1425 5.69577 13.2047C5.82684 13.2669 5.92783 13.3786 5.97652 13.5153C6.01934 13.6345 6.09405 13.7396 6.19252 13.8192C6.29098 13.8989 6.40942 13.95 6.53492 13.9669C6.66042 13.9839 6.78817 13.9661 6.90424 13.9154C7.02031 13.8648 7.12026 13.7833 7.19318 13.6797C7.2661 13.5762 7.3092 13.4546 7.31778 13.3283C7.32636 13.2019 7.3001 13.0756 7.24185 12.9632C7.1836 12.8507 7.0956 12.7564 6.98744 12.6905C6.87928 12.6247 6.75512 12.5897 6.62847 12.5896C6.15487 12.5894 5.70069 12.4013 5.3656 12.0666C5.03052 11.7319 4.8419 11.2779 4.84113 10.8043ZM33.3717 17.7604C34.5024 17.7606 35.6078 17.4255 36.5481 16.7975C37.4884 16.1694 38.2213 15.2767 38.6542 14.2321C39.0871 13.1876 39.2005 12.0381 38.9802 10.929C38.7598 9.81999 38.2155 8.80121 37.4161 8.00152C36.6167 7.20183 35.5981 6.65714 34.4891 6.43635C33.3802 6.21555 32.2306 6.32856 31.1859 6.76108C30.1412 7.1936 29.2482 7.92621 28.6198 8.86626C27.9914 9.80631 27.6559 10.9116 27.6557 12.0423C27.6571 13.5581 28.2597 15.0114 29.3313 16.0834C30.4029 17.1554 31.8559 17.7585 33.3717 17.7605V17.7604ZM33.3717 7.42043C34.2861 7.42019 35.1801 7.69113 35.9405 8.199C36.7009 8.70687 37.2937 9.42885 37.6437 10.2736C37.9938 11.1184 38.0855 12.048 37.9072 12.9449C37.7288 13.8418 37.2885 14.6656 36.642 15.3122C35.9954 15.9588 35.1716 16.3992 34.2747 16.5776C33.3778 16.7559 32.4482 16.6643 31.6034 16.3143C30.7586 15.9643 30.0366 15.3716 29.5287 14.6112C29.0208 13.8508 28.7498 12.9569 28.75 12.0425C28.7513 10.8171 29.2387 9.64232 30.1051 8.77584C30.9715 7.90937 32.1463 7.42197 33.3717 7.42059V7.42043ZM30.5768 12.2193V14.0842C30.5771 14.3302 30.675 14.566 30.8489 14.74C31.0229 14.9139 31.2587 15.0118 31.5047 15.0121H35.2386C35.4846 15.0118 35.7204 14.914 35.8944 14.74C36.0684 14.5661 36.1662 14.3302 36.1665 14.0842V12.2193C36.3654 12.1412 36.5363 12.005 36.6567 11.8285C36.7772 11.6519 36.8417 11.4432 36.842 11.2295V10.4389C36.8416 10.0772 36.6977 9.73046 36.4419 9.47473C36.1862 9.21899 35.8394 9.07514 35.4778 9.07473H31.2656C30.9039 9.07514 30.5572 9.219 30.3014 9.47473C30.0457 9.73047 29.9019 10.0772 29.9014 10.4389V11.2295C29.9017 11.4432 29.9662 11.652 30.0866 11.8285C30.2071 12.0051 30.3779 12.1413 30.5768 12.2195V12.2193ZM30.9955 10.4389C30.9964 10.3675 31.0251 10.2993 31.0756 10.2489C31.126 10.1984 31.1942 10.1697 31.2656 10.1688H35.4778C35.5491 10.1696 35.6174 10.1984 35.6678 10.2488C35.7183 10.2993 35.7471 10.3675 35.7479 10.4389V11.1985H35.6195C35.4744 11.1985 35.3354 11.2561 35.2328 11.3587C35.1302 11.4612 35.0726 11.6003 35.0726 11.7454V13.9179H31.6711V11.7457C31.6711 11.6006 31.6134 11.4615 31.5109 11.359C31.4083 11.2564 31.2692 11.1988 31.1242 11.1988H30.9958L30.9955 10.4389ZM20 15.4551C19.8549 15.4551 19.7158 15.3975 19.6133 15.2949C19.5107 15.1924 19.4531 15.0533 19.4531 14.9082V13.0411C19.4531 12.896 19.5107 12.7569 19.6133 12.6544C19.7158 12.5518 19.8549 12.4942 20 12.4942C20.145 12.4942 20.2841 12.5518 20.3867 12.6544C20.4892 12.7569 20.5468 12.896 20.5468 13.0411V14.9082C20.5468 15.0533 20.4892 15.1924 20.3867 15.2949C20.2841 15.3975 20.145 15.4551 20 15.4551ZM12.9166 15.0965L15.2375 16.4364C15.2997 16.4723 15.3542 16.5201 15.3979 16.5771C15.4417 16.6341 15.4738 16.6991 15.4924 16.7685C15.511 16.8379 15.5157 16.9102 15.5063 16.9814C15.497 17.0527 15.4737 17.1213 15.4378 17.1836C15.4019 17.2458 15.3541 17.3003 15.2971 17.344C15.2401 17.3878 15.175 17.4199 15.1057 17.4385C15.0363 17.4571 14.9639 17.4618 14.8927 17.4524C14.8215 17.4431 14.7528 17.4198 14.6906 17.3839L12.3697 16.0439C12.3075 16.008 12.253 15.9602 12.2093 15.9032C12.1655 15.8463 12.1334 15.7812 12.1148 15.7119C12.0963 15.6425 12.0915 15.5701 12.1009 15.4989C12.1102 15.4277 12.1335 15.359 12.1695 15.2968C12.2054 15.2346 12.2532 15.1801 12.3102 15.1363C12.3671 15.0926 12.4322 15.0605 12.5015 15.0419C12.5709 15.0233 12.6433 15.0186 12.7145 15.0279C12.7857 15.0373 12.8544 15.0606 12.9166 15.0965ZM24.7604 16.4363L27.0835 15.0964C27.1457 15.0605 27.2144 15.0372 27.2856 15.0278C27.3569 15.0184 27.4292 15.0232 27.4986 15.0418C27.568 15.0604 27.6331 15.0925 27.6901 15.1363C27.7471 15.18 27.7949 15.2346 27.8308 15.2968C27.8667 15.359 27.89 15.4277 27.8993 15.499C27.9087 15.5702 27.9039 15.6426 27.8853 15.712C27.8667 15.7814 27.8346 15.8464 27.7909 15.9034C27.7471 15.9604 27.6926 16.0082 27.6304 16.0441L25.307 17.384C25.1813 17.4565 25.032 17.4762 24.8918 17.4386C24.7517 17.401 24.6322 17.3093 24.5597 17.1836C24.4872 17.0579 24.4675 16.9086 24.5051 16.7684C24.5427 16.6283 24.6344 16.5088 24.7601 16.4363H24.7604ZM14.7369 23.1597C14.7555 23.229 14.7603 23.3014 14.751 23.3726C14.7416 23.4439 14.7184 23.5126 14.6825 23.5748C14.6466 23.637 14.5988 23.6915 14.5418 23.7353C14.4848 23.779 14.4197 23.8111 14.3503 23.8297L12.5432 24.3147C12.4739 24.3333 12.4015 24.3381 12.3303 24.3288C12.259 24.3194 12.1904 24.2961 12.1281 24.2602C12.0659 24.2243 12.0114 24.1765 11.9676 24.1196C11.9239 24.0626 11.8918 23.9975 11.8732 23.9282C11.8545 23.8588 11.8498 23.7864 11.8591 23.7152C11.8685 23.644 11.8918 23.5753 11.9277 23.5131C11.9636 23.4508 12.0114 23.3963 12.0683 23.3526C12.1253 23.3088 12.1903 23.2767 12.2597 23.2581L14.0668 22.7731C14.1362 22.7544 14.2086 22.7496 14.2799 22.7589C14.3511 22.7683 14.4199 22.7915 14.4821 22.8274C14.5444 22.8633 14.5989 22.9112 14.6427 22.9682C14.6865 23.0252 14.7185 23.0902 14.7371 23.1597H14.7369ZM27.7396 23.2581C27.8089 23.2767 27.874 23.3088 27.931 23.3525C27.988 23.3962 28.0358 23.4507 28.0717 23.513C28.1076 23.5752 28.1309 23.6438 28.1403 23.7151C28.1496 23.7863 28.1449 23.8586 28.1263 23.928C28.1077 23.9974 28.0756 24.0624 28.0319 24.1194C27.9882 24.1764 27.9336 24.2242 27.8714 24.2601C27.8092 24.296 27.7405 24.3193 27.6693 24.3287C27.5981 24.3381 27.5257 24.3333 27.4564 24.3147L25.6471 23.8297C25.5069 23.7922 25.3875 23.7005 25.315 23.5749C25.2424 23.4492 25.2228 23.2999 25.2603 23.1598C25.2979 23.0197 25.3896 22.9002 25.5152 22.8277C25.6409 22.7552 25.7902 22.7355 25.9303 22.7731L27.7396 23.2581Z" fill="white"/>
</g>
<defs>
<clipPath id="clip0_0_2511">
<rect width="40" height="40" fill="white"/>
</clipPath>
</defs>
</svg>
