<svg width="65" height="65" viewBox="0 0 65 65" fill="none" xmlns="http://www.w3.org/2000/svg">
<rect width="65" height="65" rx="10" fill="#0A165E"/>
<path d="M51.813 43.8168C50.7319 42.9115 49.3433 42.2937 47.7243 41.9825C49.229 41.0983 50.2415 39.4645 50.2415 37.5968C50.2415 34.7931 47.9607 32.5123 45.157 32.5123C45.0366 32.5123 44.9171 32.5185 44.7984 32.5264C46.166 30.3335 46.8841 27.8269 46.8841 25.2033C46.885 17.5472 40.6562 11.3184 33 11.3184C25.3438 11.3184 19.1159 17.5472 19.1159 25.2033C19.1159 27.8277 19.834 30.3335 21.2016 32.5264C21.0829 32.5185 20.9634 32.5123 20.843 32.5123C18.0393 32.5123 15.7585 34.7931 15.7585 37.5968C15.7585 39.4645 16.771 41.0992 18.2757 41.9825C16.6567 42.2937 15.2681 42.9115 14.187 43.8168C12.6595 45.0956 11.8184 46.9009 11.8184 48.9004V53.1543C11.8184 53.4452 12.0548 53.6816 12.3457 53.6816H53.6543C53.9452 53.6816 54.1816 53.4452 54.1816 53.1543V48.9004C54.1816 46.9009 53.3405 45.0956 51.813 43.8168ZM40.2211 42.7331C39.0126 41.7637 37.4763 41.1036 35.6868 40.7811C36.771 40.1833 37.6273 39.244 38.1223 38.1092C38.8043 37.8385 39.4635 37.5142 40.0945 37.1389C40.0806 37.2908 40.0732 37.4433 40.0726 37.5959C40.0726 39.4618 41.0833 41.0957 42.5862 41.9799C41.7319 42.1442 40.9409 42.3956 40.2211 42.7331ZM25.7798 42.7331C25.0591 42.3956 24.2689 42.1442 23.4138 41.9799C24.9167 41.0957 25.9274 39.4618 25.9274 37.5959C25.9274 37.4421 25.9195 37.2892 25.9055 37.1389C26.5365 37.5142 27.1957 37.8385 27.8777 38.1092C28.3726 39.2456 29.2348 40.186 30.3132 40.7811C28.5246 41.1036 26.9874 41.7637 25.7798 42.7331ZM20.182 24.676C20.2989 21.8037 21.3633 19.1723 23.0719 17.0866C24.0738 17.6324 25.2226 18.0868 26.4724 18.4401C25.9107 20.3333 25.5926 22.4594 25.5486 24.6769H20.182V24.676ZM27.4937 18.6994C29.0546 19.0571 30.7421 19.2628 32.4727 19.2979V24.676H26.6033C26.6464 22.542 26.954 20.5038 27.4937 18.6994ZM40.4514 24.676C40.4074 22.4585 40.0893 20.3324 39.5276 18.4393C40.7774 18.0868 41.9262 17.6315 42.9281 17.0857C44.6367 19.1714 45.7011 21.8037 45.818 24.6751H40.4514V24.676ZM40.4663 35.6359C39.8497 36.0777 39.1953 36.4642 38.5107 36.7908C38.5591 36.4964 38.5846 36.1949 38.5846 35.8873C38.5846 35.483 38.5406 35.0893 38.458 34.7096C38.7322 34.1629 38.9792 33.5802 39.1998 32.9676C40.0945 33.2181 40.9313 33.523 41.6941 33.879C41.1652 34.3712 40.7467 34.97 40.4663 35.6359ZM28.4701 35.8864C28.4701 33.3886 30.5021 31.3557 33.0009 31.3557C35.4987 31.3557 37.5308 33.3877 37.5308 35.8864C37.5308 38.3843 35.4987 40.4163 33.0009 40.4163C30.5021 40.4172 28.4701 38.3852 28.4701 35.8864ZM37.9447 33.2945C37.8114 33.041 37.6589 32.798 37.4886 32.5677C37.7197 32.6116 37.9482 32.6573 38.1732 32.7074C38.1011 32.9047 38.0249 33.1004 37.9447 33.2945ZM36.1755 31.2959C35.3908 30.7506 34.4787 30.417 33.5273 30.3273V25.7298H39.3967C39.3536 27.862 39.046 29.8984 38.5072 31.7028C37.7584 31.5314 36.9788 31.3952 36.1755 31.2959ZM39.3967 24.676H33.5273V19.2979C35.2579 19.2628 36.9445 19.0571 38.5063 18.6994C39.046 20.5038 39.3536 22.542 39.3967 24.676ZM33.5273 18.2433V12.4179C34.9784 12.6622 36.3495 13.912 37.4323 16.0003C37.7065 16.5285 37.9526 17.0972 38.1715 17.6948C36.7169 18.0209 35.1445 18.209 33.5273 18.2433ZM32.4727 12.4179V18.2424C30.8555 18.209 29.2831 18.0209 27.8276 17.6948C28.0474 17.0963 28.2935 16.5285 28.5668 16.0003C29.6505 13.9129 31.0216 12.6631 32.4727 12.4179ZM32.4727 25.7307V30.3282C31.5213 30.4178 30.6092 30.7514 29.8245 31.2968C29.0212 31.3961 28.2416 31.5323 27.4928 31.7037C26.9531 29.9002 26.6464 27.8629 26.6033 25.7307H32.4727ZM28.5114 32.5677C28.3408 32.7978 28.1883 33.0408 28.0553 33.2945C27.9751 33.1004 27.8989 32.9047 27.8268 32.7074C28.0518 32.6573 28.2812 32.6116 28.5114 32.5677ZM27.5411 34.7087C27.4594 35.0884 27.4146 35.483 27.4146 35.8873C27.4146 36.1949 27.4409 36.4964 27.4884 36.7908C26.8046 36.4647 26.1507 36.0789 25.5328 35.6359C25.2516 34.9653 24.8297 34.3677 24.305 33.879C25.067 33.5239 25.9046 33.2189 26.7993 32.9676C27.0199 33.5793 27.2678 34.162 27.5411 34.7087ZM49.1868 37.5968C49.1868 39.8187 47.3789 41.6266 45.157 41.6266C42.9352 41.6266 41.1272 39.8187 41.1272 37.5968C41.1272 35.3749 42.9352 33.567 45.157 33.567C47.3789 33.567 49.1868 35.3749 49.1868 37.5968ZM42.653 33.1741C41.717 32.6916 40.6658 32.2855 39.5285 31.9639C40.0893 30.0716 40.4083 27.9464 40.4514 25.7298H45.8197C45.716 28.3278 44.8459 30.7835 43.2876 32.87C43.0679 32.957 42.8561 33.059 42.653 33.1741ZM42.2057 16.2763C41.3118 16.7403 40.2984 17.1306 39.2007 17.4382C38.9563 16.7588 38.6795 16.1137 38.3692 15.516C37.7997 14.4183 37.1476 13.5209 36.4365 12.8424C38.6593 13.4594 40.6412 14.6635 42.2057 16.2763ZM29.5644 12.8406C28.8533 13.52 28.2012 14.4174 27.6316 15.5143C27.3214 16.1119 27.0445 16.757 26.8002 17.4364C25.7024 17.1288 24.6882 16.7386 23.7952 16.2745C25.3588 14.6635 27.3407 13.4603 29.5644 12.8406ZM20.1812 25.7307H25.5495C25.5935 27.9473 25.9116 30.0725 26.4724 31.9647C25.3351 32.2864 24.2839 32.6925 23.3479 33.175C23.1438 33.0592 22.9321 32.9576 22.7142 32.8709C21.1541 30.7835 20.284 28.3278 20.1812 25.7307ZM16.8132 37.5968C16.8132 35.3749 18.6211 33.567 20.843 33.567C23.0648 33.567 24.8728 35.3749 24.8728 37.5968C24.8728 39.8187 23.0648 41.6266 20.843 41.6266C18.6211 41.6266 16.8132 39.8187 16.8132 37.5968ZM12.873 48.9004C12.873 45.1958 16.0011 42.8025 20.843 42.8025C22.3916 42.8025 23.7645 43.0434 24.936 43.5162C23.7082 44.8521 23.0411 46.5651 23.0411 48.4328V52.627H16.9898V49.6132C16.9898 49.3223 16.7534 49.0858 16.4625 49.0858C16.1716 49.0858 15.9352 49.3223 15.9352 49.6132V52.627H12.873V48.9004ZM41.9033 52.627H38.3886V49.2238C38.3886 48.9329 38.1521 48.6965 37.8612 48.6965C37.5703 48.6965 37.3339 48.9329 37.3339 49.2238V52.627H28.6644V49.2238C28.6644 48.9329 28.4279 48.6965 28.137 48.6965C27.8461 48.6965 27.6097 48.9329 27.6097 49.2238V52.627H24.0967V48.4328C24.0967 44.2861 27.5912 41.6072 33 41.6072C38.4088 41.6072 41.9033 44.2861 41.9033 48.4328V52.627ZM53.127 52.627H50.0648V49.6132C50.0648 49.3223 49.8284 49.0858 49.5375 49.0858C49.2466 49.0858 49.0102 49.3223 49.0102 49.6132V52.627H42.958V48.4328C42.958 46.566 42.2918 44.853 41.0631 43.5162C42.2347 43.0425 43.6075 42.8025 45.1562 42.8025C49.9972 42.8025 53.1261 45.1958 53.1261 48.9004V52.627H53.127Z" fill="white"/>
</svg>
