<svg width="65" height="65" viewBox="0 0 65 65" fill="none" xmlns="http://www.w3.org/2000/svg">
<rect width="65" height="65" rx="10" fill="#F5F6F7"/>
<path d="M49.6141 11.4323H15.3859C14.7036 11.433 14.0495 11.7044 13.5671 12.1868C13.0846 12.6693 12.8132 13.3234 12.8125 14.0057V40.0881C12.8125 40.7713 13.0834 41.4266 13.5658 41.9103C14.0482 42.394 14.7028 42.6667 15.3859 42.6686H29.8956L28.7467 48.9334H26.5516C26.0867 48.934 25.6409 49.1189 25.3122 49.4477C24.9835 49.7764 24.7985 50.2221 24.798 50.687V52.8646C24.798 53.0511 24.872 53.2299 25.0039 53.3618C25.1358 53.4936 25.3146 53.5677 25.5011 53.5677H39.5024C39.6889 53.5677 39.8677 53.4936 39.9996 53.3618C40.1315 53.2299 40.2055 53.0511 40.2055 52.8646V50.687C40.205 50.2221 40.0201 49.7764 39.6913 49.4477C39.3626 49.1189 38.9169 48.934 38.452 48.9334H37.0555L35.9059 42.6686H49.2231C50.0092 42.6673 50.7626 42.3544 51.3183 41.7984C51.874 41.2425 52.1866 40.4888 52.1875 39.7028V14.0057C52.1868 13.3234 51.9154 12.6693 51.4329 12.1868C50.9505 11.7044 50.2964 11.433 49.6141 11.4323ZM15.3859 12.8385H49.6141C49.9235 12.8389 50.2202 12.962 50.439 13.1808C50.6578 13.3996 50.7809 13.6962 50.7812 14.0057V34.5046H14.2188V14.0057C14.2191 13.6962 14.3422 13.3996 14.561 13.1808C14.7798 12.962 15.0765 12.8389 15.3859 12.8385ZM38.7986 50.687V52.1615H26.2035V50.687C26.2037 50.595 26.2404 50.5067 26.3055 50.4416C26.3706 50.3765 26.4588 50.3399 26.5509 50.3397H38.4513C38.5433 50.3399 38.6316 50.3765 38.6967 50.4416C38.7618 50.5067 38.7984 50.595 38.7986 50.687ZM35.6247 48.9334H30.1762L31.3251 42.6686H34.4751L35.6247 48.9334ZM49.2217 41.2623H15.3859C15.0756 41.2608 14.7785 41.1364 14.5598 40.9163C14.341 40.6963 14.2184 40.3984 14.2188 40.0881V35.9115H50.7812V39.7028C50.7809 40.1163 50.6165 40.5128 50.3241 40.8051C50.0317 41.0975 49.6352 41.262 49.2217 41.2623Z" fill="#2B4DFF"/>
<path d="M34.6621 37.5132H30.34C30.1535 37.5132 29.9747 37.5873 29.8428 37.7191C29.7109 37.851 29.6369 38.0299 29.6369 38.2163C29.6369 38.4028 29.7109 38.5817 29.8428 38.7135C29.9747 38.8454 30.1535 38.9195 30.34 38.9195H34.6621C34.8486 38.9195 35.0274 38.8454 35.1593 38.7135C35.2911 38.5817 35.3652 38.4028 35.3652 38.2163C35.3652 38.0299 35.2911 37.851 35.1593 37.7191C35.0274 37.5873 34.8486 37.5132 34.6621 37.5132ZM36.2195 17.5845H43.359C43.5455 17.5845 43.7244 17.5105 43.8562 17.3786C43.9881 17.2467 44.0622 17.0679 44.0622 16.8814C44.0622 16.6949 43.9881 16.5161 43.8562 16.3842C43.7244 16.2524 43.5455 16.1783 43.359 16.1783H36.2195C36.033 16.1783 35.8542 16.2524 35.7223 16.3842C35.5905 16.5161 35.5164 16.6949 35.5164 16.8814C35.5164 17.0679 35.5905 17.2467 35.7223 17.3786C35.8542 17.5105 36.033 17.5845 36.2195 17.5845ZM35.2169 22.0304H44.3617C44.5482 22.0304 44.727 21.9563 44.8589 21.8245C44.9907 21.6926 45.0648 21.5138 45.0648 21.3273C45.0648 21.1408 44.9907 20.9619 44.8589 20.8301C44.727 20.6982 44.5482 20.6241 44.3617 20.6241H35.2169C35.0304 20.6241 34.8515 20.6982 34.7197 20.8301C34.5878 20.9619 34.5137 21.1408 34.5137 21.3273C34.5137 21.5138 34.5878 21.6926 34.7197 21.8245C34.8515 21.9563 35.0304 22.0304 35.2169 22.0304ZM28.6848 26.1718H19.5414C19.3549 26.1718 19.1761 26.2459 19.0442 26.3777C18.9123 26.5096 18.8383 26.6884 18.8383 26.8749C18.8383 27.0614 18.9123 27.2402 19.0442 27.3721C19.1761 27.504 19.3549 27.5781 19.5414 27.5781H28.6848C28.8713 27.5781 29.0502 27.504 29.182 27.3721C29.3139 27.2402 29.388 27.0614 29.388 26.8749C29.388 26.6884 29.3139 26.5096 29.182 26.3777C29.0502 26.2459 28.8713 26.1718 28.6848 26.1718ZM27.633 30.2485H20.492C20.3055 30.2485 20.1267 30.3226 19.9948 30.4545C19.863 30.5863 19.7889 30.7652 19.7889 30.9516C19.7889 31.1381 19.863 31.317 19.9948 31.4488C20.1267 31.5807 20.3055 31.6548 20.492 31.6548H27.633C27.8194 31.6548 27.9983 31.5807 28.1301 31.4488C28.262 31.317 28.3361 31.1381 28.3361 30.9516C28.3361 30.7652 28.262 30.5863 28.1301 30.4545C27.9983 30.3226 27.8194 30.2485 27.633 30.2485ZM40.9164 24.6263C40.7299 24.6263 40.5511 24.7004 40.4192 24.8323C40.2873 24.9641 40.2133 25.143 40.2133 25.3295V29.8407C40.2011 30.2444 40.0322 30.6274 39.7424 30.9087C39.4526 31.1899 39.0646 31.3472 38.6608 31.3472C38.2569 31.3472 37.869 31.1899 37.5791 30.9087C37.2893 30.6274 37.1204 30.2444 37.1083 29.8407V25.3295C37.1083 25.143 37.0342 24.9641 36.9023 24.8323C36.7705 24.7004 36.5916 24.6263 36.4051 24.6263C36.2187 24.6263 36.0398 24.7004 35.908 24.8323C35.7761 24.9641 35.702 25.143 35.702 25.3295V29.8407C35.714 30.6176 36.031 31.3586 36.5847 31.9038C37.1383 32.449 37.8841 32.7545 38.6611 32.7545C39.4381 32.7545 40.1839 32.449 40.7376 31.9038C41.2912 31.3586 41.6082 30.6176 41.6202 29.8407V25.3295C41.6202 25.143 41.5461 24.9641 41.4143 24.8323C41.2824 24.7004 41.1029 24.6263 40.9164 24.6263ZM43.1734 24.6263C42.9869 24.6263 42.8081 24.7004 42.6762 24.8323C42.5444 24.9641 42.4703 25.143 42.4703 25.3295V32.097C42.4703 32.2835 42.5444 32.4624 42.6762 32.5942C42.8081 32.7261 42.9869 32.8002 43.1734 32.8002C43.3599 32.8002 43.5387 32.7261 43.6706 32.5942C43.8025 32.4624 43.8765 32.2835 43.8765 32.097V25.3295C43.8765 25.143 43.8025 24.9641 43.6706 24.8323C43.5387 24.7004 43.3599 24.6263 43.1734 24.6263ZM21.3913 22.1464C22.0928 22.1457 22.7654 21.8667 23.2614 21.3706C23.7574 20.8746 24.0364 20.202 24.0372 19.5006V15.6144C24.0372 15.4279 23.9631 15.2491 23.8312 15.1172C23.6994 14.9853 23.5205 14.9113 23.334 14.9113C23.1476 14.9113 22.9687 14.9853 22.8369 15.1172C22.705 15.2491 22.6309 15.4279 22.6309 15.6144V19.5006C22.6309 19.8294 22.5003 20.1448 22.2677 20.3773C22.0352 20.6099 21.7198 20.7405 21.391 20.7405C21.0621 20.7405 20.7467 20.6099 20.5142 20.3773C20.2816 20.1448 20.151 19.8294 20.151 19.5006V15.6144C20.151 15.4279 20.0769 15.2491 19.9451 15.1172C19.8132 14.9853 19.6344 14.9113 19.4479 14.9113C19.2614 14.9113 19.0826 14.9853 18.9507 15.1172C18.8188 15.2491 18.7448 15.4279 18.7448 15.6144V19.5006C18.7457 20.2021 19.0248 20.8747 19.521 21.3707C20.0171 21.8667 20.6898 22.1457 21.3913 22.1464ZM26.0059 18.5942L24.5758 20.8161C24.4748 20.9729 24.4402 21.1634 24.4797 21.3457C24.5192 21.528 24.6295 21.6872 24.7864 21.7882C24.9432 21.8891 25.1337 21.9237 25.316 21.8842C25.4983 21.8447 25.6574 21.7344 25.7584 21.5776L26.8419 19.8936L28.0098 21.7077C28.1128 21.8596 28.271 21.9653 28.4508 22.0022C28.6307 22.0391 28.8177 22.0041 28.9722 21.9049C29.1266 21.8057 29.2361 21.65 29.2772 21.4711C29.3184 21.2922 29.288 21.1043 29.1925 20.9476L27.678 18.5942L29.2762 16.1108C29.3757 15.954 29.4091 15.7641 29.3691 15.5828C29.3292 15.4014 29.2191 15.2432 29.0629 15.1427C28.9067 15.0422 28.7171 15.0076 28.5354 15.0465C28.3538 15.0853 28.1949 15.1944 28.0935 15.35L26.8419 17.2956L25.674 15.4808C25.5726 15.3252 25.4137 15.2161 25.2321 15.1772C25.0505 15.1384 24.8609 15.173 24.7047 15.2735C24.5485 15.374 24.4384 15.5322 24.3984 15.7135C24.3584 15.8949 24.3919 16.0847 24.4914 16.2416L26.0059 18.5942Z" fill="#2B4DFF"/>
</svg>
