<svg width="65" height="65" viewBox="0 0 65 65" fill="none" xmlns="http://www.w3.org/2000/svg">
<rect width="65" height="65" rx="10" fill="#0A165E"/>
<g clip-path="url(#clip0_0_2278)">
<path d="M38.5223 25.925H26.4207C26.285 25.925 26.155 25.9789 26.059 26.0748C25.9631 26.1707 25.9092 26.3008 25.9092 26.4364V38.5381C25.9092 38.6737 25.9631 38.8038 26.059 38.8997C26.155 38.9956 26.285 39.0495 26.4207 39.0495H38.5223C38.658 39.0495 38.788 38.9956 38.8839 38.8997C38.9798 38.8038 39.0337 38.6737 39.0338 38.5381V26.4364C39.0337 26.3008 38.9798 26.1707 38.8839 26.0748C38.788 25.9789 38.658 25.925 38.5223 25.925ZM38.0108 38.0267H26.9321V26.948H38.0108V38.0267ZM50.9795 37.9259L49.7012 36.3656C49.6532 36.3071 49.5928 36.26 49.5244 36.2276C49.456 36.1953 49.3813 36.1785 49.3056 36.1785H42.4913V33.0084H45.2983C45.5284 33.9248 46.3527 34.6081 47.339 34.6081C48.5031 34.6081 49.4502 33.661 49.4502 32.4968C49.4502 31.3333 48.5032 30.387 47.339 30.387C46.3528 30.387 45.5287 31.0697 45.2984 31.9854H42.4913V28.8167H49.3056C49.3813 28.8167 49.456 28.7999 49.5244 28.7676C49.5928 28.7352 49.6532 28.6881 49.7012 28.6296L50.9756 27.0735C51.8615 27.5764 52.8742 27.3726 53.5073 26.7395C54.3298 25.9163 54.3298 24.577 53.5073 23.7538C52.7108 22.956 51.3209 22.956 50.523 23.7538C49.8149 24.4625 49.7203 25.5523 50.2315 26.3674L49.0631 27.7937H42.4912V25.3589H45.8471C45.9608 25.3589 46.0713 25.321 46.1611 25.2512C46.2508 25.1813 46.3147 25.0836 46.3427 24.9733L46.7106 23.5212C47.5003 23.848 48.4069 23.6723 49.0126 23.0665C49.8351 22.2433 49.8351 20.9041 49.0133 20.0816C48.1903 19.2558 46.8532 19.2554 46.0277 20.0809L46.027 20.0816C45.2808 20.8292 45.2206 21.9997 45.8318 22.8261L45.4492 24.3359H42.4408C42.2516 23.4308 41.5402 22.7173 40.6375 22.5221V19.5236L42.147 19.1419C43.0023 19.7786 44.1585 19.6775 44.8918 18.9442C45.7136 18.1223 45.7139 16.7838 44.8918 15.9599C44.0939 15.1614 42.7043 15.1627 41.9072 15.9599C41.2754 16.5916 41.1358 17.5089 41.4493 18.2625L40.0004 18.6291C39.8901 18.6572 39.7922 18.7212 39.7224 18.811C39.6525 18.9009 39.6145 19.0114 39.6144 19.1253V22.4672H37.175V15.9099L38.6011 14.7414C39.0046 14.9977 39.4835 15.1085 39.9586 15.0555C40.4336 15.0025 40.8764 14.7889 41.2135 14.4501C41.6128 14.0512 41.8322 13.521 41.8322 12.9569C41.8322 12.3934 41.6127 11.8634 41.2135 11.4644C40.3917 10.6426 39.0527 10.642 38.2289 11.4651C37.5445 12.1508 37.4391 13.192 37.8957 13.9972L36.3396 15.272C36.281 15.3199 36.2338 15.3803 36.2014 15.4487C36.169 15.5171 36.1521 15.5918 36.1521 15.6675V22.4673H32.983V19.6741C33.899 19.4439 34.582 18.6204 34.582 17.6343C34.582 16.4702 33.635 15.5231 32.4711 15.5231C31.3076 15.5231 30.361 16.4701 30.361 17.6343C30.361 18.6206 31.0441 19.4443 31.96 19.6743V22.4674H28.7902V15.6675C28.7902 15.5917 28.7734 15.517 28.741 15.4486C28.7086 15.3801 28.6613 15.3198 28.6027 15.2719L27.0473 13.9976C27.5048 13.1921 27.3992 12.1506 26.7133 11.4644C25.9167 10.6679 24.5255 10.6679 23.7289 11.4644C22.9061 12.2876 22.9061 13.6269 23.7286 14.4501C24.0658 14.7889 24.5086 15.0025 24.9837 15.0555C25.4589 15.1085 25.9378 14.9978 26.3415 14.7416L27.7671 15.9099V22.4673H25.3326V19.1253C25.3325 19.0115 25.2945 18.901 25.2247 18.8111C25.1548 18.7213 25.057 18.6573 24.9466 18.6292L23.4974 18.2625C23.8102 17.5111 23.6729 16.5935 23.0399 15.9599C22.2431 15.1627 20.8538 15.1614 20.055 15.9599C19.2329 16.7837 19.2329 18.1223 20.0554 18.9442C20.7878 19.6766 21.9449 19.7794 22.7997 19.1418L24.3097 19.5236V22.5208C23.4049 22.7145 22.6916 23.4294 22.5021 24.336H19.4976L19.1284 22.8775C19.7824 22.05 19.7375 20.8456 18.9747 20.0817C18.9747 20.081 18.9747 20.081 18.9744 20.081C18.1493 19.2559 16.8123 19.2557 15.9898 20.081C15.167 20.9042 15.167 22.2434 15.9898 23.0666C16.5558 23.6326 17.4222 23.8539 18.2409 23.5395L18.6035 24.9727C18.6314 25.0831 18.6953 25.181 18.7851 25.251C18.8749 25.3209 18.9854 25.3589 19.0993 25.359H22.4515V27.7938H15.8837L14.7491 26.4083C15.2882 25.5897 15.1983 24.4743 14.4795 23.7539C13.6816 22.9561 12.2921 22.9561 11.4949 23.7539C10.6721 24.5771 10.6721 25.9164 11.4949 26.7396C12.1175 27.3617 13.1044 27.571 13.988 27.0935L15.2461 28.6297C15.294 28.6882 15.3544 28.7353 15.4228 28.7677C15.4912 28.8001 15.566 28.8168 15.6417 28.8168H22.4517V31.9855H19.7041C19.4739 31.0698 18.6497 30.3871 17.6632 30.3871C16.4994 30.3871 15.5524 31.3335 15.5524 32.4969C15.5524 33.661 16.4994 34.6082 17.6632 34.6082C18.6498 34.6082 19.4741 33.9249 19.7042 33.0085H22.4517V36.1786H15.6417C15.566 36.1786 15.4913 36.1953 15.4228 36.2277C15.3544 36.2601 15.2941 36.3072 15.2461 36.3657L13.9841 37.9061C13.1878 37.4933 12.1459 37.6035 11.4949 38.2551C10.6692 39.0808 10.6695 40.4146 11.4949 41.24C12.3176 42.0635 13.6537 42.0662 14.4798 41.2393C15.1985 40.5191 15.2884 39.4045 14.7496 38.586L15.8837 37.2015H22.4517V39.6396H19.0995C18.9856 39.6396 18.875 39.6777 18.7852 39.7476C18.6954 39.8176 18.6315 39.9155 18.6037 40.0259L18.2411 41.4587C17.4859 41.1689 16.5971 41.3248 15.99 41.9319C15.1671 42.7551 15.1671 44.0944 15.9896 44.9175C16.811 45.7396 18.1467 45.7447 18.9746 44.9175C18.9746 44.9175 18.9749 44.9175 18.9749 44.9168C19.7374 44.1532 19.7825 42.9492 19.1286 42.1207L19.4977 40.6625H22.5096C22.7068 41.5573 23.4132 42.2618 24.3098 42.4537V45.4749L22.7968 45.8574C21.9834 45.2703 20.7788 45.33 20.0554 46.0537C19.2327 46.8758 19.2289 48.2108 20.0554 49.038C20.8793 49.8619 22.2153 49.8646 23.0398 49.038C23.6685 48.4093 23.8124 47.4929 23.4978 46.736L24.9468 46.3694C25.0571 46.3413 25.155 46.2773 25.2248 46.1875C25.2947 46.0977 25.3327 45.9871 25.3328 45.8733V42.5074H27.7672V49.0887L26.3374 50.2604C25.5296 49.771 24.4113 49.8646 23.729 50.5485C22.9034 51.3742 22.9035 52.7076 23.7287 53.5335C24.5453 54.3508 25.8829 54.3652 26.7133 53.5335C27.3599 52.8868 27.5465 51.8729 27.0478 51.0006L28.6026 49.7267C28.6613 49.6788 28.7085 49.6185 28.7409 49.5501C28.7733 49.4816 28.7901 49.4069 28.7901 49.3312V42.5075H31.9599V45.3246C31.0439 45.5546 30.3609 46.3783 30.3609 47.3646C30.3609 48.5281 31.3076 49.4751 32.4711 49.4751C33.6349 49.4751 34.5819 48.5281 34.5819 47.3646C34.5819 46.3785 33.8988 45.5549 32.9829 45.3247V42.5076H36.152V49.3312C36.152 49.4844 36.2209 49.6296 36.3395 49.7268L37.8953 51.0012C37.4384 51.8066 37.5439 52.8475 38.2292 53.5336C39.0523 54.3566 40.3889 54.3596 41.2135 53.5336C42.04 52.7084 42.0381 51.3714 41.2139 50.5492C40.5188 49.8519 39.44 49.7274 38.601 50.2571L37.175 49.0887V42.5075H39.6145V45.8734C39.6146 45.9872 39.6526 46.0977 39.7225 46.1876C39.7923 46.2774 39.8902 46.3414 40.0005 46.3695L41.4493 46.7361C41.1355 47.4905 41.2763 48.407 41.9068 49.0381C42.731 49.863 44.0658 49.8637 44.8921 49.0381C45.7142 48.2149 45.7142 46.8764 44.8918 46.0538C44.1687 45.3301 42.9637 45.2704 42.1504 45.8577L40.6374 45.475V42.4525C41.5319 42.2592 42.2364 41.5559 42.4333 40.6627H45.4492L45.8317 42.1723C45.2206 42.9977 45.2804 44.169 46.027 44.917L46.0277 44.9177C46.8507 45.7408 48.1878 45.7439 49.0126 44.9177C49.8351 44.0945 49.8351 42.7553 49.0126 41.9321C48.3919 41.3114 47.477 41.1599 46.7105 41.4774L46.3427 40.0254C46.3147 39.9151 46.2508 39.8173 46.1611 39.7475C46.0713 39.6777 45.9608 39.6398 45.8471 39.6398H42.4912V37.2016H49.0631L50.2313 38.6273C49.7202 39.442 49.8149 40.5315 50.5229 41.2401C51.3459 42.0631 52.6824 42.0663 53.5072 41.2401C54.3297 40.4169 54.3297 39.0777 53.5072 38.2552C52.8462 37.5929 51.7804 37.4889 50.9795 37.9259ZM47.339 31.4101C47.939 31.4101 48.4272 31.8976 48.4272 32.4969C48.4272 33.097 47.9391 33.5852 47.339 33.5852C46.7396 33.5852 46.2514 33.097 46.2514 32.4969C46.2514 31.8976 46.7396 31.4101 47.339 31.4101ZM51.2463 24.4772C51.6579 24.0656 52.3739 24.0656 52.7841 24.4772C53.2076 24.9014 53.2076 25.5921 52.7841 26.0162C52.3605 26.4398 51.6712 26.4398 51.2463 26.0162C50.8227 25.592 50.8227 24.9014 51.2463 24.4772ZM46.7509 20.8042C47.1719 20.3832 47.8608 20.3743 48.2893 20.8042C48.7129 21.2285 48.7129 21.9191 48.2893 22.3433C47.8664 22.7662 47.1759 22.7668 46.7516 22.344C46.328 21.9191 46.328 21.2292 46.7509 20.8042ZM42.6304 16.6831C43.0531 16.2598 43.7408 16.2571 44.1682 16.6824C44.5917 17.1073 44.592 17.7973 44.1685 18.2209C44.0676 18.322 43.9477 18.4023 43.8157 18.457C43.6837 18.5118 43.5422 18.54 43.3993 18.54C43.2564 18.54 43.1149 18.5118 42.9829 18.457C42.8509 18.4023 42.731 18.322 42.6301 18.2209C42.529 18.1199 42.4488 18.0001 42.3941 17.8681C42.3394 17.7362 42.3112 17.5948 42.3113 17.4519C42.3113 17.3091 42.3395 17.1677 42.3943 17.0357C42.449 16.9038 42.5293 16.784 42.6304 16.6831ZM38.9522 12.1877C39.3768 11.7641 40.0664 11.7641 40.4903 12.1877C40.9145 12.6119 40.9145 13.3026 40.4899 13.7267C40.0797 14.1383 39.364 14.137 38.9525 13.7267C38.5293 13.3019 38.5296 12.6119 38.9522 12.1877ZM25.9901 13.7268H25.9897C25.5795 14.1384 24.8632 14.1384 24.4523 13.7268C24.0284 13.3026 24.0284 12.6119 24.4523 12.1878C24.8746 11.7655 25.563 11.7608 25.99 12.1878C26.414 12.6119 26.414 13.3026 25.9901 13.7268ZM22.3162 18.2216C21.8918 18.6459 21.2045 18.6467 20.7787 18.2209C20.3552 17.7973 20.3552 17.1074 20.7787 16.6831C21.2095 16.2538 21.8971 16.2631 22.3164 16.6831C22.4177 16.784 22.498 16.9039 22.5528 17.0359C22.6076 17.1679 22.6358 17.3095 22.6358 17.4524C22.6357 17.5953 22.6075 17.7369 22.5527 17.8688C22.4978 18.0008 22.4174 18.1207 22.3162 18.2216ZM18.2517 22.3427C17.8271 22.7669 17.1371 22.7675 16.7132 22.3434C16.2893 21.9191 16.2893 21.2285 16.7136 20.8036C17.1404 20.3768 17.828 20.3809 18.2513 20.8043C18.6746 21.2292 18.6742 21.9191 18.2517 22.3427ZM13.7562 26.0162C13.331 26.4405 12.6413 26.4392 12.2182 26.0162C11.7943 25.592 11.7943 24.9013 12.2182 24.4772C12.6408 24.0538 13.3286 24.0512 13.7559 24.4765C14.1795 24.9014 14.1795 25.592 13.7562 26.0162ZM17.6632 33.5852C17.0636 33.5852 16.5753 33.097 16.5753 32.4969C16.5753 31.8975 17.0635 31.4101 17.6632 31.4101C18.2629 31.4101 18.7512 31.8976 18.7512 32.4969C18.7512 33.097 18.263 33.5852 17.6632 33.5852ZM13.7562 40.5168C13.3446 40.927 12.629 40.9284 12.2182 40.5168C12.117 40.4159 12.0367 40.296 11.9819 40.164C11.9271 40.032 11.8989 39.8905 11.8989 39.7476C11.8989 39.6046 11.9271 39.4631 11.9819 39.3311C12.0367 39.1991 12.117 39.0793 12.2182 38.9783C12.6377 38.558 13.3258 38.5493 13.7562 38.9783C14.1795 39.4026 14.1795 40.0925 13.7562 40.5168ZM18.2513 44.1944C17.8397 44.6047 17.1241 44.606 16.7132 44.1944C16.2893 43.7701 16.2893 43.0795 16.7132 42.6553C17.1369 42.2317 17.8264 42.232 18.251 42.6546C18.6742 43.0795 18.6746 43.7694 18.2513 44.1944ZM22.3162 48.3155C21.8918 48.7398 21.2045 48.7406 20.7787 48.3148C20.3552 47.8905 20.3529 47.2022 20.7787 46.777C21.2037 46.3534 21.891 46.3512 22.3168 46.777C22.7408 47.2003 22.7436 47.8875 22.3162 48.3155ZM25.9897 52.8102C25.5795 53.2218 24.8632 53.2218 24.4523 52.8102C24.351 52.7092 24.2707 52.5893 24.2159 52.4572C24.1611 52.3252 24.133 52.1836 24.133 52.0406C24.133 51.8976 24.1613 51.7561 24.2161 51.624C24.271 51.492 24.3513 51.3721 24.4526 51.2712C24.8748 50.8489 25.5627 50.8442 25.9897 51.2712C25.9897 51.2719 25.9901 51.2719 25.9901 51.2719C26.4099 51.6915 26.4213 52.3795 25.9897 52.8102ZM38.9525 51.2718C39.3773 50.847 40.0648 50.8456 40.4903 51.2718C40.91 51.6915 40.9215 52.3794 40.4899 52.8102C40.0797 53.2218 39.3638 53.2205 38.9528 52.8102C38.529 52.386 38.529 51.696 38.9525 51.2718ZM42.6304 46.777C43.0537 46.3531 43.7428 46.3514 44.1685 46.777C44.592 47.2006 44.592 47.8905 44.1685 48.3148C43.7437 48.7396 43.0559 48.741 42.6304 48.3148C42.2072 47.8916 42.2026 47.2035 42.6304 46.777ZM31.3839 17.6342C31.3839 17.0342 31.8717 16.5459 32.4711 16.5459C33.0708 16.5459 33.559 17.0341 33.559 17.6342C33.559 18.2336 33.0709 18.721 32.4711 18.721C31.8717 18.721 31.3839 18.2335 31.3839 17.6342ZM33.559 47.3644C33.559 47.9638 33.0709 48.452 32.4711 48.452C31.8717 48.452 31.3839 47.9638 31.3839 47.3644C31.3839 46.765 31.8717 46.2776 32.4711 46.2776C33.0708 46.2776 33.559 46.7651 33.559 47.3644ZM41.4683 40.1571C41.4683 40.8891 40.8733 41.4845 40.1417 41.4845H24.8013C24.0697 41.4845 23.4747 40.8891 23.4747 40.1571V24.8175C23.4747 24.0855 24.0697 23.4902 24.8013 23.4902H40.1416C40.8732 23.4902 41.4682 24.0855 41.4682 24.8175V40.1571H41.4683ZM46.7502 42.6559C47.1758 42.2311 47.8651 42.2317 48.2893 42.6552C48.7128 43.0795 48.7128 43.7701 48.2893 44.1943C47.879 44.6059 47.1624 44.6059 46.7508 44.1943C46.328 43.7701 46.328 43.0795 46.7502 42.6559ZM52.7841 40.5168C52.3738 40.9284 51.6579 40.9284 51.2463 40.5168C50.8228 40.0925 50.8228 39.4026 51.2463 38.9783C51.6684 38.5563 52.3582 38.5511 52.7841 38.9783C53.2076 39.4026 53.2076 40.0925 52.7841 40.5168Z" fill="white"/>
</g>
<defs>
<clipPath id="clip0_0_2278">
<rect width="45" height="45" fill="white" transform="translate(10 10)"/>
</clipPath>
</defs>
</svg>
