<svg width="40" height="40" viewBox="0 0 40 40" fill="none" xmlns="http://www.w3.org/2000/svg">
<g clip-path="url(#clip0_0_2490)">
<path d="M31.6423 12.667C32.2271 12.6658 32.8012 12.5113 33.3076 12.2189C33.814 11.9266 34.2349 11.5067 34.5284 11.0009C34.5872 10.8994 34.6181 10.7843 34.6181 10.667C34.6181 10.5498 34.5872 10.4346 34.5284 10.3331C34.2359 9.82653 33.8152 9.40588 33.3086 9.11342C32.802 8.82096 32.2273 8.66699 31.6424 8.66699C31.0574 8.66699 30.4828 8.82096 29.9762 9.11342C29.4696 9.40588 29.0489 9.82653 28.7563 10.3331C28.6976 10.4346 28.6667 10.5498 28.6667 10.667C28.6667 10.7843 28.6976 10.8994 28.7563 11.0009C29.0498 11.5066 29.4707 11.9266 29.9771 12.2189C30.4835 12.5112 31.0576 12.6657 31.6423 12.667ZM31.6423 10.0003C31.9235 10.001 32.2013 10.0607 32.4579 10.1755C32.7145 10.2903 32.9441 10.4578 33.1318 10.667C32.9445 10.8767 32.715 11.0445 32.4583 11.1594C32.2016 11.2743 31.9236 11.3337 31.6424 11.3337C31.3612 11.3337 31.0831 11.2743 30.8265 11.1594C30.5698 11.0445 30.3403 10.8767 30.1529 10.667C30.3407 10.4578 30.5703 10.2903 30.8268 10.1755C31.0834 10.0607 31.3612 10.001 31.6423 10.0003Z" fill="white"/>
<path d="M35.9722 34.2314C35.5342 33.8722 35.0169 33.4889 34.4305 33.0882C37.3273 31.3615 39.3333 27.7362 39.3333 24.0003C39.3333 20.614 37.999 16.5557 35.018 15.123C33.7852 14.5305 31.8885 14.223 29.3977 15.5881C29.2786 14.3976 28.9168 13.4023 28.5763 12.4679C27.9329 10.7026 27.4248 9.30824 28.5963 6.96516L27.4038 6.36883C25.9754 9.22549 26.6608 11.1059 27.3236 12.9245C27.709 13.982 28.1018 15.0609 28.0986 16.4202C28.0653 16.4442 28.033 16.4669 27.9998 16.4916C26.1699 15.1304 24.6077 14.6517 23.3332 14.6223V10.667C23.3324 10.5229 23.2857 10.3827 23.1998 10.267L19.3333 5.11149V1.33366C19.3333 1.15685 19.2631 0.987279 19.1381 0.862254C19.013 0.73723 18.8435 0.666992 18.6667 0.666992H6.66667C6.48986 0.666992 6.32029 0.73723 6.19526 0.862254C6.07024 0.987279 6 1.15685 6 1.33366V5.11149L2.13333 10.267C2.04747 10.3827 2.00076 10.5229 2 10.667V25.0958C1.40288 25.4578 0.968498 26.0362 0.787416 26.7106C0.505833 27.6821 0.575166 29.0939 2.50475 30.3051C2.95286 30.5801 3.42409 30.8155 3.91308 31.0087C1.937 32.0831 1.70042 33.4004 1.7075 33.9978C1.72208 35.2187 2.67592 36.2812 4.1375 36.705C4.35474 36.767 4.57967 36.7978 4.80558 36.7967C6.00683 36.7967 7.48983 35.9841 9.22633 34.3717C9.74842 33.8869 10.2263 33.3934 10.6257 32.9574C10.6961 33.5497 10.9071 34.1167 11.2409 34.611C12.0504 35.8098 13.595 36.6689 16.4055 37.4835C19.1067 38.2664 24.2117 39.0085 28.5438 39.2486C29.5528 39.3044 30.5012 39.3319 31.3735 39.3319C32.4314 39.3409 33.4888 39.2866 34.5402 39.1693C36.5874 38.9167 37.663 38.3777 37.9251 37.4734C38.1872 36.5692 37.5667 35.5397 35.9722 34.2314ZM27.925 17.9941C27.8309 18.4312 27.708 18.8617 27.5573 19.2827C27.2885 19.2214 27.0353 19.1054 26.8134 18.9421C26.5914 18.7787 26.4054 18.5715 26.2669 18.3332L25.1128 19.0008C25.4055 19.5074 25.8263 19.9281 26.3331 20.2206C26.8399 20.513 27.4147 20.667 27.9998 20.667C28.5849 20.667 29.1596 20.513 29.6664 20.2206C30.1732 19.9281 30.594 19.5074 30.8867 19.0008L29.7326 18.3332C29.5636 18.624 29.3242 18.8676 29.0363 19.0415C29.221 18.4205 29.3443 17.7829 29.4046 17.1378C31.2827 15.9193 33.0078 15.6359 34.4402 16.3244C36.5363 17.332 38 20.4883 38 24.0003C38 27.4788 35.9382 30.9591 33.1557 32.2577C32.4791 31.8356 31.7397 31.4002 30.9473 30.9577C27.1583 28.8437 22.4473 26.741 19.7464 25.9582C19.1645 25.7896 18.6281 25.6521 18.1305 25.5443C18.0445 25.0341 18.0009 24.5177 18 24.0003C18 20.4883 19.4637 17.332 21.5596 16.3247C23.2401 15.517 25.3231 16.0459 27.5835 17.8542C27.6818 17.9323 27.8002 17.9808 27.925 17.9941ZM3.33333 11.3337H14V15.3337H3.33333V11.3337ZM15.3333 11.3337H22V14.7615C21.6488 14.8455 21.3075 14.9667 20.982 15.123C18.001 16.5557 16.6667 20.614 16.6667 24.0003C16.6672 24.4389 16.6949 24.877 16.7495 25.3121C16.2797 25.2554 15.8056 25.2423 15.3333 25.2729V11.3337ZM16 10.0003L18.6667 6.44474L21.3333 10.0003H16ZM7.33333 2.00033H18V4.66699H7.33333V2.00033ZM7 6.00033H17.3333L14.3333 10.0003H4L7 6.00033ZM3.33333 16.667H14V25.5609C13.9481 25.5811 13.8965 25.6019 13.8459 25.6241C13.2997 25.8626 12.8182 26.228 12.4417 26.6901C12.3371 26.1084 12.1977 25.437 12.0159 24.7491C11.293 22.0131 10.2659 20.4343 8.96317 20.0568C7.5015 19.6332 6.12717 20.021 5.46217 21.045C5.13717 21.5457 4.63208 22.7857 5.7275 24.7502C5.21086 24.6521 4.68666 24.5991 4.16083 24.5918H4.13583C3.86751 24.5909 3.59946 24.6092 3.33375 24.6466L3.33333 16.667ZM4.50833 35.4243C3.624 35.1681 3.04783 34.6018 3.04042 33.9819C3.03208 33.2755 3.80708 32.2729 6.00825 31.5778C6.14467 31.5347 6.26361 31.4489 6.34748 31.3329C6.43134 31.217 6.47569 31.0772 6.47398 30.9341C6.47226 30.7911 6.42456 30.6524 6.33793 30.5385C6.2513 30.4246 6.13034 30.3417 5.99292 30.3018C2.977 29.4276 1.69292 28.3743 2.06792 27.0818C2.29092 26.3123 2.96517 25.9288 4.11075 25.9288C4.8895 25.9288 5.88625 26.1062 7.10692 26.4599C7.24435 26.4997 7.39094 26.4943 7.52504 26.4444C7.65914 26.3945 7.77363 26.3028 7.85157 26.1828C7.92952 26.0628 7.96679 25.9209 7.95788 25.7781C7.94896 25.6353 7.89434 25.4991 7.80208 25.3897C6.314 23.6253 6.195 22.3637 6.57992 21.7713C6.91767 21.2514 7.70733 21.0812 8.59167 21.3374C10.0349 21.7557 11.0729 25.7467 11.3675 28.5239L10.6973 30.836C8.96333 33.0253 5.952 35.8425 4.50875 35.4243H4.50833ZM36.645 37.1033C36.5518 37.4248 34.8772 38.2645 28.6177 37.918C27.5671 37.8597 26.4714 37.7718 25.3778 37.6609L26.0288 35.4147L24.7482 35.0435L24.0325 37.5128C21.1825 37.1746 18.4794 36.6971 16.7767 36.2036C14.3244 35.4928 12.9578 34.7717 12.3459 33.8656C11.7876 33.0387 11.7778 31.898 12.3126 30.0512C12.8474 28.2043 13.4662 27.2456 14.3802 26.8455C14.7685 26.6755 15.2376 26.5897 15.8095 26.5897C16.713 26.5897 17.8728 26.804 19.3746 27.2392C19.5752 27.2975 19.7887 27.3642 20.0114 27.4368L18.3447 33.1877L19.6253 33.5588L21.2707 27.8815C23.893 28.8664 27.3689 30.4887 30.2971 32.1224C31.0092 32.5197 31.6442 32.8922 32.2114 33.2407L31.5225 35.6187L32.8031 35.9899L33.3828 33.9899C36.1574 35.8426 36.7167 36.8552 36.645 37.1033Z" fill="white"/>
</g>
<defs>
<clipPath id="clip0_0_2490">
<rect width="40" height="40" fill="white"/>
</clipPath>
</defs>
</svg>
