<svg width="17" height="17" viewBox="0 0 17 17" fill="none" xmlns="http://www.w3.org/2000/svg">
<g clip-path="url(#clip0_0_2976)">
<path d="M13.4353 10.5309C13.0873 10.1685 12.6675 9.97476 12.2226 9.97476C11.7813 9.97476 11.3579 10.1649 10.9955 10.5273L9.86171 11.6575C9.76842 11.6073 9.67513 11.5606 9.58544 11.514C9.45627 11.4494 9.33428 11.3884 9.23023 11.3238C8.16819 10.6493 7.20303 9.77025 6.27733 8.63286C5.82883 8.06596 5.52745 7.58877 5.30858 7.10439C5.60279 6.83529 5.87548 6.55543 6.14099 6.28633C6.24145 6.18587 6.34191 6.08182 6.44238 5.98136C7.19585 5.22788 7.19585 4.25196 6.44238 3.49848L5.46286 2.51897C5.35163 2.40774 5.23682 2.29293 5.12918 2.17811C4.9139 1.95566 4.68786 1.72603 4.45464 1.51075C4.10661 1.16631 3.69041 0.983319 3.25267 0.983319C2.81494 0.983319 2.39156 1.16631 2.03277 1.51075L2.02559 1.51793L0.805682 2.7486C0.346422 3.20786 0.0845005 3.76758 0.0270931 4.417C-0.0590181 5.46469 0.249547 6.44062 0.486353 7.07927C1.0676 8.64722 1.93589 10.1003 3.23115 11.6575C4.80268 13.534 6.69353 15.0159 8.85349 16.06C9.67872 16.451 10.7802 16.9139 12.0109 16.9928C12.0862 16.9964 12.1652 17 12.2369 17C13.0658 17 13.7618 16.7022 14.3072 16.1102C14.3108 16.103 14.318 16.0994 14.3216 16.0922C14.5081 15.8662 14.7234 15.6617 14.9494 15.4428C15.1037 15.2957 15.2616 15.1414 15.4159 14.98C15.7711 14.6104 15.9577 14.1799 15.9577 13.7385C15.9577 13.2936 15.7675 12.8667 15.4051 12.5079L13.4353 10.5309ZM14.7198 14.309C14.7162 14.309 14.7162 14.3126 14.7198 14.309C14.5799 14.4597 14.4364 14.5961 14.2821 14.7468C14.0489 14.9692 13.8121 15.2024 13.5896 15.4644C13.2272 15.8519 12.8003 16.0348 12.2405 16.0348C12.1867 16.0348 12.1293 16.0348 12.0755 16.0312C11.0099 15.9631 10.0196 15.5469 9.27687 15.1917C7.24608 14.2086 5.46286 12.8128 3.98103 11.044C2.75754 9.56932 1.93948 8.2059 1.3977 6.74201C1.06402 5.8486 0.942025 5.15254 0.995844 4.49594C1.03172 4.07615 1.19318 3.72811 1.49098 3.43031L2.71448 2.20682C2.89029 2.04177 3.07686 1.95207 3.25985 1.95207C3.48589 1.95207 3.66888 2.08841 3.78369 2.20323L3.79446 2.21399C4.01332 2.41851 4.22143 2.6302 4.44029 2.85624C4.55152 2.97105 4.66633 3.08587 4.78115 3.20427L5.76066 4.18379C6.14099 4.56411 6.14099 4.91573 5.76066 5.29605C5.65661 5.40011 5.55615 5.50416 5.4521 5.60462C5.15071 5.91318 4.86367 6.20022 4.55152 6.48008C4.54434 6.48726 4.53717 6.49085 4.53358 6.49802C4.22501 6.80659 4.28242 7.10798 4.347 7.31249L4.35777 7.34478C4.61251 7.96191 4.97131 8.54316 5.51668 9.23564L5.52027 9.23923C6.51055 10.4591 7.55465 11.4099 8.70638 12.1383C8.85349 12.2316 9.00418 12.3069 9.1477 12.3787C9.27687 12.4433 9.39886 12.5043 9.50291 12.5689C9.51726 12.576 9.53162 12.5868 9.54597 12.594C9.66796 12.655 9.78277 12.6837 9.90118 12.6837C10.199 12.6837 10.3856 12.4971 10.4465 12.4361L11.6736 11.209C11.7956 11.087 11.9894 10.9399 12.2154 10.9399C12.4379 10.9399 12.6209 11.0799 12.7321 11.2018L12.7393 11.209L14.7162 13.186C15.0858 13.552 15.0858 13.9287 14.7198 14.309ZM9.18717 4.04385C10.1272 4.20173 10.9812 4.64663 11.6629 5.32835C12.3446 6.01006 12.7859 6.864 12.9474 7.80404C12.9868 8.04085 13.1913 8.2059 13.4246 8.2059C13.4533 8.2059 13.4784 8.20231 13.5071 8.19872C13.7726 8.15566 13.9484 7.90451 13.9053 7.639C13.7116 6.50161 13.1734 5.46469 12.3518 4.64304C11.5301 3.8214 10.4932 3.28321 9.35581 3.08946C9.0903 3.0464 8.84273 3.22221 8.79608 3.48413C8.74944 3.74605 8.92166 4.0008 9.18717 4.04385ZM16.9802 7.49907C16.6609 5.62615 15.7783 3.92186 14.422 2.56561C13.0658 1.20936 11.3615 0.326721 9.48856 0.0073922C9.22664 -0.0392514 8.97907 0.140147 8.93243 0.402069C8.88937 0.667578 9.06518 0.915148 9.33069 0.961791C11.0027 1.24524 12.5276 2.03818 13.7403 3.24733C14.953 4.46006 15.7424 5.98494 16.0258 7.65694C16.0653 7.89374 16.2698 8.05879 16.503 8.05879C16.5317 8.05879 16.5569 8.0552 16.5856 8.05161C16.8475 8.01215 17.0269 7.76099 16.9802 7.49907Z" fill="white"/>
</g>
<defs>
<clipPath id="clip0_0_2976">
<rect width="17" height="17" fill="white"/>
</clipPath>
</defs>
</svg>
