<svg width="65" height="65" viewBox="0 0 65 65" fill="none" xmlns="http://www.w3.org/2000/svg">
<rect width="65" height="65" rx="10" fill="#F5F6F7"/>
<g clip-path="url(#clip0_0_2086)">
<path d="M45.8219 19.9093H45.9906C46.1149 19.9093 46.2342 19.8599 46.3221 19.772C46.41 19.6841 46.4594 19.5649 46.4594 19.4406C46.4594 19.3162 46.41 19.197 46.3221 19.1091C46.2342 19.0212 46.1149 18.9718 45.9906 18.9718H45.8219C45.6976 18.9718 45.5783 19.0212 45.4904 19.1091C45.4025 19.197 45.3531 19.3162 45.3531 19.4406C45.3531 19.5649 45.4025 19.6841 45.4904 19.772C45.5783 19.8599 45.6976 19.9093 45.8219 19.9093ZM47.6359 19.9093H47.8047C47.929 19.9093 48.0482 19.8599 48.1362 19.772C48.2241 19.6841 48.2734 19.5649 48.2734 19.4406C48.2734 19.3162 48.2241 19.197 48.1362 19.1091C48.0482 19.0212 47.929 18.9718 47.8047 18.9718H47.6359C47.5116 18.9718 47.3924 19.0212 47.3045 19.1091C47.2166 19.197 47.1672 19.3162 47.1672 19.4406C47.1672 19.5649 47.2166 19.6841 47.3045 19.772C47.3924 19.8599 47.5116 19.9093 47.6359 19.9093ZM49.4453 19.9093H49.6141C49.7384 19.9093 49.8576 19.8599 49.9455 19.772C50.0334 19.6841 50.0828 19.5649 50.0828 19.4406C50.0828 19.3162 50.0334 19.197 49.9455 19.1091C49.8576 19.0212 49.7384 18.9718 49.6141 18.9718H49.4453C49.321 18.9718 49.2018 19.0212 49.1139 19.1091C49.026 19.197 48.9766 19.3162 48.9766 19.4406C48.9766 19.5649 49.026 19.6841 49.1139 19.772C49.2018 19.8599 49.321 19.9093 49.4453 19.9093ZM26.3734 19.4406C26.3734 19.3162 26.3241 19.197 26.2361 19.1091C26.1482 19.0212 26.029 18.9718 25.9047 18.9718H15.5078C15.3835 18.9718 15.2643 19.0212 15.1764 19.1091C15.0884 19.197 15.0391 19.3162 15.0391 19.4406C15.0391 19.5649 15.0884 19.6841 15.1764 19.772C15.2643 19.8599 15.3835 19.9093 15.5078 19.9093H25.9047C26.029 19.9093 26.1482 19.8599 26.2361 19.772C26.3241 19.6841 26.3734 19.5649 26.3734 19.4406Z" fill="#2B4DFF"/>
<path d="M54.9719 27.5312L52.5203 21.8359V18.9062C52.5203 18.2672 52.2665 17.6544 51.8147 17.2025C51.3628 16.7507 50.75 16.4968 50.111 16.4968H14.9032C14.2645 16.4981 13.6524 16.7523 13.2008 17.2039C12.7493 17.6555 12.495 18.2676 12.4938 18.9062V21.789C9.87816 27.8828 10 27.5687 10 27.7187V28.5906C10.0005 29.3536 10.2418 30.097 10.6896 30.7148C11.1374 31.3326 11.7688 31.7933 12.4938 32.0312V45.8406C12.4938 46.19 12.5627 46.536 12.6965 46.8588C12.8304 47.1815 13.0266 47.4747 13.2739 47.7216C13.5212 47.9685 13.8147 48.1641 14.1377 48.2974C14.4607 48.4307 14.8069 48.499 15.1563 48.4984H49.8438C50.5487 48.4984 51.2247 48.2184 51.7231 47.7199C52.2216 47.2215 52.5016 46.5455 52.5016 45.8406V32.0312C53.2275 31.7941 53.8599 31.3338 54.3086 30.7159C54.7572 30.098 54.9992 29.3542 55 28.5906C55 27.6906 55.0235 27.6531 54.9719 27.5312ZM53.8282 27.25H48.5922L47.0922 22.3703H51.7188C52.7266 24.6906 52.2485 23.5937 53.8282 27.25ZM47.7719 28.5906C47.787 28.9518 47.7289 29.3124 47.6011 29.6506C47.4733 29.9887 47.2784 30.2976 47.0282 30.5585C46.7779 30.8195 46.4775 31.0271 46.1449 31.169C45.8124 31.3108 45.4545 31.3839 45.093 31.3839C44.7315 31.3839 44.3736 31.3108 44.0411 31.169C43.7085 31.0271 43.4081 30.8195 43.1579 30.5585C42.9076 30.2976 42.7127 29.9887 42.5849 29.6506C42.4571 29.3124 42.399 28.9518 42.4141 28.5906V28.1875H47.7719V28.5906ZM41.4766 28.5906C41.4917 28.9518 41.4336 29.3124 41.3058 29.6506C41.178 29.9887 40.9831 30.2976 40.7328 30.5585C40.4826 30.8195 40.1822 31.0271 39.8496 31.169C39.517 31.3108 39.1592 31.3839 38.7977 31.3839C38.4361 31.3839 38.0783 31.3108 37.7458 31.169C37.4132 31.0271 37.1128 30.8195 36.8625 30.5585C36.6123 30.2976 36.4174 29.9887 36.2896 29.6506C36.1618 29.3124 36.1037 28.9518 36.1188 28.5906V28.1875H41.4766V28.5906ZM35.1813 28.5906C35.1813 29.3017 34.8988 29.9837 34.396 30.4865C33.8931 30.9893 33.2111 31.2718 32.5 31.2718C31.7889 31.2718 31.1069 30.9893 30.6041 30.4865C30.1013 29.9837 29.8188 29.3017 29.8188 28.5906V28.1875H35.1813V28.5906ZM28.8813 28.5906C28.8964 28.9518 28.8383 29.3124 28.7105 29.6506C28.5827 29.9887 28.3878 30.2976 28.1375 30.5585C27.8873 30.8195 27.5868 31.0271 27.2543 31.169C26.9217 31.3108 26.5639 31.3839 26.2024 31.3839C25.8408 31.3839 25.483 31.3108 25.1505 31.169C24.8179 31.0271 24.5175 30.8195 24.2672 30.5585C24.017 30.2976 23.8221 29.9887 23.6943 29.6506C23.5665 29.3124 23.5084 28.9518 23.5235 28.5906V28.1875H28.8813V28.5906ZM22.586 28.5906C22.6011 28.9518 22.543 29.3124 22.4152 29.6506C22.2874 29.9887 22.0925 30.2976 21.8422 30.5585C21.592 30.8195 21.2915 31.0271 20.959 31.169C20.6264 31.3108 20.2686 31.3839 19.9071 31.3839C19.5455 31.3839 19.1877 31.3108 18.8552 31.169C18.5226 31.0271 18.2222 30.8195 17.9719 30.5585C17.7217 30.2976 17.5268 29.9887 17.399 29.6506C17.2711 29.3124 17.213 28.9518 17.2282 28.5906V28.1875H22.586V28.5906ZM42.3438 27.25L41.4391 22.3703H46.0938L47.5938 27.25H42.3438ZM41.4063 27.25H36.086L35.7813 22.3703H40.4688L41.4063 27.25ZM35.1719 27.25H29.8516L30.1563 22.3703H34.8438L35.1719 27.25ZM28.9375 27.25H23.6172L24.5313 22.3703H29.2188L28.9375 27.25ZM22.6563 27.25H17.3922L18.9063 22.3703H23.5938L22.6563 27.25ZM13.4313 18.9062C13.4325 18.5162 13.588 18.1426 13.8637 17.8668C14.1395 17.591 14.5132 17.4356 14.9032 17.4343H50.111C50.501 17.4356 50.8746 17.591 51.1504 17.8668C51.4261 18.1426 51.5816 18.5162 51.5828 18.9062V21.4187H13.4313V18.9062ZM13.2813 22.3703H17.9172L16.4078 27.25H11.1719C12.7563 23.5656 12.2922 24.6531 13.2813 22.3703ZM10.9375 28.5906V28.1875H16.2907V28.5906C16.2502 29.2731 15.9507 29.9143 15.4531 30.3833C14.9556 30.8522 14.2978 31.1133 13.6141 31.1133C12.9304 31.1133 12.2726 30.8522 11.775 30.3833C11.2775 29.9143 10.9779 29.2731 10.9375 28.5906ZM51.5922 45.8406C51.5923 46.0689 51.5468 46.2949 51.4586 46.5055C51.3704 46.716 51.2412 46.907 51.0784 47.0671C50.9157 47.2272 50.7227 47.3533 50.5108 47.4381C50.2988 47.5229 50.0721 47.5646 49.8438 47.5609H15.1563C14.7 47.5609 14.2625 47.3796 13.9398 47.057C13.6172 46.7344 13.436 46.2968 13.436 45.8406V32.2046C14.1065 32.2367 14.7727 32.0819 15.3604 31.7574C15.948 31.433 16.434 30.9516 16.7641 30.3671C17.0788 30.925 17.5361 31.3891 18.0892 31.7121C18.6423 32.0351 19.2713 32.2053 19.9118 32.2053C20.5522 32.2053 21.1812 32.0351 21.7343 31.7121C22.2874 31.3891 22.7447 30.925 23.0594 30.3671C23.3741 30.925 23.8314 31.3891 24.3845 31.7121C24.9376 32.0351 25.5666 32.2053 26.2071 32.2053C26.8475 32.2053 27.4765 32.0351 28.0296 31.7121C28.5827 31.3891 29.04 30.925 29.3547 30.3671C29.6691 30.9261 30.1265 31.3913 30.6801 31.7151C31.2337 32.0389 31.8634 32.2095 32.5047 32.2095C33.146 32.2095 33.7758 32.0389 34.3293 31.7151C34.8829 31.3913 35.3403 30.9261 35.6547 30.3671C35.9694 30.925 36.4267 31.3891 36.9798 31.7121C37.5329 32.0351 38.1619 32.2053 38.8024 32.2053C39.4429 32.2053 40.0718 32.0351 40.6249 31.7121C41.178 31.3891 41.6353 30.925 41.95 30.3671C42.2648 30.925 42.7221 31.3891 43.2751 31.7121C43.8282 32.0351 44.4572 32.2053 45.0977 32.2053C45.7382 32.2053 46.3672 32.0351 46.9202 31.7121C47.4733 31.3891 47.9306 30.925 48.2453 30.3671C48.5769 30.9535 49.0652 31.436 49.6555 31.7605C50.2458 32.085 50.9148 32.2388 51.5875 32.2046L51.5922 45.8406ZM54.0625 28.5906C54.0625 29.3017 53.78 29.9837 53.2772 30.4865C52.7744 30.9893 52.0924 31.2718 51.3813 31.2718C50.6702 31.2718 49.9882 30.9893 49.4854 30.4865C48.9825 29.9837 48.7 29.3017 48.7 28.5906V28.1875H54.0625V28.5906Z" fill="#2B4DFF"/>
<path d="M45.0531 35.5327H34.8438L34.5297 34.1593C34.4774 33.9237 34.3462 33.713 34.1578 33.5621C33.9694 33.4112 33.7351 33.3292 33.4938 33.3296H31.9188C31.7945 33.3296 31.6752 33.379 31.5873 33.4669C31.4994 33.5548 31.45 33.674 31.45 33.7983C31.45 33.9227 31.4994 34.0419 31.5873 34.1298C31.6752 34.2177 31.7945 34.2671 31.9188 34.2671H33.4891C33.5182 34.2677 33.5461 34.2782 33.5683 34.297C33.5905 34.3158 33.6056 34.3416 33.611 34.3702C36.5078 47.1015 34.5485 38.4624 35.486 42.5218C35.5441 42.7842 35.6674 43.0277 35.8443 43.23C36.0212 43.4324 36.2462 43.5869 36.4985 43.6796C36.4044 43.8774 36.3548 44.0934 36.3531 44.3124C36.3521 44.5293 36.3991 44.7438 36.4907 44.9404C36.5822 45.1371 36.7161 45.3111 36.8827 45.4499C37.0494 45.5888 37.2447 45.6891 37.4546 45.7437C37.6645 45.7983 37.8839 45.8058 38.0971 45.7657C38.3103 45.7256 38.512 45.6389 38.6877 45.5118C38.8635 45.3846 39.009 45.2202 39.1138 45.0303C39.2185 44.8403 39.2801 44.6296 39.2939 44.4131C39.3077 44.1966 39.2735 43.9798 39.1938 43.778H40.6985C40.6114 44.0011 40.58 44.2421 40.6072 44.4801C40.6343 44.718 40.7191 44.9458 40.8542 45.1435C40.9893 45.3413 41.1706 45.5031 41.3824 45.6149C41.5942 45.7267 41.8301 45.7852 42.0696 45.7852C42.3091 45.7852 42.5449 45.7267 42.7567 45.6149C42.9685 45.5031 43.1498 45.3413 43.2849 45.1435C43.42 44.9458 43.5048 44.718 43.532 44.4801C43.5591 44.2421 43.5277 44.0011 43.4406 43.778H43.7125C43.8368 43.778 43.9561 43.7286 44.044 43.6407C44.1319 43.5528 44.1813 43.4336 44.1813 43.3093C44.1813 43.185 44.1319 43.0657 44.044 42.9778C43.9561 42.8899 43.8368 42.8405 43.7125 42.8405H37.0375C36.8847 42.841 36.7363 42.7891 36.6169 42.6936C36.4975 42.5982 36.4144 42.4647 36.3813 42.3155L36.3156 42.0296H43.7875C43.8959 42.0322 44.0018 41.9973 44.0873 41.9306C44.1727 41.8639 44.2325 41.7697 44.2563 41.664L44.6453 39.9577V39.8968C44.9078 38.753 45.4047 36.5546 45.5031 36.1233C45.5218 36.0541 45.5243 35.9815 45.5105 35.9111C45.4966 35.8407 45.4668 35.7744 45.4234 35.7174C45.3799 35.6603 45.3239 35.614 45.2597 35.582C45.1956 35.55 45.1249 35.5331 45.0531 35.5327ZM42.0531 44.8468C41.9475 44.8468 41.8441 44.8154 41.7563 44.7567C41.6684 44.698 41.5999 44.6145 41.5595 44.5169C41.519 44.4193 41.5084 44.3118 41.529 44.2082C41.5497 44.1045 41.6006 44.0093 41.6753 43.9345C41.75 43.8598 41.8452 43.8089 41.9489 43.7883C42.0526 43.7677 42.16 43.7783 42.2576 43.8187C42.3553 43.8592 42.4387 43.9276 42.4975 44.0155C42.5562 44.1034 42.5875 44.2067 42.5875 44.3124C42.5863 44.4537 42.5296 44.589 42.4297 44.6889C42.3297 44.7889 42.1945 44.8456 42.0531 44.8468ZM37.8063 44.8468C37.7006 44.8468 37.5973 44.8154 37.5094 44.7567C37.4215 44.698 37.353 44.6145 37.3126 44.5169C37.2721 44.4193 37.2615 44.3118 37.2822 44.2082C37.3028 44.1045 37.3537 44.0093 37.4284 43.9345C37.5031 43.8598 37.5984 43.8089 37.702 43.7883C37.8057 43.7677 37.9131 43.7783 38.0108 43.8187C38.1084 43.8592 38.1919 43.9276 38.2506 44.0155C38.3093 44.1034 38.3406 44.2067 38.3406 44.3124C38.3406 44.4541 38.2844 44.5901 38.1841 44.6903C38.0839 44.7905 37.948 44.8468 37.8063 44.8468ZM44.2797 37.2765H42.1281L42.1985 36.4702H44.4625L44.2797 37.2765ZM43.811 39.3483H41.936C42.0344 38.2327 42.0344 38.2233 42.0344 38.214H44.05C44.05 38.214 44.0688 38.2046 43.811 39.3483ZM38.5094 39.3483C38.411 38.2046 38.411 38.2233 38.411 38.214H41.1063L41.0078 39.3483H38.5094ZM35.6969 39.3483L35.4391 38.214H37.4688L37.5672 39.3483H35.6969ZM41.2469 36.4702L41.1766 37.2765H38.3313L38.261 36.4702H41.2469ZM37.3094 36.4702L37.3797 37.2765H35.2235L35.0406 36.4702H37.3094ZM36.0953 41.0921C35.9735 40.5577 36.011 40.7405 35.9078 40.2858H37.6563C37.6563 40.3515 37.6563 40.014 37.7266 41.0921H36.0953ZM38.65 41.0921C38.5657 39.9999 38.5938 40.3608 38.5938 40.2858H40.9375C40.9375 40.3515 40.9375 40.014 40.8672 41.0921H38.65ZM43.4032 41.0921H41.7953C41.875 39.9999 41.875 40.3608 41.875 40.2858H43.6047L43.4032 41.0921ZM28.9188 33.3296H20.95C20.5638 33.3308 20.1937 33.4848 19.9206 33.7579C19.6474 34.0311 19.4934 34.4011 19.4922 34.7874V38.828C19.4934 39.2143 19.6474 39.5844 19.9206 39.8575C20.1937 40.1306 20.5638 40.2846 20.95 40.2858H28.9188C29.3046 40.2846 29.6742 40.1305 29.9466 39.8572C30.219 39.5839 30.3719 39.2139 30.3719 38.828V34.7874C30.3719 34.4016 30.219 34.0315 29.9466 33.7582C29.6742 33.485 29.3046 33.3308 28.9188 33.3296ZM29.4344 38.828C29.4344 38.9652 29.3802 39.0969 29.2837 39.1943C29.1871 39.2917 29.056 39.3471 28.9188 39.3483H20.95C20.812 39.3483 20.6797 39.2935 20.5821 39.1959C20.4845 39.0984 20.4297 38.966 20.4297 38.828V34.7874C20.4297 34.6494 20.4845 34.5171 20.5821 34.4195C20.6797 34.3219 20.812 34.2671 20.95 34.2671H28.9188C29.056 34.2683 29.1871 34.3237 29.2837 34.4211C29.3802 34.5186 29.4344 34.6502 29.4344 34.7874V38.828ZM19.9469 42.1608H21.8219C21.9462 42.1608 22.0654 42.1115 22.1534 42.0235C22.2413 41.9356 22.2906 41.8164 22.2906 41.6921C22.2906 41.5678 22.2413 41.4485 22.1534 41.3606C22.0654 41.2727 21.9462 41.2233 21.8219 41.2233H19.9469C19.8226 41.2233 19.7034 41.2727 19.6154 41.3606C19.5275 41.4485 19.4781 41.5678 19.4781 41.6921C19.4781 41.8164 19.5275 41.9356 19.6154 42.0235C19.7034 42.1115 19.8226 42.1608 19.9469 42.1608ZM29.9031 43.0233H19.9469C19.8226 43.0233 19.7034 43.0727 19.6154 43.1606C19.5275 43.2485 19.4781 43.3678 19.4781 43.4921C19.4781 43.6164 19.5275 43.7356 19.6154 43.8235C19.7034 43.9115 19.8226 43.9608 19.9469 43.9608H29.9031C30.0275 43.9608 30.1467 43.9115 30.2346 43.8235C30.3225 43.7356 30.3719 43.6164 30.3719 43.4921C30.3719 43.3678 30.3225 43.2485 30.2346 43.1606C30.1467 43.0727 30.0275 43.0233 29.9031 43.0233ZM24.2781 44.8233H19.9469C19.8226 44.8233 19.7034 44.8727 19.6154 44.9606C19.5275 45.0485 19.4781 45.1678 19.4781 45.2921C19.4781 45.4164 19.5275 45.5356 19.6154 45.6235C19.7034 45.7115 19.8226 45.7608 19.9469 45.7608H24.2781C24.4025 45.7608 24.5217 45.7115 24.6096 45.6235C24.6975 45.5356 24.7469 45.4164 24.7469 45.2921C24.7469 45.1678 24.6975 45.0485 24.6096 44.9606C24.5217 44.8727 24.4025 44.8233 24.2781 44.8233ZM29.9031 41.2233H23.9031C23.7788 41.2233 23.6596 41.2727 23.5717 41.3606C23.4838 41.4485 23.4344 41.5678 23.4344 41.6921C23.4344 41.8164 23.4838 41.9356 23.5717 42.0235C23.6596 42.1115 23.7788 42.1608 23.9031 42.1608H29.9031C30.0275 42.1608 30.1467 42.1115 30.2346 42.0235C30.3225 41.9356 30.3719 41.8164 30.3719 41.6921C30.3719 41.5678 30.3225 41.4485 30.2346 41.3606C30.1467 41.2727 30.0275 41.2233 29.9031 41.2233Z" fill="#2B4DFF"/>
</g>
<defs>
<clipPath id="clip0_0_2086">
<rect width="45" height="45" fill="white" transform="translate(10 10)"/>
</clipPath>
</defs>
</svg>
