<svg width="18" height="18" viewBox="0 0 18 18" fill="none" xmlns="http://www.w3.org/2000/svg">
<g clip-path="url(#clip0_0_2928)">
<path d="M17.0999 8.09999H9.90005V0.899943C9.90005 0.40327 9.49678 0 8.99994 0C8.50326 0 8.09999 0.40327 8.09999 0.899943V8.09999H0.899943C0.40327 8.09999 0 8.50326 0 8.99994C0 9.49678 0.40327 9.90005 0.899943 9.90005H8.09999V17.0999C8.09999 17.5968 8.50326 18 8.99994 18C9.49678 18 9.90005 17.5968 9.90005 17.0999V9.90005H17.0999C17.5968 9.90005 18 9.49678 18 8.99994C18 8.50326 17.5968 8.09999 17.0999 8.09999Z" fill="black"/>
</g>
<defs>
<clipPath id="clip0_0_2928">
<rect width="18" height="18" fill="white"/>
</clipPath>
</defs>
</svg>
