<svg width="40" height="40" viewBox="0 0 40 40" fill="none" xmlns="http://www.w3.org/2000/svg">
<g clip-path="url(#clip0_0_2501)">
<path d="M23.871 33.5479C22.8039 33.5479 21.9355 34.4163 21.9355 35.4834C21.9355 36.5505 22.8039 37.4189 23.871 37.4189C24.9381 37.4189 25.8065 36.5505 25.8065 35.4834C25.8065 34.4163 24.9381 33.5479 23.871 33.5479ZM23.871 36.1286C23.7049 36.1212 23.5481 36.0499 23.4331 35.9298C23.3182 35.8096 23.2541 35.6497 23.2541 35.4834C23.2541 35.3171 23.3182 35.1573 23.4331 35.0371C23.5481 34.9169 23.7049 34.8457 23.871 34.8383C24.0371 34.8457 24.194 34.9169 24.3089 35.0371C24.4238 35.1573 24.488 35.3171 24.488 35.4834C24.488 35.6497 24.4238 35.8096 24.3089 35.9298C24.194 36.0499 24.0371 36.1212 23.871 36.1286ZM8.38714 33.5479C7.32005 33.5479 6.45166 34.4163 6.45166 35.4834C6.45166 36.5505 7.32005 37.4189 8.38714 37.4189C9.45424 37.4189 10.3226 36.5505 10.3226 35.4834C10.3226 34.4163 9.45424 33.5479 8.38714 33.5479ZM8.38714 36.1286C8.22103 36.1212 8.06418 36.0499 7.94926 35.9298C7.83434 35.8096 7.7702 35.6497 7.7702 35.4834C7.7702 35.3171 7.83434 35.1573 7.94926 35.0371C8.06418 34.9169 8.22103 34.8457 8.38714 34.8383C8.55326 34.8457 8.71011 34.9169 8.82503 35.0371C8.93995 35.1573 9.00409 35.3171 9.00409 35.4834C9.00409 35.6497 8.93995 35.8096 8.82503 35.9298C8.71011 36.0499 8.55326 36.1212 8.38714 36.1286ZM9.67747 10.3221C10.7446 10.3221 11.613 9.45375 11.613 8.38666C11.613 7.31956 10.7446 6.45117 9.67747 6.45117C8.61037 6.45117 7.74198 7.31956 7.74198 8.38666C7.74198 9.45375 8.61037 10.3221 9.67747 10.3221ZM9.67747 7.74149C9.80525 7.74137 9.9302 7.77915 10.0365 7.85006C10.1428 7.92098 10.2257 8.02183 10.2746 8.13986C10.3236 8.2579 10.3364 8.3878 10.3115 8.51313C10.2866 8.63847 10.2251 8.7536 10.1348 8.84395C10.0444 8.93431 9.92928 8.99583 9.80394 9.02073C9.67861 9.04563 9.54871 9.03278 9.43067 8.98382C9.31264 8.93486 9.21179 8.85199 9.14087 8.74569C9.06996 8.63939 9.03218 8.51444 9.03231 8.38666C9.03231 8.03053 9.32198 7.74149 9.67747 7.74149ZM35.4839 23.2254C34.4168 23.2254 33.5484 24.0938 33.5484 25.1608C33.5484 26.2279 34.4168 27.0963 35.4839 27.0963C36.551 27.0963 37.4194 26.2279 37.4194 25.1608C37.4194 24.0938 36.551 23.2254 35.4839 23.2254ZM35.4839 25.806C35.3178 25.7986 35.161 25.7274 35.046 25.6072C34.9311 25.487 34.867 25.3271 34.867 25.1608C34.867 24.9946 34.9311 24.8347 35.046 24.7145C35.161 24.5943 35.3178 24.5231 35.4839 24.5157C35.65 24.5231 35.8069 24.5943 35.9218 24.7145C36.0367 24.8347 36.1009 24.9946 36.1009 25.1608C36.1009 25.3271 36.0367 25.487 35.9218 25.6072C35.8069 25.7274 35.65 25.7986 35.4839 25.806Z" fill="white"/>
<path d="M36.1006 20.6923C36.1103 20.4613 36.129 20.2303 36.129 20C36.129 17.0594 35.3265 14.2006 33.8194 11.6968C34.4841 10.5301 34.8353 9.21114 34.8387 7.86839V7.74194C34.8387 3.4729 31.3658 0 27.0968 0C24.2335 0 21.7335 1.56645 20.3942 3.88387C17.8712 3.82847 15.3697 4.35916 13.0865 5.43419C12.6639 4.944 12.1407 4.55063 11.5524 4.28087C10.9641 4.01111 10.3246 3.8713 9.67742 3.87097C7.1871 3.87097 5.16129 5.89742 5.16129 8.3871C5.16328 9.36373 5.48001 10.3137 6.06452 11.0961L6.33161 11.4523C4.8422 13.828 4.00199 16.5529 3.89484 19.3548H2.58065C1.86903 19.3548 1.29032 19.9335 1.29032 20.6452V33.5484C0.57871 33.5484 0 34.1271 0 34.8387V36.129C0 36.8406 0.57871 37.4194 1.29032 37.4194H4.3129C5.03935 38.9426 6.59032 40 8.3871 40C10.1839 40 11.7348 38.9426 12.4613 37.4194H19.7968C20.5232 38.9426 22.0742 40 23.871 40C25.6677 40 27.2187 38.9426 27.9452 37.4194H29.6774C30.389 37.4194 30.9677 36.8406 30.9677 36.129V34.3523C30.9677 34.1948 30.9484 34.0374 30.9103 33.8826L30.4974 32.231C31.4567 31.4082 32.3159 30.4756 33.0574 29.4523L35.4839 32.6884L39.0968 27.871C39.6814 27.0884 39.9981 26.1381 40 25.1613C40 22.8813 38.2994 20.9948 36.1006 20.6923ZM27.0968 1.29032C30.6542 1.29032 33.5484 4.18452 33.5484 7.74194V7.86774C33.5484 9.30645 33.0587 10.7226 32.1697 11.8535L27.0968 18.311L22.0239 11.8535C21.1325 10.716 20.6472 9.31295 20.6452 7.86774V7.74194C20.6452 4.18452 23.5394 1.29032 27.0968 1.29032ZM9.67742 5.16129C11.4561 5.16129 12.9032 6.60839 12.9032 8.3871C12.902 9.08467 12.6758 9.76324 12.2581 10.3219L9.67742 13.7632L7.09677 10.3219C6.67908 9.76324 6.45282 9.08467 6.45161 8.3871C6.45161 6.60839 7.89871 5.16129 9.67742 5.16129ZM2.58065 20.6452H7.74194V25.56L10.9677 23.9471L14.1935 25.56V20.6452H19.3548V33.5484H12.4613C11.7348 32.0252 10.1839 30.9677 8.3871 30.9677C6.59032 30.9677 5.03935 32.0252 4.3129 33.5484H2.58065V20.6452ZM9.03226 20.6452H12.9032V23.4723L10.9677 22.5045L9.03226 23.4723V20.6452ZM20.6452 24.5161H26.7342C26.878 24.5161 27.0177 24.5642 27.1311 24.6527C27.2445 24.7412 27.3251 24.865 27.36 25.0045L27.5606 25.8064H24.5161C23.8045 25.8064 23.2258 26.3852 23.2258 27.0968V28.3871C23.2258 29.0987 23.8045 29.6774 24.5161 29.6774H28.5284L29.4961 33.5484H27.9452C27.2187 32.0252 25.6677 30.9677 23.871 30.9677C22.6077 30.9677 21.4658 31.4903 20.6452 32.3297V24.5161ZM28.2058 28.3871H24.5161V27.0968H27.8832L28.2058 28.3871ZM1.29032 36.129V34.8387H3.92258C3.89226 35.0503 3.87097 35.2645 3.87097 35.4839C3.87097 35.7032 3.89226 35.9174 3.92258 36.129H1.29032ZM8.3871 38.7097C6.60839 38.7097 5.16129 37.2626 5.16129 35.4839C5.16129 33.7052 6.60839 32.2581 8.3871 32.2581C10.1658 32.2581 11.6129 33.7052 11.6129 35.4839C11.6129 37.2626 10.1658 38.7097 8.3871 38.7097ZM12.8516 36.129C12.8819 35.9174 12.9032 35.7032 12.9032 35.4839C12.9032 35.2645 12.8819 35.0503 12.8516 34.8387H19.4065C19.3761 35.0503 19.3548 35.2645 19.3548 35.4839C19.3548 35.7032 19.3761 35.9174 19.4065 36.129H12.8516ZM23.871 38.7097C22.0923 38.7097 20.6452 37.2626 20.6452 35.4839C20.6452 33.7052 22.0923 32.2581 23.871 32.2581C25.6497 32.2581 27.0968 33.7052 27.0968 35.4839C27.0968 37.2626 25.6497 38.7097 23.871 38.7097ZM28.3355 36.129C28.3658 35.9174 28.3871 35.7032 28.3871 35.4839C28.3871 35.2645 28.3658 35.0503 28.3355 34.8387H29.6774V36.129H28.3355ZM30.1452 30.8226L28.6123 24.6916C28.5077 24.2727 28.266 23.9009 27.9257 23.6352C27.5853 23.3696 27.1659 23.2255 26.7342 23.2258H20.6452V20.6452C20.6452 19.9335 20.0665 19.3548 19.3548 19.3548H5.18452C5.28297 16.9635 5.96209 14.6321 7.16323 12.5619L9.67742 15.9142L13.2903 11.0968C13.875 10.3142 14.1917 9.36395 14.1935 8.3871C14.1931 7.7447 14.0545 7.10992 13.7871 6.52581C15.6735 5.65083 17.7246 5.18766 19.8039 5.1671C19.5087 5.99355 19.3568 6.86435 19.3548 7.74194V7.86774C19.3548 9.59484 19.9426 11.2942 21.009 12.651L27.0968 20.3987L33.0129 12.869C34.2124 15.0543 34.8404 17.5072 34.8387 20C34.8387 20.2329 34.8206 20.4671 34.8103 20.7013C32.6394 21.0284 30.9677 22.9006 30.9677 25.1613C30.9697 26.1379 31.2865 27.0879 31.871 27.8703L32.2432 28.3671C31.6351 29.2594 30.9316 30.0827 30.1452 30.8226ZM38.0645 27.0961L35.4839 30.5374L32.9032 27.0961C32.4855 26.5374 32.2593 25.8589 32.2581 25.1613C32.2581 23.3826 33.7052 21.9355 35.4839 21.9355C37.2626 21.9355 38.7097 23.3826 38.7097 25.1613C38.7085 25.8589 38.4822 26.5374 38.0645 27.0961Z" fill="white"/>
<path d="M27.0968 12.9036C29.9426 12.9036 32.2581 10.5882 32.2581 7.74234C32.2581 4.89654 29.9426 2.58105 27.0968 2.58105C24.251 2.58105 21.9355 4.89654 21.9355 7.74234C21.9355 10.5882 24.251 12.9036 27.0968 12.9036ZM27.0968 3.87138C29.2316 3.87138 30.9678 5.60751 30.9678 7.74234C30.9678 9.87718 29.2316 11.6133 27.0968 11.6133C24.962 11.6133 23.2258 9.87718 23.2258 7.74234C23.2258 5.60751 24.962 3.87138 27.0968 3.87138ZM15.4839 16.7746H16.7742V18.0649H15.4839V16.7746ZM18.0645 16.7746H19.3549V18.0649H18.0645V16.7746ZM20.6452 16.7746H21.9355V18.0649H20.6452V16.7746Z" fill="white"/>
</g>
<defs>
<clipPath id="clip0_0_2501">
<rect width="40" height="40" fill="white"/>
</clipPath>
</defs>
</svg>
