<svg width="20" height="20" viewBox="0 0 20 20" fill="none" xmlns="http://www.w3.org/2000/svg">
<path d="M10 13.75C9.91795 13.7501 9.83666 13.734 9.76083 13.7025C9.685 13.6711 9.61613 13.625 9.55816 13.5669L3.30816 7.31688C3.06395 7.07266 3.06395 6.67719 3.30816 6.43313C3.55238 6.18906 3.94785 6.18891 4.19191 6.43313L10 12.2413L15.8082 6.43313C16.0524 6.18891 16.4479 6.18891 16.6919 6.43313C16.936 6.67734 16.9361 7.07281 16.6919 7.31688L10.4419 13.5669C10.384 13.625 10.3151 13.6711 10.2392 13.7025C10.1634 13.734 10.0821 13.7501 10 13.75Z" fill="#0A165E"/>
</svg>
