<svg width="65" height="65" viewBox="0 0 65 65" fill="none" xmlns="http://www.w3.org/2000/svg">
<rect width="65" height="65" rx="10" fill="#0A165E"/>
<path d="M53.2225 47.4912H50.9064V31.2252C52.7206 30.5015 53.9865 28.8922 53.9865 27.0262C53.9865 26.898 53.9515 26.7722 53.8852 26.6625L48.8977 18.4096C48.8818 18.3833 48.8651 18.3577 48.8477 18.3327V14.6832C48.8477 13.6178 47.9809 12.751 46.9155 12.751H23.2959C22.2305 12.751 21.3637 13.6178 21.3637 14.6832V18.5772L16.4776 26.6624C16.4113 26.7721 16.3763 26.8979 16.3763 27.0261C16.3763 28.8921 17.6423 30.5014 19.4564 31.2251V35.8435H14.3336L13.8018 33.465C13.7669 33.309 13.6799 33.1696 13.5552 33.0696C13.4305 32.9697 13.2754 32.9153 13.1156 32.9153H11.4062C11.2198 32.9153 11.0409 32.9894 10.9091 33.1212C10.7772 33.2531 10.7031 33.4319 10.7031 33.6184C10.7031 33.8049 10.7772 33.9837 10.9091 34.1156C11.0409 34.2475 11.2198 34.3215 11.4062 34.3215H12.5523L14.4897 42.986C13.9114 43.2875 13.515 43.8919 13.515 44.588C13.515 45.4904 14.1808 46.2383 15.0465 46.3715C14.9898 46.5567 14.961 46.7493 14.9611 46.943C14.9611 47.7163 15.4127 48.3862 16.0659 48.7029V51.1747C16.0659 51.7671 16.5479 52.2491 17.1403 52.2491H53.2226C53.815 52.2491 54.297 51.7672 54.297 51.1747V48.5654C54.2969 47.9731 53.815 47.4912 53.2225 47.4912ZM48.7579 30.2276C46.9388 30.2276 45.4133 29.1573 45.0295 27.7292H52.4863C52.1027 29.1573 50.5772 30.2276 48.7579 30.2276ZM22.7252 19.1319H27.8065L25.61 26.323H18.3258L22.6652 19.1423C22.6715 19.1392 22.6899 19.1319 22.7252 19.1319ZM41.086 19.1319L43.2825 26.323H35.8846V19.1319H41.086ZM34.4783 26.323H27.0803L29.2768 19.1319H34.4782V26.323H34.4783ZM34.3843 27.7292C34.0006 29.1573 32.4751 30.2276 30.6559 30.2276C28.8367 30.2276 27.3113 29.1573 26.9275 27.7292H34.3843ZM43.4354 27.7292C43.0516 29.1573 41.5262 30.2276 39.7069 30.2276C37.8877 30.2276 36.3624 29.1573 35.9785 27.7292H43.4354ZM52.037 26.323H44.7528L42.5564 19.1319H47.6377C47.6728 19.1319 47.6912 19.1392 47.6975 19.1423L52.037 26.323ZM23.2959 14.1572H46.9156C47.055 14.1574 47.1887 14.2129 47.2872 14.3115C47.3858 14.4101 47.4413 14.5437 47.4415 14.6832V17.7257H22.7699V14.6832C22.7699 14.3931 23.0059 14.1572 23.2959 14.1572ZM17.8764 27.7292H25.3332C24.9495 29.1573 23.4241 30.2276 21.6048 30.2276C19.7856 30.2276 18.2601 29.1573 17.8764 27.7292ZM24.3693 37.2498C24.4269 37.2498 24.5696 37.2996 24.6493 37.399C24.6857 37.4445 24.7188 37.5095 24.6879 37.6474L23.5399 42.7813H15.885L14.6481 37.2498H24.3693ZM14.9213 44.5879C14.9213 44.3709 15.1046 44.1874 15.3217 44.1874H24.1032C24.263 44.1874 24.4181 44.133 24.5428 44.0331C24.6675 43.9332 24.7545 43.7937 24.7894 43.6378L26.0603 37.9542C26.1779 37.4284 26.0665 36.919 25.7467 36.5199C25.4176 36.1091 24.877 35.8435 24.3693 35.8435H20.8627V31.5866C21.1052 31.6171 21.3529 31.6338 21.6049 31.6338C23.5352 31.6338 25.2247 30.7072 26.1304 29.3322C27.0361 30.7072 28.7255 31.6338 30.6559 31.6338C32.5863 31.6338 34.2757 30.7072 35.1815 29.3322C36.0872 30.7072 37.7766 31.6338 39.7069 31.6338C41.6373 31.6338 43.3267 30.7072 44.2324 29.3322C45.1381 30.7072 46.8276 31.6338 48.7579 31.6338C49.0099 31.6338 49.2576 31.6171 49.5002 31.5866V47.4912H43.4879V37.4163H43.6066C43.793 37.4163 43.9719 37.3423 44.1037 37.2104C44.2356 37.0785 44.3097 36.8997 44.3097 36.7132V34.7256C44.3097 34.5391 44.2356 34.3602 44.1037 34.2284C43.9719 34.0965 43.793 34.0224 43.6066 34.0224H26.7563C26.5698 34.0224 26.3909 34.0965 26.2591 34.2284C26.1272 34.3602 26.0531 34.5391 26.0531 34.7256V36.7132C26.0531 36.8997 26.1272 37.0785 26.2591 37.2104C26.3909 37.3423 26.5698 37.4163 26.7563 37.4163H26.8749V47.4911H25.2792C25.3301 47.317 25.358 47.1332 25.358 46.9429C25.358 45.8658 24.4821 44.9894 23.4053 44.9885L23.4036 44.9884H15.3217C15.1046 44.9885 14.9213 44.805 14.9213 44.5879ZM42.9034 36.0101H27.4594V35.4287H42.9034V36.0101ZM34.4783 37.4163V47.4911H28.2812V37.4163H34.4783ZM35.8846 37.4163H42.0817V47.4911H35.8846V37.4163ZM23.4026 47.4912C23.2574 47.4908 23.1183 47.4329 23.0157 47.3301C22.9131 47.2274 22.8554 47.0882 22.8552 46.943C22.8552 46.6407 23.1012 46.3948 23.4034 46.3948C23.7057 46.3948 23.9517 46.6407 23.9517 46.943C23.9515 47.0882 23.8938 47.2274 23.7912 47.3301C23.6886 47.4329 23.5495 47.4908 23.4043 47.4912H23.4026ZM16.9156 46.3947C17.2178 46.3947 17.4638 46.6406 17.4638 46.9429C17.4638 47.2451 17.2178 47.4912 16.9156 47.4912C16.6133 47.4912 16.3673 47.2452 16.3673 46.9429C16.3673 46.6405 16.6132 46.3947 16.9156 46.3947ZM18.7912 46.3947H21.5278C21.4228 46.7527 21.4228 47.1332 21.5278 47.4912H18.7912C18.8962 47.1332 18.8962 46.7527 18.7912 46.3947ZM52.8906 50.8428H17.4722V48.8973H52.8906V50.8428ZM26.345 15.9414C26.345 15.7549 26.4191 15.5761 26.551 15.4442C26.6828 15.3124 26.8617 15.2383 27.0481 15.2383H32.414C32.6004 15.2383 32.7793 15.3124 32.9111 15.4442C33.043 15.5761 33.1171 15.7549 33.1171 15.9414C33.1171 16.1279 33.043 16.3067 32.9111 16.4386C32.7793 16.5705 32.6004 16.6445 32.414 16.6445H27.0481C26.8617 16.6445 26.6828 16.5705 26.551 16.4386C26.4191 16.3067 26.345 16.1279 26.345 15.9414ZM37.2457 15.9414C37.2457 15.7549 37.3198 15.5761 37.4517 15.4442C37.5835 15.3124 37.7624 15.2383 37.9489 15.2383H43.3147C43.5012 15.2383 43.68 15.3124 43.8119 15.4442C43.9437 15.5761 44.0178 15.7549 44.0178 15.9414C44.0178 16.1279 43.9437 16.3067 43.8119 16.4386C43.68 16.5705 43.5012 16.6445 43.3147 16.6445H37.9489C37.7624 16.6445 37.5835 16.5705 37.4517 16.4386C37.3198 16.3067 37.2457 16.1279 37.2457 15.9414ZM30.7229 43.8315L32.2444 41.1962C32.3383 41.036 32.4918 40.9195 32.6713 40.872C32.8508 40.8245 33.0418 40.85 33.2026 40.9428C33.3634 41.0357 33.4809 41.1884 33.5296 41.3675C33.5782 41.5467 33.554 41.7379 33.4622 41.8993L31.9407 44.5346C31.8945 44.6146 31.833 44.6847 31.7598 44.7409C31.6865 44.7972 31.6029 44.8384 31.5137 44.8623C31.4245 44.8862 31.3315 44.8923 31.2399 44.8802C31.1483 44.8681 31.0601 44.8382 30.9801 44.7919C30.8186 44.6987 30.7008 44.5451 30.6526 44.365C30.6043 44.1849 30.6296 43.993 30.7229 43.8315ZM29.2973 43.0083L30.8188 40.373C30.9127 40.2128 31.0662 40.0963 31.2457 40.0488C31.4252 40.0014 31.6162 40.0268 31.777 40.1197C31.9378 40.2125 32.0553 40.3652 32.104 40.5444C32.1526 40.7235 32.1284 40.9147 32.0366 41.0761L30.5151 43.7114C30.4689 43.7914 30.4075 43.8615 30.3342 43.9177C30.2609 43.974 30.1773 44.0152 30.0881 44.0391C29.9989 44.063 29.9059 44.0691 29.8143 44.057C29.7228 44.045 29.6345 44.015 29.5545 43.9688C29.393 43.8755 29.2752 43.7219 29.227 43.5418C29.1787 43.3617 29.204 43.1698 29.2973 43.0083ZM41.0656 41.8992L39.5441 44.5345C39.4979 44.6145 39.4365 44.6846 39.3632 44.7408C39.29 44.7971 39.2063 44.8383 39.1171 44.8622C39.0279 44.8861 38.9349 44.8922 38.8433 44.8801C38.7518 44.8681 38.6635 44.8381 38.5835 44.7919C38.422 44.6986 38.3042 44.545 38.2559 44.3649C38.2077 44.1848 38.2329 43.9929 38.3262 43.8314L39.8477 41.1961C39.8939 41.1161 39.9554 41.046 40.0286 40.9898C40.1019 40.9336 40.1855 40.8924 40.2747 40.8685C40.3639 40.8446 40.4569 40.8385 40.5484 40.8505C40.64 40.8626 40.7283 40.8926 40.8082 40.9387C40.8882 40.9849 40.9583 41.0464 41.0145 41.1196C41.0707 41.1929 41.1119 41.2765 41.1358 41.3656C41.1598 41.4548 41.1659 41.5479 41.1538 41.6394C41.1418 41.731 41.1118 41.8192 41.0656 41.8992ZM39.64 41.0761L38.1184 43.7114C38.0723 43.7914 38.0108 43.8615 37.9375 43.9177C37.8643 43.974 37.7807 44.0152 37.6915 44.0391C37.6022 44.063 37.5092 44.0691 37.4177 44.057C37.3261 44.045 37.2378 44.015 37.1579 43.9688C36.9964 43.8755 36.8785 43.7219 36.8303 43.5418C36.782 43.3617 36.8073 43.1698 36.9005 43.0083L38.4221 40.373C38.4682 40.293 38.5297 40.2229 38.6029 40.1667C38.6762 40.1105 38.7598 40.0692 38.849 40.0453C38.9382 40.0214 39.0312 40.0153 39.1228 40.0274C39.2143 40.0395 39.3026 40.0694 39.3825 40.1156C39.4625 40.1618 39.5326 40.2233 39.5888 40.2965C39.645 40.3698 39.6863 40.4534 39.7102 40.5426C39.7341 40.6317 39.7402 40.7248 39.7281 40.8163C39.7161 40.9079 39.6861 40.9961 39.64 41.0761Z" fill="white"/>
</svg>
