<svg width="65" height="65" viewBox="0 0 65 65" fill="none" xmlns="http://www.w3.org/2000/svg">
<rect width="65" height="65" rx="10" fill="#F5F6F7"/>
<path d="M51.2111 35.7286C50.8427 33.5523 49.7446 32.1676 48.8625 31.055C48.0712 30.0571 47.4449 29.2672 47.4346 28.1766C47.8893 22.6096 46.5697 17.9731 43.6179 14.7668C42.2331 13.2627 40.5044 12.1015 38.48 11.3155C36.3814 10.501 33.9554 10.0879 31.2692 10.0879C27.3772 10.0879 23.854 11.2147 21.0806 13.3467C18.5562 15.2872 16.6768 18.012 15.6454 21.2264C14.5449 24.6564 14.4909 28.4591 15.4937 31.9342C16.5392 35.5575 18.6373 38.6189 21.5718 40.8091C21.7841 45.2784 20.5584 48.7847 19.6576 51.3615C19.2632 52.4899 18.9516 53.3812 18.8498 54.112C18.8359 54.2115 18.8435 54.3129 18.8722 54.4093C18.9008 54.5056 18.9498 54.5947 19.0158 54.6706C19.0818 54.7464 19.1633 54.8072 19.2548 54.8489C19.3462 54.8905 19.4456 54.9121 19.5461 54.9121H19.5475L38.7749 54.8748C38.9612 54.8744 39.1396 54.8001 39.2712 54.6683C39.4028 54.5365 39.4767 54.3579 39.4767 54.1716C39.4767 52.4111 38.9008 50.8494 38.4382 49.5946C37.6555 47.4715 37.6601 47.0675 38.4718 46.7123C38.9358 46.5089 40.3358 46.8487 41.4605 47.1214C43.5695 47.6327 45.7505 48.1618 46.7538 46.913C46.8197 46.8309 46.8664 46.7351 46.8904 46.6325C47.3925 44.4832 47.8658 43.8016 48.1791 43.3505C48.4566 42.9507 48.7189 42.5731 48.7189 41.7421C48.7189 41.6339 48.6939 41.5271 48.6458 41.43C48.5978 41.333 48.528 41.2484 48.4418 41.1828C47.98 40.831 47.6513 40.561 47.4589 40.3754C47.7485 40.2521 48.1803 40.1126 48.357 40.0556C48.4979 40.0101 48.6208 39.9213 48.7082 39.802C48.7957 39.6826 48.8432 39.5386 48.8441 39.3906L48.8589 36.8746L50.6483 36.5369C50.8293 36.5027 50.9897 36.3989 51.0949 36.2477C51.2001 36.0966 51.2419 35.9102 51.2111 35.7286ZM48.0287 35.6002C47.8684 35.6304 47.7235 35.7155 47.619 35.8408C47.5145 35.9661 47.4569 36.1238 47.4559 36.2869L47.4407 38.8768C46.6406 39.1513 46.0074 39.455 45.8974 40.0981C45.7804 40.7827 46.3312 41.3247 47.2848 42.0671C47.2483 42.2249 47.1708 42.3366 47.0237 42.5484C46.6599 43.0723 46.1152 43.8567 45.5677 46.1155C44.9846 46.529 43.0779 46.0666 41.7918 45.7547C40.1897 45.3662 38.8061 45.0307 37.9078 45.4239C36.9287 45.8524 36.4394 46.5677 36.4532 47.5498C36.4639 48.3052 36.7673 49.1281 37.1186 50.081C37.4945 51.1006 37.9128 52.2349 38.0351 53.47L20.4272 53.5042C20.5679 53.0192 20.7673 52.4485 20.9852 51.8255C21.893 49.2281 23.2651 45.3031 22.9573 40.3938C22.9507 40.2896 22.9211 40.1882 22.8704 40.0969C22.8198 40.0056 22.7495 39.9267 22.6646 39.8659C17.1466 35.9186 14.8108 28.4304 16.9844 21.6561C19.026 15.2929 24.3661 11.4941 31.2692 11.4941C36.1955 11.4941 40.0021 12.9157 42.5833 15.7194C45.2673 18.6346 46.4594 22.9128 46.0307 28.0913C46.0291 28.1107 46.0284 28.13 46.0284 28.1493C46.0284 29.7439 46.8698 30.8052 47.7607 31.9287C48.5121 32.8763 49.2857 33.8518 49.6767 35.2892L48.0287 35.6002ZM41.9877 28.2778C41.5029 28.2774 41.0318 28.4382 40.6483 28.7348L39.4555 27.9373V26.3267H42.3025C42.489 26.3267 42.6678 26.2527 42.7997 26.1208C42.9316 25.9889 43.0056 25.8101 43.0056 25.6236V23.7611C43.0056 23.5746 42.9316 23.3958 42.7997 23.2639C42.6678 23.1321 42.489 23.058 42.3025 23.058H40.9935C40.7584 22.1502 40.3976 21.2797 39.9215 20.4718L40.8477 19.5457C40.913 19.4804 40.9647 19.4029 41.0001 19.3176C41.0354 19.2323 41.0536 19.1409 41.0536 19.0485C41.0536 18.9562 41.0354 18.8647 41.0001 18.7794C40.9647 18.6941 40.913 18.6166 40.8477 18.5513L38.2136 15.9172C38.1483 15.8519 38.0708 15.8001 37.9855 15.7648C37.9002 15.7295 37.8087 15.7113 37.7164 15.7113C37.624 15.7113 37.5326 15.7295 37.4473 15.7648C37.362 15.8001 37.2845 15.8519 37.2192 15.9172L36.293 16.8434C35.4851 16.3673 34.6146 16.0064 33.7068 15.7714V14.4623C33.7068 14.2758 33.6327 14.097 33.5009 13.9651C33.369 13.8332 33.1902 13.7592 33.0037 13.7592H29.2787C29.0922 13.7592 28.9134 13.8332 28.7815 13.9651C28.6497 14.097 28.5756 14.2758 28.5756 14.4623V15.7714C27.6678 16.0065 26.7973 16.3673 25.9894 16.8433L25.0633 15.9171C24.998 15.8519 24.9205 15.8001 24.8352 15.7647C24.7499 15.7294 24.6584 15.7112 24.5661 15.7112C24.4738 15.7112 24.3823 15.7294 24.297 15.7647C24.2117 15.8001 24.1342 15.8519 24.0689 15.9171L21.4349 18.5511C21.3696 18.6164 21.3178 18.6939 21.2825 18.7792C21.2471 18.8645 21.2289 18.9559 21.2289 19.0483C21.2289 19.1406 21.2471 19.232 21.2824 19.3173C21.3177 19.4026 21.3695 19.4802 21.4348 19.5454L22.3611 20.4717C21.8849 21.2796 21.524 22.15 21.289 23.0578H19.9799C19.7934 23.0578 19.6146 23.1319 19.4827 23.2638C19.3508 23.3956 19.2768 23.5745 19.2768 23.7609V25.6234C19.2768 25.8099 19.3508 25.9888 19.4827 26.1206C19.6146 26.2525 19.7934 26.3266 19.9799 26.3266H22.8269V27.9372L21.6341 28.7346C21.2506 28.438 20.7795 28.2773 20.2948 28.2776C19.0828 28.2776 18.0967 29.2637 18.0967 30.4757C18.0967 31.6877 19.0828 32.6737 20.2948 32.6737C21.5068 32.6737 22.4928 31.6877 22.4928 30.4757C22.4928 30.2776 22.466 30.0857 22.4166 29.903L23.9209 28.8975C24.017 28.8332 24.0958 28.7462 24.1503 28.6443C24.2048 28.5423 24.2333 28.4285 24.2333 28.3129V26.3266H26.2993V29.0361L25.1547 31.1255C25.0281 31.1029 24.8997 31.0914 24.7711 31.0913C23.5591 31.0913 22.573 32.0773 22.573 33.2893C22.573 34.5013 23.5591 35.4873 24.7711 35.4873C25.9832 35.4873 26.9692 34.5013 26.9692 33.2893C26.9692 32.716 26.7484 32.1935 26.3877 31.8018L27.6192 29.5538C27.6759 29.4503 27.7055 29.3341 27.7055 29.2161V26.3266H30.4382V31.2073C29.5701 31.5013 28.9433 32.3232 28.9433 33.2893C28.9433 34.5013 29.9294 35.4873 31.1414 35.4873C32.3534 35.4873 33.3394 34.5013 33.3394 33.2893C33.3394 32.3232 32.7126 31.5012 31.8445 31.2073V26.3266H34.5772V29.2161C34.5772 29.3341 34.6069 29.4503 34.6636 29.5538L35.895 31.8019C35.5343 32.1936 35.3135 32.716 35.3135 33.2893C35.3135 34.5013 36.2996 35.4873 37.5116 35.4873C38.7236 35.4873 39.7096 34.5013 39.7096 33.2893C39.7096 32.0772 38.7236 31.0913 37.5116 31.0913C37.3806 31.0913 37.2526 31.1034 37.128 31.1255L35.9834 29.0361V26.3266H38.0495V28.3129C38.0495 28.4285 38.078 28.5423 38.1325 28.6443C38.187 28.7462 38.2657 28.8332 38.3618 28.8975L39.866 29.903C39.8155 30.0897 39.7899 30.2823 39.7899 30.4757C39.7899 31.6877 40.7759 32.6737 41.9879 32.6737C43.2 32.6737 44.186 31.6877 44.186 30.4757C44.186 29.2637 43.1997 28.2778 41.9877 28.2778ZM20.2947 31.2677C19.8581 31.2677 19.5029 30.9124 19.5029 30.4759C19.5029 30.0393 19.8581 29.6841 20.2947 29.6841C20.7313 29.6841 21.0865 30.0393 21.0865 30.4759C21.0865 30.9124 20.7313 31.2677 20.2947 31.2677ZM24.7711 34.0812C24.3344 34.0812 23.9792 33.7261 23.9792 33.2894C23.9792 32.8529 24.3344 32.4976 24.7711 32.4976C25.2077 32.4976 25.5629 32.8529 25.5629 33.2894C25.5628 33.7261 25.2076 34.0812 24.7711 34.0812ZM31.1412 34.0812C30.7046 34.0812 30.3494 33.7261 30.3494 33.2894C30.3494 32.8529 30.7046 32.4976 31.1412 32.4976C31.5778 32.4976 31.933 32.8529 31.933 33.2894C31.933 33.7261 31.5778 34.0812 31.1412 34.0812ZM38.3032 33.2894C38.3032 33.7261 37.9481 34.0812 37.5114 34.0812C37.0748 34.0812 36.7196 33.7261 36.7196 33.2894C36.7196 32.8529 37.0748 32.4976 37.5114 32.4976C37.9481 32.4976 38.3032 32.853 38.3032 33.2894ZM20.683 24.4642H21.849C22.0117 24.4643 22.1693 24.4079 22.295 24.3047C22.4207 24.2016 22.5068 24.0581 22.5386 23.8986C22.7629 22.7738 23.2005 21.7181 23.8392 20.761C23.9294 20.6257 23.97 20.4634 23.954 20.3016C23.938 20.1398 23.8665 19.9885 23.7515 19.8735L22.9264 19.0484L24.5661 17.4087L25.3911 18.2338C25.5061 18.3488 25.6574 18.4204 25.8193 18.4363C25.9811 18.4523 26.1435 18.4117 26.2787 18.3214C27.2353 17.6829 28.2911 17.2454 29.4163 17.021C29.5757 16.9892 29.7193 16.9031 29.8224 16.7774C29.9255 16.6517 29.9819 16.4941 29.9819 16.3315V15.1654H32.3007V16.3315C32.3007 16.4941 32.3571 16.6517 32.4603 16.7775C32.5634 16.9032 32.707 16.9893 32.8665 17.0211C33.9912 17.2452 35.0469 17.6828 36.0041 18.3215C36.1394 18.4117 36.3017 18.4523 36.4635 18.4363C36.6254 18.4204 36.7766 18.3488 36.8916 18.2338L37.7166 17.4087L39.3563 19.0484L38.5313 19.8735C38.4163 19.9884 38.3447 20.1397 38.3288 20.3015C38.3128 20.4634 38.3534 20.6257 38.4437 20.761C39.0822 21.7176 39.5197 22.7732 39.7442 23.8986C39.776 24.0581 39.8621 24.2016 39.9878 24.3047C40.1136 24.4078 40.2712 24.4642 40.4338 24.4642H41.5996V24.9204H37.6099C37.2579 21.662 34.4918 19.1166 31.1415 19.1166C27.7911 19.1166 25.0249 21.662 24.6731 24.9204H20.683V24.4642ZM36.1924 24.9205H26.0901C26.4339 22.4397 28.5673 20.523 31.1413 20.523C33.7152 20.523 35.8486 22.4397 36.1924 24.9205ZM41.9877 31.2677C41.551 31.2677 41.1959 30.9124 41.1959 30.4759C41.1959 30.0393 41.551 29.6841 41.9877 29.6841C42.4243 29.6841 42.7795 30.0393 42.7795 30.4759C42.7795 30.9124 42.4243 31.2677 41.9877 31.2677Z" fill="#2B4DFF"/>
</svg>
