<svg width="65" height="65" viewBox="0 0 65 65" fill="none" xmlns="http://www.w3.org/2000/svg">
<rect width="65" height="65" rx="10" fill="#F5F6F7"/>
<g clip-path="url(#clip0_0_2102)">
<path fill-rule="evenodd" clip-rule="evenodd" d="M14.4065 20.4935C14.1633 20.5566 13.913 20.5885 13.6618 20.5883C12.0304 20.5883 10.7059 19.2638 10.7059 17.6324C10.7059 16.001 12.0304 14.6765 13.6618 14.6765C15.2931 14.6765 16.6176 16.001 16.6176 17.6324C16.6176 18.5645 16.1852 19.3965 15.5102 19.9384L16.3751 21.603H19.6622V14.3973C19.6622 12.3668 21.3235 10.7059 23.3511 10.7059H41.6464C43.6768 10.7059 45.3378 12.367 45.3378 14.3973V21.603H48.6249L49.4898 19.9384C48.8148 19.3965 48.3823 18.5645 48.3823 17.6324C48.3823 16.001 49.7068 14.6765 51.3382 14.6765C52.9696 14.6765 54.2941 16.001 54.2941 17.6324C54.2941 19.2638 52.9696 20.5883 51.3382 20.5883C51.081 20.5883 50.8314 20.5554 50.5934 20.4935L49.5481 22.5055C49.496 22.6058 49.4173 22.6899 49.3206 22.7486C49.224 22.8073 49.1131 22.8383 49 22.8383H45.3378V31.0442H48.4471C48.7314 29.7088 49.9186 28.7059 51.3382 28.7059C52.9696 28.7059 54.2941 30.0304 54.2941 31.6618C54.2941 33.2932 52.9696 34.6177 51.3382 34.6177C49.9186 34.6177 48.7314 33.6148 48.4471 32.2795H45.3378V40.4853H49C49.1131 40.4853 49.224 40.5164 49.3206 40.5751C49.4173 40.6338 49.496 40.7178 49.5481 40.8182L50.6137 42.869C50.8506 42.8094 51.094 42.7793 51.3382 42.7795C52.9696 42.7795 54.2941 44.104 54.2941 45.7353C54.2941 47.3667 52.9696 48.6912 51.3382 48.6912C49.7068 48.6912 48.3823 47.3667 48.3823 45.7353C48.3823 44.7957 48.8217 43.9579 49.506 43.4163L48.6249 41.7206H45.3378V50.6028C45.3378 52.6331 43.6768 54.2942 41.6464 54.2942H23.3511C21.3235 54.2942 19.6622 52.6333 19.6622 50.6028V41.7206H16.3751L15.494 43.4163C16.1783 43.9579 16.6176 44.7957 16.6176 45.7353C16.6176 47.3667 15.2931 48.6912 13.6618 48.6912C12.0304 48.6912 10.7059 47.3667 10.7059 45.7353C10.7059 44.104 12.0304 42.7795 13.6618 42.7795C13.9117 42.7795 14.1544 42.8105 14.3863 42.869L15.4519 40.8182C15.504 40.7178 15.5827 40.6338 15.6794 40.5751C15.776 40.5164 15.8869 40.4853 16 40.4853H19.6622V32.2795H16.5529C16.2686 33.6148 15.0814 34.6177 13.6618 34.6177C12.0304 34.6177 10.7059 33.2932 10.7059 31.6618C10.7059 30.0304 12.0304 28.7059 13.6618 28.7059C15.0814 28.7059 16.2686 29.7088 16.5529 31.0442H19.6622V22.8383H16C15.8869 22.8383 15.776 22.8073 15.6794 22.7486C15.5827 22.6899 15.504 22.6058 15.4519 22.5055L14.4065 20.4935ZM44.1025 50.6028V14.3973C44.1025 13.0464 42.9973 11.9412 41.6464 11.9412H23.3511C22.0023 11.9412 20.8975 13.0466 20.8975 14.3973V50.6028C20.8975 51.9536 22.0023 53.0589 23.3511 53.0589H41.6464C42.9973 53.0589 44.1025 51.9537 44.1025 50.6028ZM49.6176 31.6618C49.6176 32.6114 50.3886 33.3824 51.3382 33.3824C52.2878 33.3824 53.0588 32.6114 53.0588 31.6618C53.0588 30.7122 52.2878 29.9412 51.3382 29.9412C50.3886 29.9412 49.6176 30.7122 49.6176 31.6618ZM15.3823 31.6618C15.3823 30.7122 14.6113 29.9412 13.6618 29.9412C12.7122 29.9412 11.9412 30.7122 11.9412 31.6618C11.9412 32.6114 12.7122 33.3824 13.6618 33.3824C14.6113 33.3824 15.3823 32.6114 15.3823 31.6618ZM41.0533 33.7959C39.8002 33.7959 39.1711 35.3142 40.0573 36.2005C40.5328 36.676 40.5328 37.4494 40.0573 37.9248L38.763 39.2192C38.2876 39.6946 37.5141 39.6946 37.0386 39.2192C36.1524 38.3329 34.634 38.9621 34.634 40.2151C34.634 40.8903 34.0882 41.4339 33.4153 41.4339H31.5847C30.9118 41.4339 30.3659 40.8903 30.3659 40.2151C30.3659 38.9606 28.8483 38.3322 27.9613 39.2192C27.4856 39.6949 26.7138 39.6949 26.2382 39.2193L24.9426 37.9248C24.4672 37.4494 24.4672 36.676 24.9426 36.2005C25.8289 35.3142 25.2005 33.7959 23.9467 33.7959C23.2738 33.7959 22.7279 33.2501 22.7279 32.5771V30.7466C22.7279 30.0736 23.2738 29.5278 23.9467 29.5278C25.2005 29.5278 25.8289 28.0094 24.9426 27.1232C24.4669 26.6474 24.4669 25.8756 24.9426 25.3998L26.238 24.1045C26.7138 23.6287 27.4856 23.6287 27.9613 24.1045C28.8476 24.9907 30.3659 24.3623 30.3659 23.1086C30.3659 22.4356 30.9118 21.8898 31.5847 21.8898H33.4153C34.0882 21.8898 34.634 22.4356 34.634 23.1086C34.634 24.3623 36.1524 24.9907 37.0386 24.1045C37.5141 23.6291 38.2876 23.6291 38.763 24.1045L40.0573 25.3998C40.5331 25.8756 40.5331 26.6474 40.0573 27.1232C39.1711 28.0094 39.8002 29.5278 41.0533 29.5278C41.7284 29.5278 42.272 30.0736 42.272 30.7466V32.5771C42.272 33.2501 41.7284 33.7959 41.0533 33.7959ZM23.9632 30.763V32.5607C26.3002 32.5739 27.4703 35.4016 25.8274 37.0626L27.0997 38.3339C28.7623 36.6903 31.5879 37.8604 31.6011 40.1986H33.3988C33.4121 37.863 36.2398 36.6915 37.9008 38.3344L39.1726 37.0626C37.5297 35.4016 38.7012 32.5739 41.0368 32.5607V30.763C38.7013 30.7497 37.5298 27.9227 39.1721 26.2615L37.9008 24.9892C36.2398 26.6321 33.4121 25.4621 33.3988 23.1251H31.6011C31.5879 25.4618 28.7608 26.632 27.0997 24.9897L25.8279 26.2615C27.4701 27.9227 26.3 30.7497 23.9632 30.763ZM32.5005 36.6785C29.7372 36.6785 27.4843 34.4245 27.4843 31.6623C27.4843 28.899 29.7372 26.6462 32.5005 26.6462C35.2626 26.6462 37.5167 28.899 37.5167 31.6623C37.5167 34.4245 35.2626 36.6785 32.5005 36.6785ZM32.5005 35.4432C34.5824 35.4432 36.2814 33.7443 36.2814 31.6623C36.2814 29.5795 34.5824 27.8815 32.5005 27.8815C30.4177 27.8815 28.7196 29.5795 28.7196 31.6623C28.7196 33.7443 30.4177 35.4432 32.5005 35.4432ZM30.8293 50.0298C30.4884 50.0298 30.2116 49.7531 30.2116 49.4122C30.2116 49.0713 30.4884 48.7946 30.8293 48.7946H34.1707C34.5116 48.7946 34.7884 49.0713 34.7884 49.4122C34.7884 49.7531 34.5116 50.0298 34.1707 50.0298H30.8293ZM13.6618 44.0148C12.7122 44.0148 11.9412 44.7858 11.9412 45.7353C11.9412 46.6849 12.7122 47.4559 13.6618 47.4559C14.6113 47.4559 15.3823 46.6849 15.3823 45.7353C15.3823 44.7858 14.6113 44.0148 13.6618 44.0148ZM51.3382 15.9118C50.3886 15.9118 49.6176 16.6828 49.6176 17.6324C49.6176 18.582 50.3886 19.353 51.3382 19.353C52.2878 19.353 53.0588 18.582 53.0588 17.6324C53.0588 16.6828 52.2878 15.9118 51.3382 15.9118ZM51.3382 44.0148C50.3886 44.0148 49.6176 44.7858 49.6176 45.7353C49.6176 46.6849 50.3886 47.4559 51.3382 47.4559C52.2878 47.4559 53.0588 46.6849 53.0588 45.7353C53.0588 44.7858 52.2878 44.0148 51.3382 44.0148ZM13.6618 15.9118C12.7122 15.9118 11.9412 16.6828 11.9412 17.6324C11.9412 18.582 12.7122 19.353 13.6618 19.353C14.6113 19.353 15.3823 18.582 15.3823 17.6324C15.3823 16.6828 14.6113 15.9118 13.6618 15.9118Z" fill="#2B4DFF"/>
</g>
<defs>
<clipPath id="clip0_0_2102">
<rect width="45" height="45" fill="white" transform="translate(10 10)"/>
</clipPath>
</defs>
</svg>
