<svg width="65" height="65" viewBox="0 0 65 65" fill="none" xmlns="http://www.w3.org/2000/svg">
<rect width="65" height="65" rx="10" fill="#F5F6F7"/>
<path d="M25.9688 24.0625H34.4062V25.4688H25.9688V24.0625ZM35.8125 24.0625H37.2188V25.4688H35.8125V24.0625ZM38.625 24.0625H40.0312V25.4688H38.625V24.0625ZM25.9688 29.6875H34.4062V31.0938H25.9688V29.6875ZM35.8125 29.6875H37.2188V31.0938H35.8125V29.6875ZM38.625 29.6875H40.0312V31.0938H38.625V29.6875ZM25.9688 35.3125H34.4062V36.7188H25.9688V35.3125ZM35.8125 35.3125H37.2188V36.7188H35.8125V35.3125ZM38.625 35.3125H40.0312V36.7188H38.625V35.3125Z" fill="#2B4DFF"/>
<path d="M51.2812 40.2344C50.6579 40.2352 50.0524 40.4427 49.5596 40.8244C49.0668 41.2061 48.7145 41.7405 48.5578 42.3438H40.7344V39.5313C41.2936 39.5307 41.8298 39.3082 42.2252 38.9128C42.6207 38.5173 42.8431 37.9812 42.8438 37.4219V35.3126H47.0625C48.0339 35.3118 48.9946 35.1099 49.884 34.7194C50.7735 34.3288 51.5724 33.7583 52.2303 33.0436C52.8882 32.3289 53.3909 31.4857 53.7067 30.5671C54.0225 29.6484 54.1445 28.6743 54.0651 27.7062C53.9856 26.7381 53.7064 25.7969 53.2451 24.942C52.7837 24.0872 52.1503 23.3372 51.3846 22.7393C50.619 22.1415 49.7378 21.7088 48.7966 21.4685C47.8554 21.2283 46.8746 21.1856 45.9161 21.3433C45.2282 18.7486 43.7748 16.4212 41.7453 14.6643C39.7157 12.9075 37.204 11.8026 34.5375 11.4938C31.871 11.1849 29.1732 11.6864 26.7958 12.9327C24.4183 14.1791 22.4714 16.1127 21.2087 18.4815C20.9213 18.4523 20.6326 18.4376 20.3438 18.4376C18.106 18.4376 15.9599 19.3265 14.3775 20.9088C12.7952 22.4912 11.9063 24.6373 11.9062 26.8751C11.9063 29.1128 12.7952 31.2589 14.3775 32.8413C15.9599 34.4236 18.106 35.3126 20.3438 35.3126H23.1562V37.4219C23.1569 37.9812 23.3793 38.5173 23.7748 38.9128C24.1702 39.3082 24.7064 39.5307 25.2656 39.5313V42.3438H17.4422C17.2711 41.681 16.8641 41.1034 16.2975 40.7192C15.731 40.335 15.0437 40.1706 14.3646 40.2568C13.6856 40.3431 13.0612 40.6741 12.6087 41.1877C12.1562 41.7013 11.9065 42.3624 11.9065 43.0469C11.9065 43.7315 12.1562 44.3925 12.6087 44.9062C13.0612 45.4198 13.6856 45.7508 14.3646 45.837C15.0437 45.9233 15.731 45.7589 16.2975 45.3747C16.8641 44.9905 17.2711 44.4129 17.4422 43.7501H25.9688C26.1552 43.7501 26.3341 43.676 26.4659 43.5441C26.5978 43.4123 26.6719 43.2334 26.6719 43.0469V39.5313H28.0781V45.1563H22.4531C22.2666 45.1563 22.0878 45.2304 21.9559 45.3622C21.8241 45.4941 21.75 45.673 21.75 45.8594V48.0578C21.0872 48.229 20.5096 48.636 20.1254 49.2025C19.7412 49.7691 19.5768 50.4563 19.663 51.1354C19.7493 51.8145 20.0803 52.4388 20.5939 52.8913C21.1075 53.3439 21.7686 53.5935 22.4531 53.5935C23.1377 53.5935 23.7987 53.3439 24.3124 52.8913C24.826 52.4388 25.157 51.8145 25.2432 51.1354C25.3295 50.4563 25.1651 49.7691 24.7809 49.2025C24.3967 48.636 23.8191 48.229 23.1562 48.0578V46.5626H28.7812C28.9677 46.5626 29.1466 46.4885 29.2784 46.3566C29.4103 46.2248 29.4844 46.0459 29.4844 45.8594V39.5313H32.2969V46.6516C31.6341 46.8227 31.0564 47.2297 30.6722 47.7963C30.288 48.3628 30.1237 49.0501 30.2099 49.7292C30.2962 50.4083 30.6271 51.0326 31.1408 51.4851C31.6544 51.9376 32.3155 52.1873 33 52.1873C33.6845 52.1873 34.3456 51.9376 34.8592 51.4851C35.3729 51.0326 35.7038 50.4083 35.7901 49.7292C35.8763 49.0501 35.712 48.3628 35.3278 47.7963C34.9436 47.2297 34.3659 46.8227 33.7031 46.6516V39.5313H36.5156V45.8594C36.5156 46.0459 36.5897 46.2248 36.7216 46.3566C36.8534 46.4885 37.0323 46.5626 37.2188 46.5626H42.8438V48.0578C42.1809 48.229 41.6033 48.636 41.2191 49.2025C40.8349 49.7691 40.6705 50.4563 40.7568 51.1354C40.843 51.8145 41.174 52.4388 41.6876 52.8913C42.2013 53.3439 42.8623 53.5935 43.5469 53.5935C44.2314 53.5935 44.8925 53.3439 45.4061 52.8913C45.9197 52.4388 46.2507 51.8145 46.337 51.1354C46.4232 50.4563 46.2588 49.7691 45.8746 49.2025C45.4904 48.636 44.9128 48.229 44.25 48.0578V45.8594C44.25 45.673 44.1759 45.4941 44.0441 45.3622C43.9122 45.2304 43.7334 45.1563 43.5469 45.1563H37.9219V39.5313H39.3281V43.0469C39.3281 43.2334 39.4022 43.4123 39.5341 43.5441C39.6659 43.676 39.8448 43.7501 40.0312 43.7501H48.5578C48.6893 44.2594 48.961 44.7216 49.342 45.0842C49.7231 45.4469 50.1982 45.6954 50.7134 45.8016C51.2286 45.9077 51.7632 45.8673 52.2566 45.6848C52.7499 45.5023 53.1822 45.1852 53.5044 44.7693C53.8265 44.3535 54.0256 43.8556 54.079 43.3323C54.1323 42.809 54.0379 42.2813 53.8063 41.8089C53.5748 41.3366 53.2154 40.9387 52.7691 40.6604C52.3227 40.382 51.8073 40.2345 51.2812 40.2344ZM14.7188 44.4532C14.4406 44.4532 14.1687 44.3707 13.9375 44.2162C13.7062 44.0617 13.526 43.842 13.4195 43.5851C13.3131 43.3281 13.2853 43.0454 13.3395 42.7726C13.3938 42.4998 13.5277 42.2492 13.7244 42.0526C13.921 41.8559 14.1716 41.722 14.4444 41.6677C14.7172 41.6134 14.9999 41.6413 15.2569 41.7477C15.5139 41.8542 15.7335 42.0344 15.888 42.2657C16.0425 42.4969 16.125 42.7688 16.125 43.0469C16.1246 43.4198 15.9763 43.7772 15.7126 44.0408C15.449 44.3044 15.0916 44.4527 14.7188 44.4532ZM23.8594 50.7813C23.8594 51.0594 23.7769 51.3313 23.6224 51.5626C23.4679 51.7938 23.2482 51.9741 22.9913 52.0805C22.7343 52.1869 22.4516 52.2148 22.1788 52.1605C21.906 52.1063 21.6554 51.9723 21.4588 51.7757C21.2621 51.579 21.1282 51.3284 21.0739 51.0557C21.0196 50.7829 21.0475 50.5001 21.1539 50.2432C21.2604 49.9862 21.4406 49.7666 21.6719 49.612C21.9031 49.4575 22.175 49.3751 22.4531 49.3751C22.8259 49.3755 23.1834 49.5238 23.447 49.7874C23.7106 50.0511 23.8589 50.4085 23.8594 50.7813ZM34.4062 49.3751C34.4062 49.6532 34.3238 49.9251 34.1693 50.1563C34.0147 50.3876 33.7951 50.5678 33.5381 50.6743C33.2812 50.7807 32.9984 50.8085 32.7257 50.7543C32.4529 50.7 32.2023 50.5661 32.0056 50.3694C31.809 50.1728 31.675 49.9222 31.6208 49.6494C31.5665 49.3766 31.5944 49.0939 31.7008 48.8369C31.8072 48.5799 31.9875 48.3603 32.2187 48.2058C32.45 48.0513 32.7219 47.9688 33 47.9688C33.3728 47.9692 33.7303 48.1175 33.9939 48.3812C34.2575 48.6448 34.4058 49.0022 34.4062 49.3751ZM44.9531 50.7813C44.9531 51.0594 44.8707 51.3313 44.7161 51.5626C44.5616 51.7938 44.342 51.9741 44.085 52.0805C43.8281 52.1869 43.5453 52.2148 43.2725 52.1605C42.9997 52.1063 42.7492 51.9723 42.5525 51.7757C42.3558 51.579 42.2219 51.3284 42.1676 51.0557C42.1134 50.7829 42.1412 50.5001 42.2477 50.2432C42.3541 49.9862 42.5343 49.7666 42.7656 49.612C42.9969 49.4575 43.2687 49.3751 43.5469 49.3751C43.9197 49.3755 44.2771 49.5238 44.5408 49.7874C44.8044 50.0511 44.9527 50.4085 44.9531 50.7813ZM24.5625 26.1719V23.3594C24.5627 23.173 24.6369 22.9943 24.7687 22.8625C24.9005 22.7307 25.0792 22.6565 25.2656 22.6563H40.7344C40.9208 22.6565 41.0995 22.7307 41.2313 22.8625C41.3631 22.9943 41.4373 23.173 41.4375 23.3594V26.1719C41.4373 26.3583 41.3631 26.5371 41.2313 26.6689C41.0995 26.8007 40.9208 26.8748 40.7344 26.8751H25.2656C25.0792 26.8748 24.9005 26.8007 24.7687 26.6689C24.6369 26.5371 24.5627 26.3583 24.5625 26.1719ZM24.5625 31.7969V28.9844C24.5627 28.798 24.6369 28.6193 24.7687 28.4875C24.9005 28.3557 25.0792 28.2815 25.2656 28.2813H40.7344C40.9208 28.2815 41.0995 28.3557 41.2313 28.4875C41.3631 28.6193 41.4373 28.798 41.4375 28.9844V31.7969C41.4373 31.9833 41.3631 32.1621 41.2313 32.2939C41.0995 32.4257 40.9208 32.4998 40.7344 32.5001H25.2656C25.0792 32.4998 24.9005 32.4257 24.7687 32.2939C24.6369 32.1621 24.5627 31.9833 24.5625 31.7969ZM13.3125 26.8751C13.3146 25.0109 14.0561 23.2237 15.3742 21.9055C16.6924 20.5874 18.4796 19.8459 20.3438 19.8438C20.7294 19.8437 21.1145 19.875 21.4951 19.9373C21.6447 19.9621 21.7983 19.9378 21.9329 19.8681C22.0676 19.7984 22.1761 19.687 22.2422 19.5506C23.331 17.306 25.0946 15.4582 27.2861 14.266C29.4776 13.0738 31.9871 12.597 34.4631 12.9023C36.9391 13.2076 39.2575 14.2798 41.0937 15.9687C42.9299 17.6576 44.1918 19.8785 44.7026 22.3204C44.7222 22.4145 44.7608 22.5036 44.8162 22.5822C44.8715 22.6608 44.9424 22.7272 45.0245 22.7774C45.1065 22.8275 45.1979 22.8602 45.2931 22.8736C45.3883 22.887 45.4853 22.8808 45.5779 22.8552C46.3514 22.6439 47.161 22.6003 47.9527 22.7275C48.7443 22.8547 49.4996 23.1496 50.1679 23.5925C50.8362 24.0354 51.4021 24.6161 51.8277 25.2956C52.2533 25.9751 52.5287 26.7378 52.6354 27.5324C52.7422 28.327 52.6778 29.1353 52.4467 29.903C52.2155 30.6708 51.8229 31.3802 51.2952 31.9838C50.7674 32.5874 50.1167 33.0712 49.3867 33.4028C48.6567 33.7343 47.8643 33.906 47.0625 33.9063H42.7228C42.6307 33.6469 42.4887 33.4081 42.3049 33.2032C42.6521 32.8171 42.8441 32.3162 42.8438 31.7969V28.9844C42.8441 28.4652 42.6521 27.9642 42.3049 27.5782C42.6521 27.1921 42.8441 26.6912 42.8438 26.1719V23.3594C42.8431 22.8002 42.6207 22.264 42.2252 21.8686C41.8298 21.4732 41.2936 21.2507 40.7344 21.2501H25.2656C24.7064 21.2507 24.1702 21.4732 23.7748 21.8686C23.3793 22.264 23.1569 22.8002 23.1562 23.3594V26.1719C23.1559 26.6912 23.3479 27.1921 23.6951 27.5782C23.3479 27.9642 23.1559 28.4652 23.1562 28.9844V31.7969C23.1559 32.3162 23.3479 32.8171 23.6951 33.2032C23.5113 33.4081 23.3693 33.6469 23.2772 33.9063H20.3438C18.4796 33.9042 16.6924 33.1627 15.3742 31.8446C14.0561 30.5264 13.3146 28.7392 13.3125 26.8751ZM24.5625 37.4219V34.6094C24.5627 34.423 24.6369 34.2443 24.7687 34.1125C24.9005 33.9807 25.0792 33.9065 25.2656 33.9063H40.7344C40.9208 33.9065 41.0995 33.9807 41.2313 34.1125C41.3631 34.2443 41.4373 34.423 41.4375 34.6094V37.4219C41.4373 37.6083 41.3631 37.7871 41.2313 37.9189C41.0995 38.0507 40.9208 38.1248 40.7344 38.1251H25.2656C25.0792 38.1248 24.9005 38.0507 24.7687 37.9189C24.6369 37.7871 24.5627 37.6083 24.5625 37.4219ZM51.2812 44.4532C51.0031 44.4532 50.7312 44.3707 50.5 44.2162C50.2687 44.0617 50.0885 43.842 49.982 43.5851C49.8756 43.3281 49.8478 43.0454 49.902 42.7726C49.9563 42.4998 50.0902 42.2492 50.2869 42.0526C50.4835 41.8559 50.7341 41.722 51.0069 41.6677C51.2797 41.6134 51.5624 41.6413 51.8194 41.7477C52.0764 41.8542 52.296 42.0344 52.4505 42.2657C52.605 42.4969 52.6875 42.7688 52.6875 43.0469C52.6871 43.4198 52.5388 43.7772 52.2751 44.0408C52.0115 44.3044 51.6541 44.4527 51.2812 44.4532Z" fill="#2B4DFF"/>
</svg>
