<svg width="56" height="56" viewBox="0 0 56 56" fill="none" xmlns="http://www.w3.org/2000/svg">
<rect width="56" height="56" rx="28" fill="#2B4DFF"/>
<path d="M37.8906 19.5625H18.1094C16.9487 19.5625 16 20.507 16 21.6719V34.3281C16 35.4934 16.9493 36.4375 18.1094 36.4375H37.8906C39.0513 36.4375 40 35.493 40 34.3281V21.6719C40 20.5067 39.0509 19.5625 37.8906 19.5625ZM37.5667 20.9688L28.5449 30.02C28.27 30.2957 27.7301 30.2959 27.4551 30.02L18.4333 20.9688H37.5667ZM17.4062 34.0696V21.9304L23.4562 28L17.4062 34.0696ZM18.4333 35.0312L24.4489 28.996L26.4592 31.0128C27.283 31.8393 28.7174 31.8389 29.5409 31.0128L31.5511 28.996L37.5667 35.0312H18.4333ZM38.5938 34.0696L32.5438 28L38.5938 21.9304V34.0696Z" fill="white"/>
</svg>
