<svg width="40" height="40" viewBox="0 0 40 40" fill="none" xmlns="http://www.w3.org/2000/svg">
<path d="M8.25 28.2172C8.22375 30.0878 8.46375 31.0241 9.36562 32.5697C9.61375 32.9953 10.03 33.7078 10.8162 33.8685C10.9212 33.8897 11.0275 33.9003 11.1344 33.9003C11.9644 33.9003 12.8463 33.2535 13.7606 31.9722C14.1106 31.4816 14.2806 31.126 15.0244 29.0053L15.4262 27.8478C15.9731 26.2672 16.055 26.051 16.3862 25.681C16.7281 25.301 16.9819 25.1672 17.3031 24.9991C17.6087 24.8391 17.9556 24.6566 18.3844 24.2547C19.8456 22.8853 20.0481 21.3328 19.4 20.6222C19.0513 20.2403 18.0394 20.0835 17.2625 20.1535L16.7188 20.2041C16.2769 20.246 15.8212 20.2891 15.6494 20.2735C15.5469 20.1516 15.5462 19.8966 15.5538 19.5116C15.565 18.9428 15.58 18.1635 14.9913 17.5191C14.4956 16.9753 13.7894 16.7597 13.4125 16.6797C12.8844 16.5678 12.4806 16.6228 12.1275 16.6741C12.0744 16.6591 11.9275 16.5291 11.82 16.4335C11.415 16.0747 10.8038 15.5322 9.53625 15.2485C7.65188 14.826 6.63062 15.3891 5.80875 15.8403C5.30125 16.1191 4.91313 16.3772 4.43062 16.8747C3.86063 17.4635 2.90625 18.4491 2.71937 19.9935L2.69875 20.131C2.60687 20.7166 2.3625 22.2716 3.58625 23.2628C4.5775 24.0653 5.40625 24.2485 6.13812 24.4091C6.68125 24.5291 7.15 24.6316 7.62937 24.9853C8.62 25.7147 8.43375 26.901 8.31125 27.686C8.28062 27.8617 8.26017 28.0391 8.25 28.2172ZM8.18625 24.231C7.54687 23.7603 6.93375 23.6253 6.34125 23.4947C5.64937 23.3422 4.99687 23.1985 4.1775 22.5353C3.37375 21.8847 3.54437 20.7991 3.62625 20.2778L3.65125 20.1072C3.8 18.8753 4.55437 18.0966 5.10562 17.5278C5.50688 17.1135 5.82125 16.9041 6.26125 16.6628C6.8225 16.3547 7.39812 16.0385 8.28813 16.0385C8.595 16.0385 8.93875 16.076 9.3325 16.1641C10.3638 16.3947 10.8462 16.8235 11.1987 17.136C11.49 17.3941 11.7912 17.6597 12.3144 17.5928C12.5656 17.5578 12.8494 17.5191 13.2188 17.5972C13.6725 17.6935 14.0662 17.8953 14.2987 18.151L14.2994 18.1516C14.6356 18.5197 14.6262 18.9928 14.6169 19.4941C14.6062 20.041 14.5944 20.6616 15.1237 21.0585C15.4069 21.2703 15.8175 21.2322 16.8081 21.1372L17.3463 21.0872C18.0506 21.0228 18.6206 21.1953 18.7087 21.2541C18.9513 21.5197 18.8337 22.5497 17.7437 23.571C17.4075 23.886 17.145 24.0235 16.8681 24.1691C16.5119 24.356 16.1438 24.5491 15.6894 25.0553C15.2188 25.5803 15.0888 25.9572 14.5413 27.5416L14.14 28.6953C13.42 30.7485 13.2713 31.0453 12.9981 31.4272C11.9131 32.9472 11.2406 32.9966 11.0038 32.9491C10.6281 32.8728 10.3669 32.4241 10.1756 32.096C9.425 30.8097 9.16313 30.0316 9.18813 28.2297C9.18937 28.1316 9.21312 27.9953 9.23875 27.8316C9.3775 26.9466 9.63562 25.2978 8.18625 24.231ZM16.9613 32.0628C17.0319 32.0785 17.1094 32.0785 17.18 32.0785C17.5863 32.0785 18.0238 31.891 18.4769 31.5003C18.9613 31.0785 19.1094 30.6178 19.2969 30.0316C19.3988 29.7191 19.4219 29.5785 19.4375 29.446C19.445 29.3678 19.4606 29.2897 19.5156 29.1335C19.6175 28.8366 19.7269 28.6647 19.8281 28.501C19.9606 28.2822 20.1013 28.056 20.1719 27.6728C20.3519 26.6178 19.9144 26.306 19.6331 26.2122C19.1488 26.056 18.6488 26.3916 18.1644 26.7197C17.6956 27.0403 17.1562 27.3991 16.9144 28.0085C16.7975 28.2972 16.7894 28.5316 16.7894 28.7041C16.7812 28.8835 16.7812 28.9616 16.6719 29.126C16.6488 29.1687 16.6169 29.206 16.5781 29.2353C16.5081 29.3053 16.43 29.3835 16.3281 29.5322C16.2113 29.696 15.9062 30.1416 15.9062 30.6803C15.9062 30.8285 15.9219 30.9772 15.9762 31.1335C16.2188 31.8285 16.6956 32.016 16.9613 32.0628ZM17.0938 30.0628C17.1273 30.0093 17.1695 29.9618 17.2188 29.9222C17.2738 29.8753 17.3512 29.7972 17.4531 29.6485C17.7188 29.2578 17.7188 28.9453 17.7269 28.7191C17.7269 28.5866 17.7269 28.4847 17.7812 28.3597C17.9219 28.016 18.2812 27.7741 18.6956 27.4922C18.8675 27.3753 19.1331 27.1953 19.2738 27.1328C19.2819 27.211 19.2738 27.336 19.25 27.5153C19.2113 27.7185 19.1481 27.8203 19.0312 28.0072C18.9137 28.1947 18.7656 28.4291 18.6325 28.8197C18.5469 29.0697 18.5306 29.1872 18.5075 29.3197C18.4919 29.4135 18.4837 29.5147 18.4056 29.7416C18.2256 30.2966 18.14 30.5541 17.8587 30.7885C17.4444 31.1478 17.21 31.1553 17.1244 31.1403C17.015 31.1166 16.9294 31.0153 16.8662 30.8278C16.7656 30.5391 17.0081 30.1953 17.0938 30.0628ZM0.479375 32.2516H0.47C0.347287 32.2516 0.229458 32.2035 0.141815 32.1176C0.0541716 32.0317 0.00370425 31.9149 0.00125 31.7922L0 31.6672C0 31.1491 0.07375 30.626 0.22 30.1116C0.254064 29.992 0.334242 29.8908 0.442896 29.8304C0.551549 29.7699 0.679779 29.755 0.799375 29.7891C0.918971 29.8232 1.02014 29.9033 1.08062 30.012C1.1411 30.1206 1.15594 30.2489 1.12187 30.3685C1.00054 30.7908 0.938484 31.2278 0.9375 31.6672L0.93875 31.7741C0.941094 31.8983 0.894026 32.0184 0.807889 32.1079C0.721752 32.1975 0.603593 32.2491 0.479375 32.2516ZM2.31562 34.9622C2.39599 35.0531 2.43807 35.1715 2.43305 35.2927C2.42804 35.4138 2.37631 35.5284 2.28871 35.6122C2.20111 35.6961 2.08444 35.7428 1.96316 35.7426C1.84188 35.7424 1.72539 35.6952 1.63813 35.611C1.24698 35.2044 0.913643 34.7459 0.6475 34.2485C0.618485 34.1941 0.600496 34.1346 0.594565 34.0733C0.588635 34.012 0.59488 33.9501 0.612943 33.8912C0.631006 33.8323 0.66053 33.7776 0.699818 33.7301C0.739106 33.6827 0.787383 33.6434 0.841875 33.6147C0.951725 33.5566 1.08013 33.5445 1.19893 33.5809C1.31773 33.6173 1.41723 33.6994 1.47563 33.8091C1.70092 34.2305 1.98362 34.6186 2.31562 34.9622ZM9.63188 37.7166C9.6349 37.8408 9.58847 37.9612 9.5028 38.0512C9.41713 38.1412 9.29922 38.1935 9.175 38.1966C8.63682 38.209 8.09836 38.1929 7.56187 38.1485C7.30375 38.1266 7.11312 37.8991 7.13562 37.641C7.15812 37.3828 7.37375 37.1853 7.64313 37.2147C8.12313 37.256 8.62562 37.2728 9.15063 37.2597C9.39375 37.2447 9.62563 37.4572 9.63188 37.7166ZM5.75375 37.3822C5.71712 37.5008 5.63504 37.6002 5.52543 37.6585C5.41583 37.7168 5.2876 37.7294 5.16875 37.6935C4.64366 37.5344 4.13357 37.3294 3.64437 37.081C3.53365 37.0243 3.44997 36.9259 3.41176 36.8075C3.37355 36.6892 3.38393 36.5604 3.44063 36.4497C3.49732 36.339 3.59567 36.2553 3.71405 36.2171C3.83243 36.1789 3.96115 36.1893 4.07188 36.246C4.495 36.4628 4.95625 36.6478 5.44312 36.796C5.56183 36.8329 5.66111 36.9152 5.71931 37.025C5.77751 37.1349 5.78989 37.2633 5.75375 37.3822ZM18.4406 35.1972C18.3848 35.0862 18.3753 34.9575 18.4143 34.8394C18.4534 34.7214 18.5377 34.6237 18.6488 34.5678C19.1084 34.337 19.5628 34.0961 20.0119 33.8453C20.1205 33.7849 20.2487 33.7701 20.3683 33.8042C20.4878 33.8384 20.589 33.9186 20.6494 34.0272C20.7098 34.1359 20.7246 34.2641 20.6905 34.3836C20.6564 34.5032 20.5762 34.6043 20.4675 34.6647C19.9944 34.9278 19.5281 35.1741 19.0688 35.4053C19.0139 35.4331 18.9541 35.4497 18.8927 35.4542C18.8314 35.4587 18.7698 35.4511 18.7115 35.4318C18.6531 35.4124 18.5991 35.3818 18.5526 35.3415C18.5062 35.3013 18.4681 35.2522 18.4406 35.1972ZM23.9456 31.9335C24.0156 32.0362 24.0418 32.1626 24.0186 32.2847C23.9954 32.4069 23.9246 32.5148 23.8219 32.5847C23.3769 32.8878 22.9381 33.176 22.5037 33.4522C22.4518 33.4852 22.3938 33.5076 22.3331 33.5181C22.2725 33.5287 22.2104 33.5272 22.1503 33.5137C22.0902 33.5002 22.0334 33.4751 21.983 33.4396C21.9327 33.4042 21.8898 33.3592 21.8569 33.3072C21.8239 33.2552 21.8015 33.1972 21.791 33.1366C21.7804 33.076 21.7819 33.0138 21.7954 32.9538C21.8089 32.8937 21.834 32.8369 21.8695 32.7865C21.9049 32.7362 21.9499 32.6933 22.0019 32.6603C22.4373 32.3839 22.8682 32.1003 23.2944 31.8097C23.3971 31.7398 23.5235 31.7135 23.6456 31.7367C23.7678 31.7599 23.8757 31.8307 23.9456 31.9335ZM39.7456 23.2478C39.6198 23.0234 39.4508 22.8262 39.2482 22.6677C39.0457 22.5091 38.8137 22.3923 38.5656 22.3241C38.1405 22.2073 37.6882 22.2393 37.2837 22.4147C37.4694 21.0072 37.5006 19.5735 37.3587 18.136C36.5062 9.52972 29.6419 2.66534 21.0369 1.81284C15.5219 1.26784 10.1363 3.18472 6.2475 7.07409C2.35875 10.9635 0.44125 16.3541 0.98625 21.8628C1.16096 23.5902 1.58407 25.2833 2.2425 26.8897C1.92065 27.1968 1.6229 27.5282 1.35188 27.881C1.28115 27.9804 1.252 28.1035 1.27062 28.2241C1.28924 28.3447 1.35416 28.4533 1.45158 28.5268C1.54901 28.6003 1.67125 28.6329 1.79233 28.6177C1.91342 28.6025 2.02379 28.5407 2.1 28.4453C2.26187 28.2303 2.445 28.021 2.63937 27.8153C4.5855 31.9168 7.98553 35.1493 12.18 36.886C11.9256 36.9385 11.6687 37.001 11.4181 37.0422C11.2992 37.0663 11.1943 37.1357 11.1254 37.2356C11.0565 37.3355 11.0291 37.4582 11.0488 37.5779C11.0686 37.6976 11.134 37.805 11.2313 37.8775C11.3286 37.95 11.4503 37.9819 11.5706 37.9666C12.0964 37.88 12.6187 37.773 13.1362 37.646C13.209 37.6272 13.276 37.5909 13.3315 37.5403C13.387 37.4896 13.4292 37.4261 13.4544 37.3553C14.6894 37.7603 15.9744 38.0528 17.3088 38.1853C17.9406 38.2478 18.5688 38.2791 19.1925 38.2791C23.7 38.2791 27.9606 36.6616 31.3519 33.6291C31.4443 33.5459 31.5 33.4296 31.5069 33.3054C31.5138 33.1813 31.4714 33.0595 31.3888 32.9666C31.3055 32.8743 31.1892 32.8187 31.0651 32.8118C30.941 32.8049 30.8192 32.8473 30.7262 32.9297C27.065 36.2047 22.3319 37.7353 17.4006 37.2522C16.7565 37.1841 16.1167 37.0796 15.4844 36.9391C15.9635 36.7704 16.438 36.5891 16.9075 36.3953C16.9644 36.3718 17.0161 36.3373 17.0596 36.2937C17.1031 36.2502 17.1377 36.1985 17.1612 36.1416C17.1848 36.0848 17.1969 36.0238 17.1969 35.9622C17.1969 35.9007 17.1848 35.8397 17.1613 35.7828C17.1377 35.726 17.1032 35.6743 17.0596 35.6307C17.0161 35.5872 16.9644 35.5527 16.9076 35.5291C16.8507 35.5056 16.7897 35.4934 16.7282 35.4934C16.6666 35.4934 16.6056 35.5055 16.5487 35.5291C16.0613 35.731 15.5831 35.9135 15.1144 36.0778C15.0449 36.1022 14.9822 36.1426 14.9313 36.1958C14.8803 36.2489 14.8426 36.3133 14.8212 36.3837C14.7998 36.4541 14.7953 36.5286 14.808 36.6011C14.8207 36.6736 14.8503 36.742 14.8944 36.801C7.94 35.0453 2.64313 29.0766 1.91938 21.7703C1.40125 16.5422 3.22062 11.4272 6.91 7.73722C10.6006 4.04722 15.725 2.22972 20.9437 2.74597C27.5612 3.40097 33.0919 7.80534 35.38 13.7985C34.8931 14.3097 34.485 14.971 34.1231 15.5722C33.5944 16.4528 33.4587 17.1078 33.3394 17.6866C33.2562 18.0866 33.1844 18.4322 32.9837 18.7972C32.3988 19.8572 31.0138 20.4447 30.7713 20.3772C30.7688 20.3747 30.525 20.0947 30.3919 18.5872C30.3219 17.8122 30.175 16.201 29.2556 14.7872C29.0669 14.4941 28.9656 14.1766 28.8681 13.8697C28.7131 13.3816 28.5525 12.8772 28.0625 12.5228C27.5519 12.1553 27.0725 12.0672 26.5644 11.9741C26.045 11.8791 25.4569 11.7716 24.6081 11.3372C24.2381 11.1497 23.9062 10.9766 23.6044 10.8197C21.9319 9.94909 21.0912 9.51347 20.0606 9.85659C19.3862 10.0891 18.6431 10.676 18.6056 11.4235C18.57 12.491 20.0331 13.2278 21.2025 13.8178C21.4431 13.9428 22.6606 14.3678 23.3044 14.2366L23.3838 14.221C23.6363 14.1697 23.9825 14.1003 24.4475 14.1597C24.5719 14.1747 24.7131 14.1916 24.7344 14.1966C24.8388 14.3128 24.9862 15.0235 24.7137 16.0153C24.5138 16.7422 23.9663 18.0278 22.5456 18.4685C20.9888 18.9485 20.6469 18.7085 20.5825 18.6272C20.4546 18.4726 20.3164 18.3268 20.1688 18.191C19.995 18.0235 19.815 17.8503 19.6619 17.6353C18.9269 16.6203 18.1569 16.3228 17.6962 16.1447C17.5906 16.1041 17.4463 16.0485 17.4088 16.0172C17.1806 15.8297 17.1187 15.6103 17.0212 15.206C16.9779 15.0146 16.9247 14.8256 16.8619 14.6397C16.3156 13.1372 14.7319 12.1191 13.4931 11.8091C12.7219 11.6116 11.9862 11.9028 11.2069 12.2103C10.8763 12.3403 10.535 12.4741 10.1844 12.5728C9.37813 12.7997 8.35 12.9691 8.01562 12.4628C7.785 12.1253 7.90562 11.1585 8.22062 10.8203C8.57438 10.441 9.27063 10.0935 9.99375 9.93472C10.595 9.80284 11.3431 9.63847 11.7281 8.96284C12.0712 8.36034 12.0413 7.50409 11.6337 6.26909C11.5971 6.16021 11.5701 6.04832 11.5531 5.93472C11.5443 5.87378 11.5236 5.81517 11.4921 5.76224C11.4606 5.70932 11.419 5.66311 11.3697 5.62625C11.2701 5.55183 11.145 5.52002 11.0219 5.53784C10.9609 5.54666 10.9023 5.56741 10.8494 5.59888C10.7965 5.63035 10.7503 5.67194 10.7134 5.72127C10.639 5.8209 10.6072 5.94601 10.625 6.06909C10.6475 6.22597 10.6862 6.38972 10.7431 6.56222C11.0487 7.48847 11.1075 8.15847 10.9137 8.49909C10.7475 8.79097 10.3619 8.89472 9.79313 9.01972C8.86875 9.22222 8.025 9.65659 7.535 10.181C6.91437 10.8472 6.76312 12.2916 7.24625 12.9991C7.76062 13.7797 8.80562 13.9353 10.4381 13.476C10.8344 13.3641 11.1975 13.221 11.5494 13.0828C12.2125 12.8222 12.7875 12.5966 13.2638 12.7185C14.3031 12.9785 15.5706 13.8322 15.9788 14.9553C16.0356 15.1178 16.0731 15.2753 16.1094 15.4266C16.2137 15.8585 16.3319 16.3478 16.8125 16.7416C16.9662 16.8685 17.1475 16.9385 17.3581 17.0197C17.7681 17.1778 18.33 17.3947 18.8994 18.1816C19.1012 18.4653 19.3225 18.6785 19.5181 18.8666C19.6388 18.9828 19.7531 19.0897 19.8463 19.2091C20.4575 19.9703 21.7556 19.691 22.8219 19.3641C25.0869 18.6616 25.6281 16.3853 25.7394 15.7047C25.8769 14.8685 25.8325 13.836 25.305 13.4547C25.0962 13.2941 24.8706 13.2672 24.5556 13.2291C23.9494 13.151 23.4781 13.2453 23.1213 13.3178C22.7994 13.3835 21.8375 13.0922 21.6287 12.9847C20.9994 12.6672 19.5256 11.9247 19.5413 11.4641C19.5525 11.2316 19.945 10.8885 20.36 10.746C20.9794 10.5397 21.5288 10.7991 23.1706 11.6528C23.475 11.811 23.81 11.9853 24.1812 12.1741C25.1506 12.6703 25.8406 12.7966 26.3944 12.8978C26.8644 12.9835 27.175 13.0403 27.5131 13.2841C27.7412 13.4491 27.8325 13.7091 27.975 14.1547C28.0856 14.5028 28.2106 14.8972 28.4681 15.2966C29.2625 16.5178 29.3944 17.9728 29.4594 18.691C29.6256 20.576 29.985 21.0066 30.2794 21.171C30.4256 21.2528 30.5981 21.2941 30.7956 21.2941C30.9587 21.2941 31.1388 21.266 31.335 21.2103C32.1531 20.9772 33.2631 20.2291 33.8037 19.2497C34.0731 18.7603 34.1663 18.311 34.2563 17.876C34.3656 17.3466 34.4787 16.7991 34.9263 16.0547C35.1706 15.6478 35.4381 15.2128 35.725 14.8347C36.0729 15.9393 36.3076 17.0764 36.4256 18.2285C36.5818 19.8101 36.5237 21.4055 36.2531 22.9716L33.9088 24.2953L29.7394 21.7153C29.2619 21.4195 28.7137 21.2575 28.1522 21.2463C27.5906 21.2351 27.0364 21.3751 26.5475 21.6516C26.3924 21.7388 26.2612 21.8627 26.1653 22.0125C26.0694 22.1624 26.0118 22.3335 25.9976 22.5108C25.9834 22.6881 26.013 22.8662 26.0838 23.0294C26.1547 23.1926 26.2645 23.3359 26.4037 23.4466L30.1362 26.426L26.5625 28.4441L25.8231 27.8835C25.6543 27.7553 25.4516 27.6794 25.2401 27.6652C25.0286 27.651 24.8176 27.699 24.6331 27.8035L23.8806 28.2285C23.7322 28.311 23.6055 28.4275 23.511 28.5686C23.4165 28.7096 23.3568 28.8711 23.3369 29.0397C23.2944 29.3853 23.4138 29.721 23.6663 29.9616L25.2288 31.4478L25.6931 33.5528C25.7688 33.8928 25.9944 34.1691 26.3125 34.3103C26.6312 34.4516 26.9869 34.4353 27.2881 34.2641L28.0406 33.8391C28.2254 33.7347 28.3756 33.5786 28.4726 33.3899C28.5697 33.2012 28.6094 32.9882 28.5869 32.7772L28.4875 31.8553L32.0619 29.8366L32.6862 34.5722C32.7091 34.7485 32.775 34.9164 32.8781 35.0613C32.9811 35.2061 33.1182 35.3234 33.2772 35.4028C33.4363 35.4822 33.6124 35.5212 33.7901 35.5166C33.9678 35.5119 34.1416 35.4636 34.2962 35.376C34.7855 35.1001 35.1916 34.6978 35.472 34.2111C35.7524 33.7244 35.8967 33.1713 35.89 32.6097L35.8337 27.7066L39.0031 25.9172C39.2275 25.7915 39.4246 25.6224 39.5831 25.4198C39.7415 25.2173 39.8582 24.9852 39.9263 24.7372C39.9966 24.4894 40.0168 24.2301 39.9858 23.9744C39.9548 23.7186 39.8731 23.4717 39.7456 23.2478ZM39.0244 24.4847C38.9519 24.7472 38.7812 24.9653 38.5437 25.0997L35.1325 27.0253C35.0593 27.0666 34.9986 27.1267 34.9566 27.1995C34.9147 27.2723 34.8932 27.3551 34.8944 27.4391L34.9544 32.6191C34.9589 33.0128 34.8576 33.4006 34.661 33.7417C34.4645 34.0829 34.1798 34.365 33.8369 34.5585C33.8157 34.5703 33.792 34.5768 33.7677 34.5773C33.7435 34.5779 33.7195 34.5725 33.6978 34.5617C33.6761 34.5508 33.6574 34.5348 33.6433 34.5151C33.6292 34.4954 33.6201 34.4725 33.6169 34.4485L32.9019 29.0247C32.8919 28.9487 32.8634 28.8762 32.819 28.8137C32.7745 28.7512 32.7153 28.7006 32.6467 28.6663C32.5781 28.632 32.5021 28.615 32.4254 28.6169C32.3487 28.6188 32.2737 28.6395 32.2069 28.6772L27.76 31.1885C27.6802 31.2336 27.6154 31.3011 27.5735 31.3826C27.5317 31.4641 27.5146 31.5561 27.5244 31.6472L27.6562 32.8747C27.6594 32.9037 27.6539 32.9329 27.6406 32.9588C27.6273 32.9847 27.6066 33.0061 27.5813 33.0203L26.8287 33.4453C26.8086 33.457 26.7859 33.4636 26.7627 33.4648C26.7395 33.466 26.7163 33.4617 26.695 33.4522C26.6734 33.443 26.6543 33.4287 26.6394 33.4106C26.6245 33.3924 26.6142 33.3709 26.6094 33.3478L26.1138 31.1035C26.0936 31.0124 26.0466 30.9294 25.9788 30.8653L24.3131 29.281C24.2959 29.2651 24.2827 29.2452 24.2747 29.2231C24.2668 29.201 24.2643 29.1774 24.2675 29.1541C24.2702 29.131 24.2784 29.1089 24.2915 29.0896C24.3045 29.0704 24.322 29.0545 24.3425 29.0435L25.095 28.6185C25.1202 28.604 25.1491 28.5972 25.1782 28.5991C25.2072 28.601 25.235 28.6114 25.2581 28.6291L26.2412 29.376C26.3913 29.4897 26.5931 29.5016 26.7556 29.411L31.2025 26.9003C31.2694 26.8628 31.3259 26.8093 31.3671 26.7447C31.4083 26.68 31.4329 26.6062 31.4387 26.5297C31.4452 26.4532 31.4327 26.3763 31.4021 26.3058C31.3716 26.2353 31.324 26.1735 31.2638 26.126L26.9881 22.7128C26.9689 22.6978 26.9538 22.6782 26.9441 22.6558C26.9344 22.6334 26.9304 22.609 26.9325 22.5847C26.9342 22.5604 26.9421 22.5368 26.9553 22.5163C26.9685 22.4958 26.9867 22.4789 27.0081 22.4672C27.3509 22.2733 27.7395 22.175 28.1333 22.1828C28.527 22.1907 28.9114 22.3042 29.2463 22.5116L33.6512 25.2378C33.7224 25.2824 33.8043 25.3069 33.8883 25.3086C33.9723 25.3104 34.0551 25.2894 34.1281 25.2478L37.5381 23.3216C37.6547 23.2555 37.7832 23.2132 37.9162 23.197C38.0492 23.1808 38.1841 23.191 38.3131 23.2272C38.5756 23.3003 38.7938 23.4716 38.9281 23.7085C39.0638 23.946 39.0975 24.221 39.0244 24.4847Z" fill="white"/>
</svg>
