<svg width="60" height="60" viewBox="0 0 60 60" fill="none" xmlns="http://www.w3.org/2000/svg">
<path d="M24.3517 8.4375H1.75781C0.786896 8.4375 0 9.2244 0 10.1953V32.7892C0 33.7601 0.786896 34.547 1.75781 34.547H11.2967V49.7346C11.2967 50.7051 12.0836 51.4925 13.0545 51.4925H18.7033C19.4595 51.4925 20.1315 51.0081 20.3705 50.2904L26.0188 33.3453C26.0788 33.1659 26.1095 32.9782 26.1095 32.7892V10.1953C26.1095 9.2244 25.3226 8.4375 24.3517 8.4375ZM22.5938 32.504L17.4362 47.9764H14.8123V32.7892C14.8123 31.8182 14.0254 31.0313 13.0545 31.0313H3.51562V11.9531H22.5938V32.504Z" fill="#585B6F" fill-opacity="0.2"/>
<path d="M58.2422 8.4375H35.6483C34.6774 8.4375 33.8905 9.2244 33.8905 10.1953V32.7892C33.8905 33.7601 34.6774 34.547 35.6483 34.547H45.1877V49.7346C45.1877 50.7051 45.9745 51.4925 46.9455 51.4925H52.5938C53.3505 51.4925 54.022 51.0081 54.2614 50.2904L59.9098 33.3453C59.9693 33.1659 60 32.9782 60 32.7892V10.1953C60 9.2244 59.2131 8.4375 58.2422 8.4375ZM56.4843 32.504L51.3267 47.9764H48.7033V32.7892C48.7033 31.8182 47.9159 31.0313 46.9455 31.0313H37.4061V11.9531H56.4843V32.504Z" fill="#585B6F" fill-opacity="0.2"/>
</svg>
