<svg width="40" height="40" viewBox="0 0 40 40" fill="none" xmlns="http://www.w3.org/2000/svg">
<path d="M22.7971 30.9839H17.2034C16.9159 30.9839 16.6825 30.7505 16.6825 30.463V26.0118H12.2309C11.9434 26.0118 11.71 25.7785 11.71 25.491V19.8972C11.71 19.6097 11.9434 19.3764 12.2309 19.3764H16.6825V14.9251C16.6825 14.6376 16.9159 14.4043 17.2034 14.4043H22.7971C23.0846 14.4043 23.3179 14.6376 23.3179 14.9251V19.3764H27.7692C28.0567 19.3764 28.29 19.6097 28.29 19.8972V25.491C28.29 25.7785 28.0567 26.0118 27.7692 26.0118H23.3179V30.4635C23.3179 30.751 23.0846 30.9839 22.7971 30.9839ZM17.7242 29.9422H22.2763V25.491C22.2763 25.2035 22.5096 24.9701 22.7971 24.9701H27.2484V20.418H22.7971C22.5096 20.418 22.2763 20.1847 22.2763 19.8972V15.446H17.7242V19.8972C17.7242 20.1847 17.4909 20.418 17.2034 20.418H12.7517V24.9701H17.2034C17.4909 24.9701 17.7242 25.2035 17.7242 25.491V29.9422Z" fill="white"/>
<path d="M8.29664 11.7175H6.84206C5.92789 11.7175 5.18414 10.9738 5.18414 10.0592V9.22669C5.18414 8.31211 5.92789 7.56836 6.84206 7.56836H8.29664C9.21081 7.56836 9.95456 8.31211 9.95456 9.22669V10.0592C9.95498 10.9738 9.21081 11.7175 8.29664 11.7175ZM6.84206 8.60961C6.50206 8.60961 6.22581 8.88628 6.22581 9.22628V10.0588C6.22581 10.3988 6.50248 10.6754 6.84206 10.6754H8.29664C8.63664 10.6754 8.91289 10.3988 8.91289 10.0588V9.22628C8.91289 8.88628 8.63623 8.60961 8.29664 8.60961H6.84206Z" fill="white"/>
<path d="M33.1575 11.7175H31.7033C30.7892 11.7175 30.0454 10.9738 30.0454 10.0592V9.22669C30.0454 8.31211 30.7892 7.56836 31.7033 7.56836H33.1575C34.0721 7.56836 34.8158 8.31211 34.8158 9.22669V10.0592C34.8162 10.9738 34.0721 11.7175 33.1575 11.7175ZM31.7033 8.60961C31.3637 8.60961 31.0871 8.88628 31.0871 9.22628V10.0588C31.0871 10.3988 31.3637 10.6754 31.7033 10.6754H33.1575C33.4975 10.6754 33.7742 10.3988 33.7742 10.0588V9.22628C33.7742 8.88628 33.4975 8.60961 33.1575 8.60961H31.7033Z" fill="white"/>
<path d="M8.29664 39.0638H6.84206C5.92789 39.0638 5.18414 38.32 5.18414 37.4059V36.573C5.18414 35.6588 5.92789 34.915 6.84206 34.915H8.29664C9.21081 34.915 9.95456 35.6588 9.95456 36.573V37.4059C9.95498 38.32 9.21081 39.0638 8.29664 39.0638ZM6.84206 35.9563C6.50206 35.9563 6.22581 36.233 6.22581 36.5725V37.4055C6.22581 37.745 6.50248 38.0217 6.84206 38.0217H8.29664C8.63664 38.0217 8.91289 37.745 8.91289 37.4055V36.5725C8.91289 36.233 8.63623 35.9563 8.29664 35.9563H6.84206Z" fill="white"/>
<path d="M33.1575 39.0638H31.7033C30.7892 39.0638 30.0454 38.32 30.0454 37.4059V36.573C30.0454 35.6588 30.7892 34.915 31.7033 34.915H33.1575C34.0721 34.915 34.8158 35.6588 34.8158 36.573V37.4059C34.8162 38.32 34.0721 39.0638 33.1575 39.0638ZM31.7033 35.9563C31.3637 35.9563 31.0871 36.233 31.0871 36.5725V37.4055C31.0871 37.745 31.3637 38.0217 31.7033 38.0217H33.1575C33.4975 38.0217 33.7742 37.745 33.7742 37.4055V36.5725C33.7742 36.233 33.4975 35.9563 33.1575 35.9563H31.7033Z" fill="white"/>
<path d="M22.7971 30.9839H17.2034C16.9159 30.9839 16.6825 30.7505 16.6825 30.463V26.0118H12.2309C11.9434 26.0118 11.71 25.7785 11.71 25.491V19.8972C11.71 19.6097 11.9434 19.3764 12.2309 19.3764H16.6825V14.9251C16.6825 14.6376 16.9159 14.4043 17.2034 14.4043H22.7971C23.0846 14.4043 23.3179 14.6376 23.3179 14.9251V19.3764H27.7692C28.0567 19.3764 28.29 19.6097 28.29 19.8972V25.491C28.29 25.7785 28.0567 26.0118 27.7692 26.0118H23.3179V30.4635C23.3179 30.751 23.0846 30.9839 22.7971 30.9839ZM17.7242 29.9422H22.2763V25.491C22.2763 25.2035 22.5096 24.9701 22.7971 24.9701H27.2484V20.418H22.7971C22.5096 20.418 22.2763 20.1847 22.2763 19.8972V15.446H17.7242V19.8972C17.7242 20.1847 17.4909 20.418 17.2034 20.418H12.7517V24.9701H17.2034C17.4909 24.9701 17.7242 25.2035 17.7242 25.491V29.9422Z" fill="white"/>
<path d="M27.85 9.85212H12.15C11.8625 9.85212 11.6292 9.61879 11.6292 9.33129V6.29212C11.6292 3.56837 13.845 1.35254 16.5691 1.35254H23.4308C26.1546 1.35254 28.3704 3.56837 28.3704 6.29212V9.33129C28.3708 9.61879 28.1375 9.85212 27.85 9.85212ZM12.6708 8.81046H27.3291V6.29212C27.3291 4.14296 25.5804 2.39421 23.4312 2.39421H16.5691C14.4196 2.39421 12.6708 4.14296 12.6708 6.29212V8.81046Z" fill="white"/>
<path d="M34.2954 37.2C34.1579 37.2 34.0258 37.1454 33.9279 37.0483C33.83 36.9508 33.7746 36.8179 33.7746 36.6792V36.5733C33.7746 36.2338 33.4979 35.9571 33.1579 35.9571H31.7037C31.3641 35.9571 31.0875 36.2338 31.0875 36.5733V36.6792C31.0875 36.9667 30.8541 37.2 30.5666 37.2H9.43415C9.14665 37.2 8.91331 36.9667 8.91331 36.6792V36.5733C8.91331 36.2338 8.63665 35.9571 8.29706 35.9571H6.84248C6.50248 35.9571 6.22623 36.2338 6.22623 36.5733V36.6792C6.22623 36.8179 6.17081 36.9504 6.07248 37.0483C5.97498 37.1454 5.8429 37.2 5.7054 37.2C5.70456 37.2 5.70373 37.2 5.70248 37.2C3.01748 37.1858 0.833313 34.9896 0.833313 32.3033V13.7075C0.833313 11.0217 3.01748 8.825 5.70206 8.81083C5.84873 8.79958 5.97415 8.86458 6.07206 8.9625C6.1704 9.06 6.22581 9.19292 6.22581 9.33167V10.0587C6.22581 10.3987 6.50248 10.6754 6.84206 10.6754H8.29665C8.63665 10.6754 8.9129 10.3987 8.9129 10.0587V9.33167C8.9129 9.04417 9.14623 8.81083 9.43373 8.81083H30.5658C30.8533 8.81083 31.0866 9.04417 31.0866 9.33167V10.0587C31.0866 10.3987 31.3633 10.6754 31.7029 10.6754H33.1571C33.4971 10.6754 33.7737 10.3987 33.7737 10.0587V9.33167C33.7737 9.19292 33.8291 9.06042 33.9271 8.9625C34.0246 8.86542 34.1571 8.81083 34.2946 8.81083H34.2975C36.9825 8.82542 39.1666 11.0217 39.1666 13.7075V32.3033C39.1666 34.9892 36.9825 37.1858 34.2979 37.2C34.2971 37.2 34.2962 37.2 34.2954 37.2ZM9.90248 36.1583H30.0979C30.2825 35.4442 30.9325 34.9154 31.7037 34.9154H33.1579C33.9179 34.9154 34.5604 35.4292 34.7558 36.1283C36.6516 35.8892 38.1254 34.2617 38.1254 32.3033V13.7075C38.1254 11.7708 36.6829 10.1571 34.8166 9.89083V10.0587C34.8166 10.9733 34.0729 11.7171 33.1583 11.7171H31.7041C30.79 11.7171 30.0462 10.9733 30.0462 10.0587V9.8525H9.95498V10.0587C9.95498 10.9733 9.21123 11.7171 8.29706 11.7171H6.84248C5.92831 11.7171 5.18456 10.9733 5.18456 10.0587V9.89083C3.31748 10.1571 1.87498 11.7708 1.87498 13.7075V32.3033C1.87498 34.2613 3.34873 35.8888 5.24456 36.1283C5.43956 35.4292 6.08206 34.9154 6.84206 34.9154H8.29665C9.0679 34.9154 9.71748 35.4442 9.90248 36.1583ZM22.7971 30.9846H17.2033C16.9158 30.9846 16.6825 30.7513 16.6825 30.4638V26.0125H12.2308C11.9433 26.0125 11.71 25.7792 11.71 25.4917V19.8979C11.71 19.6104 11.9433 19.3771 12.2308 19.3771H16.6825V14.9258C16.6825 14.6383 16.9158 14.405 17.2033 14.405H22.7971C23.0846 14.405 23.3179 14.6383 23.3179 14.9258V19.3771H27.7691C28.0566 19.3771 28.29 19.6104 28.29 19.8979V25.4917C28.29 25.7792 28.0566 26.0125 27.7691 26.0125H23.3179V30.4642C23.3179 30.7517 23.0846 30.9846 22.7971 30.9846ZM17.7241 29.9429H22.2762V25.4917C22.2762 25.2042 22.5096 24.9708 22.7971 24.9708H27.2483V20.4188H22.7971C22.5096 20.4188 22.2762 20.1854 22.2762 19.8979V15.4467H17.7241V19.8979C17.7241 20.1854 17.4908 20.4188 17.2033 20.4188H12.7516V24.9708H17.2033C17.4908 24.9708 17.7241 25.2042 17.7241 25.4917V29.9429Z" fill="white"/>
<path d="M25.7867 9.85224H14.2138C13.9263 9.85224 13.6929 9.61891 13.6929 9.33141V6.59682C13.6929 4.78807 15.1646 3.31641 16.9733 3.31641H23.0271C24.8358 3.31641 26.3075 4.78807 26.3075 6.59682V9.33141C26.3075 9.61891 26.0742 9.85224 25.7867 9.85224ZM14.7346 8.81057H25.2658V6.59682C25.2658 5.36224 24.2617 4.35807 23.0271 4.35807H16.9729C15.7388 4.35807 14.7342 5.36224 14.7342 6.59682L14.7346 8.81057Z" fill="white"/>
</svg>
