<svg width="16" height="16" viewBox="0 0 16 16" fill="none" xmlns="http://www.w3.org/2000/svg">
<g clip-path="url(#clip0_0_2597)">
<path d="M3.7647 0.470703C3.5294 0.470703 3.29411 0.658938 3.29411 0.941291V1.41188H1.88235C1.1294 1.41188 0.470581 2.02364 0.470581 2.82364V14.1178C0.470581 14.9178 1.08235 15.5295 1.88235 15.5295H14.1176C14.9176 15.5295 15.5294 14.9178 15.5294 14.1178V2.82364C15.5294 2.02364 14.9176 1.41188 14.1176 1.41188H12.7059V0.941291C12.7059 0.658938 12.5176 0.470703 12.2353 0.470703C11.9529 0.470703 11.7647 0.658938 11.7647 0.941291V1.41188H4.23529V0.941291C4.23529 0.658938 4.04705 0.470703 3.7647 0.470703ZM14.5882 14.1178C14.5882 14.4001 14.4 14.5884 14.1176 14.5884H1.88235C1.59999 14.5884 1.41176 14.4001 1.41176 14.1178V5.17659H14.5882V14.1178ZM11.7647 2.35306V2.82364C11.7647 3.106 11.9529 3.29423 12.2353 3.29423C12.5176 3.29423 12.7059 3.106 12.7059 2.82364V2.35306H14.1176C14.4 2.35306 14.5882 2.54129 14.5882 2.82364V4.23541H1.41176V2.82364C1.41176 2.54129 1.59999 2.35306 1.88235 2.35306H3.29411V2.82364C3.29411 3.106 3.48235 3.29423 3.7647 3.29423C4.04705 3.29423 4.23529 3.106 4.23529 2.82364V2.35306H11.7647Z" fill="#2B4DFF"/>
<path d="M3.34119 9.17705H5.22355C5.5059 9.17705 5.69414 8.98881 5.69414 8.70646V6.8241C5.69414 6.54175 5.5059 6.35352 5.22355 6.35352H3.34119C3.05884 6.35352 2.87061 6.54175 2.87061 6.8241V8.70646C2.87061 8.98881 3.05884 9.17705 3.34119 9.17705ZM3.81178 7.29469H4.75296V8.23587H3.81178V7.29469ZM7.1059 9.17705H8.98825C9.27061 9.17705 9.45884 8.98881 9.45884 8.70646V6.8241C9.45884 6.54175 9.27061 6.35352 8.98825 6.35352H7.1059C6.82355 6.35352 6.63531 6.54175 6.63531 6.8241V8.70646C6.63531 8.98881 6.82355 9.17705 7.1059 9.17705ZM7.57649 7.29469H8.51766V8.23587H7.57649V7.29469ZM10.8706 9.17705H12.753C13.0353 9.17705 13.2235 8.98881 13.2235 8.70646V6.8241C13.2235 6.54175 13.0353 6.35352 12.753 6.35352H10.8706C10.5883 6.35352 10.4 6.54175 10.4 6.8241V8.70646C10.4 8.98881 10.5883 9.17705 10.8706 9.17705ZM11.3412 7.29469H12.2824V8.23587H11.3412V7.29469ZM3.34119 13.4123H5.22355C5.5059 13.4123 5.69414 13.2241 5.69414 12.9418V11.0594C5.69414 10.777 5.5059 10.5888 5.22355 10.5888H3.34119C3.05884 10.5888 2.87061 10.777 2.87061 11.0594V12.9418C2.87061 13.2241 3.05884 13.4123 3.34119 13.4123ZM3.81178 11.53H4.75296V12.4712H3.81178V11.53ZM7.1059 13.4123H8.98825C9.27061 13.4123 9.45884 13.2241 9.45884 12.9418V11.0594C9.45884 10.777 9.27061 10.5888 8.98825 10.5888H7.1059C6.82355 10.5888 6.63531 10.777 6.63531 11.0594V12.9418C6.63531 13.2241 6.82355 13.4123 7.1059 13.4123ZM7.57649 11.53H8.51766V12.4712H7.57649V11.53ZM10.8706 13.4123H12.753C13.0353 13.4123 13.2235 13.2241 13.2235 12.9418V11.0594C13.2235 10.777 13.0353 10.5888 12.753 10.5888H10.8706C10.5883 10.5888 10.4 10.777 10.4 11.0594V12.9418C10.4 13.2241 10.5883 13.4123 10.8706 13.4123ZM11.3412 11.53H12.2824V12.4712H11.3412V11.53Z" fill="#2B4DFF"/>
</g>
<defs>
<clipPath id="clip0_0_2597">
<rect width="16" height="16" fill="white"/>
</clipPath>
</defs>
</svg>
