<svg width="40" height="40" viewBox="0 0 40 40" fill="none" xmlns="http://www.w3.org/2000/svg">
<g clip-path="url(#clip0_0_2474)">
<path fill-rule="evenodd" clip-rule="evenodd" d="M4.75129 24.2126C4.50972 25.1047 3.69379 25.7618 2.72572 25.7618C1.5676 25.7618 0.627441 24.8217 0.627441 23.6636C0.627441 22.5055 1.5676 21.5653 2.72572 21.5653C3.69379 21.5653 4.50972 22.2224 4.75129 23.1146H8.73599V20.9605H7.45395C7.15097 20.9605 6.90493 20.7145 6.90493 20.4115C6.90493 20.1085 7.15097 19.8624 7.45395 19.8624H8.73599V17.7084H4.58321C3.98658 17.7084 3.55552 17.2551 3.55552 16.7714V15.0548C2.66344 14.8133 2.00634 13.9973 2.00634 13.0293C2.00634 11.8711 2.9465 10.931 4.10454 10.931C5.26266 10.931 6.20281 11.8711 6.20281 13.0293C6.20281 13.9973 5.54572 14.8133 4.65356 15.0548V16.6104H8.73599V14.2187H7.45395C7.15097 14.2187 6.90493 13.9727 6.90493 13.6697C6.90493 13.3667 7.15097 13.1206 7.45395 13.1206H8.73599V10.1969C8.73599 9.6364 9.19042 9.18197 9.75097 9.18197H12.3889V7.54526C12.3889 7.24228 12.635 6.99624 12.938 6.99624C13.2409 6.99624 13.487 7.24228 13.487 7.54526V9.18197H15.8787V4.84251C14.9865 4.60095 14.3294 3.7851 14.3294 2.81695C14.3294 1.65891 15.2696 0.71875 16.4277 0.71875C17.5857 0.71875 18.526 1.65891 18.526 2.81695C18.526 3.7851 17.8689 4.60095 16.9767 4.84251V9.18197H19.1307V7.54526C19.1307 7.24228 19.3768 6.99624 19.6798 6.99624C19.9828 6.99624 20.2288 7.24228 20.2288 7.54526V9.18197H22.3828V4.67452C22.3828 4.07781 22.8362 3.64683 23.3199 3.64683H25.0365C25.278 2.75467 26.0939 2.09757 27.062 2.09757C28.2201 2.09757 29.1603 3.03781 29.1603 4.19585C29.1603 5.35389 28.2201 6.29412 27.062 6.29412C26.0939 6.29412 25.278 5.63703 25.0365 4.74487H23.4809V9.18197H25.8726V7.54526C25.8726 7.24228 26.1186 6.99624 26.4216 6.99624C26.7246 6.99624 26.9707 7.24228 26.9707 7.54526V9.18197H29.5396C30.1002 9.18197 30.5546 9.6364 30.5546 10.1969V13.1206H32.546C32.849 13.1206 33.0951 13.3667 33.0951 13.6697C33.0951 13.9727 32.849 14.2187 32.546 14.2187H30.5546V16.6104H34.9941V15.0548C34.102 14.8133 33.4449 13.9973 33.4449 13.0293C33.4449 11.8711 34.3851 10.931 35.5431 10.931C36.7012 10.931 37.6414 11.8711 37.6414 13.0293C37.6414 13.9973 36.9843 14.8133 36.0922 15.0548V16.7714C36.0922 17.2551 35.6612 17.7084 35.0645 17.7084H30.5546V19.8624H32.546C32.849 19.8624 33.0951 20.1085 33.0951 20.4115C33.0951 20.7145 32.849 20.9605 32.546 20.9605H30.5546V23.1146H35.2487C35.4903 22.2224 36.3062 21.5653 37.2743 21.5653C38.4324 21.5653 39.3725 22.5055 39.3725 23.6636C39.3725 24.8217 38.4324 25.7618 37.2743 25.7618C36.3062 25.7618 35.4903 25.1047 35.2487 24.2126H30.5546V26.6043H32.546C32.849 26.6043 33.0951 26.8503 33.0951 27.1533C33.0951 27.4563 32.849 27.7024 32.546 27.7024H30.5546V29.9856C30.5546 30.5461 30.1002 31.0006 29.5396 31.0006H26.9707V32.6373C26.9707 32.9403 26.7246 33.1863 26.4216 33.1863C26.1186 33.1863 25.8726 32.9403 25.8726 32.6373V31.0006H23.4809V35.0854H25.0365C25.278 34.1933 26.0939 33.5362 27.062 33.5362C28.2201 33.5362 29.1603 34.4764 29.1603 35.6344C29.1603 36.7925 28.2201 37.7327 27.062 37.7327C26.0939 37.7327 25.278 37.0756 25.0365 36.1835H23.3199C22.8362 36.1835 22.3828 35.7525 22.3828 35.1558V31.0006H20.2288V32.6373C20.2288 32.9403 19.9828 33.1863 19.6798 33.1863C19.3768 33.1863 19.1307 32.9403 19.1307 32.6373V31.0006H16.9767V35.1581C17.8689 35.3997 18.526 36.2155 18.526 37.1837C18.526 38.3417 17.5857 39.2819 16.4277 39.2819C15.2696 39.2819 14.3294 38.3417 14.3294 37.1837C14.3294 36.2155 14.9865 35.3997 15.8787 35.1581V31.0006H13.487V32.6373C13.487 32.9403 13.2409 33.1863 12.938 33.1863C12.635 33.1863 12.3889 32.9403 12.3889 32.6373V31.0006H9.75097C9.19042 31.0006 8.73599 30.5461 8.73599 29.9856V27.7024H7.45395C7.15097 27.7024 6.90493 27.4563 6.90493 27.1533C6.90493 26.8503 7.15097 26.6043 7.45395 26.6043H8.73599V24.2126H4.75129ZM3.72587 23.6636C3.72587 23.1115 3.27772 22.6634 2.72572 22.6634C2.17364 22.6634 1.72548 23.1115 1.72548 23.6636C1.72548 24.2156 2.17364 24.6638 2.72572 24.6638C3.27772 24.6638 3.72587 24.2156 3.72587 23.6636ZM9.83403 10.28V29.9025H29.4565V10.28H9.83403ZM4.10454 14.0294C4.65662 14.0294 5.10478 13.5813 5.10478 13.0293C5.10478 12.4772 4.65662 12.029 4.10454 12.029C3.55254 12.029 3.10438 12.4772 3.10438 13.0293C3.10438 13.5813 3.55254 14.0294 4.10454 14.0294ZM16.4277 3.81718C16.9797 3.81718 17.4279 3.36902 17.4279 2.81695C17.4279 2.26495 16.9797 1.81679 16.4277 1.81679C15.8757 1.81679 15.4274 2.26495 15.4274 2.81695C15.4274 3.36902 15.8757 3.81718 16.4277 3.81718ZM26.0618 4.19585C26.0618 4.74785 26.51 5.19608 27.062 5.19608C27.614 5.19608 28.0623 4.74785 28.0623 4.19585C28.0623 3.64385 27.614 3.19561 27.062 3.19561C26.51 3.19561 26.0618 3.64385 26.0618 4.19585ZM35.5431 14.0294C36.0952 14.0294 36.5434 13.5813 36.5434 13.0293C36.5434 12.4772 36.0952 12.029 35.5431 12.029C34.9911 12.029 34.543 12.4772 34.543 13.0293C34.543 13.5813 34.9911 14.0294 35.5431 14.0294ZM36.2741 23.6636C36.2741 24.2156 36.7223 24.6638 37.2743 24.6638C37.8263 24.6638 38.2745 24.2156 38.2745 23.6636C38.2745 23.1115 37.8263 22.6634 37.2743 22.6634C36.7223 22.6634 36.2741 23.1115 36.2741 23.6636ZM26.0618 35.6344C26.0618 36.1864 26.51 36.6347 27.062 36.6347C27.614 36.6347 28.0623 36.1864 28.0623 35.6344C28.0623 35.0824 27.614 34.6342 27.062 34.6342C26.51 34.6342 26.0618 35.0824 26.0618 35.6344ZM16.4277 36.1835C15.8757 36.1835 15.4274 36.6316 15.4274 37.1837C15.4274 37.7357 15.8757 38.1839 16.4277 38.1839C16.9797 38.1839 17.4279 37.7357 17.4279 37.1837C17.4279 36.6316 16.9797 36.1835 16.4277 36.1835ZM14.6557 19.7993L14.3337 20.0604C14.2206 20.1521 14.0758 20.1951 13.931 20.18C13.7862 20.1649 13.6533 20.0929 13.5616 19.9799L12.5959 18.7895C12.5505 18.7335 12.5165 18.6691 12.496 18.6C12.4754 18.5308 12.4687 18.4583 12.4762 18.3866C12.4837 18.3149 12.5052 18.2453 12.5396 18.1819C12.574 18.1185 12.6205 18.0625 12.6765 18.0171L19.1701 12.7526C19.6652 12.3494 20.3663 12.3668 20.8401 12.7607L27.3234 18.0171C27.4365 18.1088 27.5086 18.2416 27.5237 18.3865C27.5389 18.5313 27.4959 18.6762 27.4042 18.7893L26.4394 19.9796C26.394 20.0357 26.338 20.0822 26.2746 20.1166C26.2112 20.151 26.1417 20.1725 26.07 20.18C25.9983 20.1875 25.9258 20.1808 25.8567 20.1603C25.7875 20.1398 25.7231 20.1058 25.6671 20.0604L25.3443 19.7987V26.3515C25.3443 27.0099 24.8118 27.5431 24.1518 27.5431H15.8482C15.1898 27.5431 14.6557 27.0099 14.6557 26.3515V19.7993ZM24.2463 18.9086L20 15.4662L15.7537 18.909V26.3515C15.7538 26.3764 15.7639 26.4003 15.7816 26.4178C15.7993 26.4354 15.8233 26.4452 15.8482 26.4451H17.9178V20.6483C17.9178 20.5027 17.9756 20.3631 18.0786 20.2601C18.1816 20.1571 18.3212 20.0993 18.4668 20.0993H21.534C21.6796 20.0993 21.8192 20.1571 21.9222 20.2601C22.0251 20.3631 22.083 20.5027 22.083 20.6483V26.4451H24.1518C24.2038 26.4451 24.2463 26.4034 24.2463 26.3515V18.9086ZM19.0158 26.4451H20.9849V21.1973H19.0158V26.4451ZM13.7947 18.5242L14.0685 18.8618L19.6542 14.3329C19.752 14.2536 19.874 14.2104 19.9999 14.2104C20.1258 14.2103 20.2479 14.2536 20.3457 14.3329L25.9321 18.8617L26.2056 18.5243L20.1457 13.6114L20.1388 13.6057C20.1002 13.5735 20.0517 13.5557 20.0014 13.5554C19.9512 13.5551 19.9024 13.5723 19.8634 13.604L19.8625 13.6048L13.7947 18.5242Z" fill="white"/>
</g>
<defs>
<clipPath id="clip0_0_2474">
<rect width="40" height="40" fill="white"/>
</clipPath>
</defs>
</svg>
