<svg width="40" height="40" viewBox="0 0 40 40" fill="none" xmlns="http://www.w3.org/2000/svg">
<path d="M12.1753 22.6369L12.0921 22.7655C12.0124 22.8851 11.8888 22.9686 11.748 22.9978C11.6073 23.027 11.4607 22.9996 11.34 22.9216C11.2193 22.8435 11.1341 22.7211 11.103 22.5808C11.0719 22.4404 11.0972 22.2935 11.1736 22.1717L11.2568 22.0431C11.3365 21.9235 11.4601 21.84 11.6008 21.8108C11.7416 21.7816 11.8882 21.809 12.0089 21.887C12.1296 21.965 12.2147 22.0875 12.2459 22.2278C12.277 22.3682 12.2516 22.5151 12.1753 22.6369ZM28.609 22.0431C28.5293 21.9235 28.4057 21.84 28.265 21.8108C28.1242 21.7816 27.9777 21.809 27.8569 21.887C27.7362 21.965 27.6511 22.0875 27.6199 22.2278C27.5888 22.3682 27.6142 22.5151 27.6906 22.6369L27.7738 22.7655C27.8123 22.8268 27.8626 22.8799 27.9218 22.9217C27.981 22.9635 28.0479 22.9931 28.1186 23.0088C28.1893 23.0244 28.2625 23.0259 28.3338 23.0131C28.4051 23.0003 28.4731 22.9734 28.5339 22.9341C28.5948 22.8948 28.6472 22.8438 28.6881 22.784C28.7291 22.7242 28.7578 22.6569 28.7725 22.586C28.7872 22.5151 28.7877 22.4419 28.7739 22.3708C28.7601 22.2997 28.7324 22.232 28.6922 22.1717L28.609 22.0431ZM36.0013 26.7412C36.0003 27.3809 35.8121 28.0063 35.4598 28.5403C35.593 28.8352 35.6156 29.1681 35.5235 29.4783C35.4315 29.7885 35.2309 30.0552 34.9585 30.2297L32.4416 31.8353C32.2267 31.9731 31.9768 32.0463 31.7215 32.0462C31.4954 32.0463 31.2729 31.9899 31.0742 31.8822C31.1065 31.9704 31.1326 32.0607 31.1523 32.1526C31.2805 32.7602 31.1241 33.3987 30.6874 34.0505C30.6628 34.0873 30.6337 34.121 30.6009 34.1509C30.0253 34.6738 29.306 34.9009 28.4574 34.8295C28.3352 35.3629 28.0928 35.7691 27.7336 36.0413C27.3513 36.331 26.8563 36.453 26.2589 36.406C26.0149 37.1156 25.636 37.6013 25.1284 37.8538C24.6638 38.0847 24.1155 38.1093 23.4933 37.9284C23.2038 38.5698 22.7758 38.9909 22.216 39.1841C21.9876 39.2619 21.7478 39.3009 21.5065 39.2995C20.7576 39.2995 19.881 38.9534 18.8545 38.2565C18.4783 38.6141 17.9946 38.9502 17.4944 38.966C17.4612 38.967 17.4281 38.9676 17.3955 38.9676C16.4719 38.9676 15.7949 38.5484 15.4424 37.769C14.7042 37.8722 14.123 37.7698 13.6747 37.4597C13.3287 37.2144 13.0777 36.8575 12.9638 36.449C12.3184 36.411 11.8035 36.2139 11.4287 35.8606C11.1003 35.5399 10.884 35.1217 10.8121 34.6684C10.241 34.7091 9.77299 34.5976 9.41565 34.3354C8.99307 34.0255 8.74986 33.5312 8.69268 32.8666C8.65918 32.4514 8.74025 32.0349 8.92705 31.6625C8.72852 31.7702 8.50625 31.8265 8.28041 31.8266C8.02454 31.8267 7.77399 31.7535 7.55846 31.6156L5.04143 30.0099C4.79053 29.8491 4.60001 29.6097 4.49965 29.3291C4.39929 29.0485 4.39475 28.7425 4.48674 28.4591C4.16564 27.9437 3.99655 27.3481 3.99893 26.7409V9.6043C3.99992 8.73466 4.3458 7.90093 4.96069 7.28597C5.57559 6.67102 6.40929 6.32506 7.27893 6.32398H11.568V5.64305C11.5694 4.33336 12.0903 3.07773 13.0164 2.15163C13.9425 1.22552 15.1981 0.704593 16.5078 0.703125H23.4921C24.8018 0.704552 26.0575 1.22546 26.9836 2.15157C27.9097 3.07768 28.4306 4.33334 28.4321 5.64305V6.32398H32.7211C33.5908 6.32498 34.4246 6.6709 35.0395 7.28586C35.6545 7.90083 36.0004 8.73461 36.0014 9.6043L36.0013 26.7412ZM34.7852 27.4544C34.8657 27.2252 34.907 26.9841 34.9075 26.7412V16.3541C34.3078 16.8952 33.5288 17.1949 32.721 17.1953H23.8322V17.8047C23.8322 18.8211 23.4284 19.7958 22.7098 20.5145C21.9911 21.2332 21.0163 21.637 19.9999 21.637C18.9836 21.637 18.0088 21.2332 17.2901 20.5145C16.5714 19.7958 16.1677 18.8211 16.1677 17.8047V17.1953H7.27893C6.47126 17.1952 5.69228 16.8958 5.09236 16.3551V26.7409C5.09244 26.9327 5.11768 27.1236 5.16744 27.3088L9.75713 20.1141C9.94944 19.8133 10.2532 19.6011 10.6018 19.524C10.9504 19.447 11.3153 19.5114 11.6165 19.703L14.1334 21.3086C14.3797 21.4663 14.5681 21.6998 14.6701 21.974C14.7722 22.2481 14.7823 22.548 14.699 22.8284C15.4386 22.975 16.245 22.7755 17.0302 22.5805C18.0735 22.3214 19.3405 22.007 20.126 22.9334C22.0971 21.8836 22.8917 22.1117 23.8398 22.5761C24.1967 22.7509 24.5338 22.9161 25.0696 22.9454C25.1399 22.9492 25.2088 22.9509 25.2767 22.952C25.2175 22.6828 25.2423 22.402 25.3478 22.1474C25.4533 21.8927 25.6343 21.6766 25.8665 21.5282L28.3834 19.9226C28.6846 19.731 29.0495 19.6666 29.398 19.7437C29.7466 19.8207 30.0504 20.0329 30.2428 20.3336L34.7852 27.4544ZM29.8842 30.33L25.8602 24.0219C25.5776 24.0489 25.2933 24.0541 25.0099 24.0375C24.2521 23.9962 23.7568 23.7534 23.3587 23.5584C22.6868 23.2295 22.2013 22.9915 20.2443 24.1183C17.8574 25.8803 16.9213 27.7073 17.0197 28.4445C17.0424 28.6148 17.1113 28.6415 17.157 28.6591C17.5623 28.8153 18.9328 28.504 21.4974 26.3404C22.5669 25.438 24.9583 27.0135 28.221 29.3377C28.8337 29.7742 29.363 30.1512 29.7131 30.3689C29.7353 30.383 29.7563 30.3973 29.7779 30.4114C29.8165 30.3885 29.8522 30.3611 29.8842 30.3298V30.33ZM16.1677 14.1748H7.27893C6.47126 14.1747 5.69228 13.8754 5.09236 13.3346V13.9338C5.09885 14.51 5.33189 15.0604 5.74109 15.4661C6.15028 15.8718 6.70273 16.1001 7.27893 16.1016H16.1677V14.1748ZM19.9999 20.5431C20.726 20.5423 21.4221 20.2535 21.9354 19.7402C22.4488 19.2268 22.7376 18.5307 22.7385 17.8047V12.9423C22.7378 12.8923 22.7177 12.8446 22.6823 12.8093C22.647 12.774 22.5993 12.7539 22.5494 12.7532H17.4504C17.4005 12.7539 17.3528 12.774 17.3175 12.8093C17.2822 12.8446 17.2621 12.8923 17.2614 12.9423V17.8047C17.2623 18.5307 17.551 19.2268 18.0644 19.7402C18.5778 20.2535 19.2739 20.5423 19.9999 20.5431ZM23.8322 16.1016H32.721C33.2963 16.0997 33.8478 15.8719 34.2568 15.4673C34.6658 15.0627 34.8995 14.5135 34.9074 13.9383V13.3341C34.3076 13.8751 33.5286 14.1747 32.7209 14.1751H23.8322V16.1016ZM12.6618 6.32398H27.338V5.64305C27.3368 4.62339 26.9313 3.64582 26.2103 2.92478C25.4893 2.20374 24.5118 1.79812 23.4921 1.79688H16.5078C15.488 1.79801 14.5104 2.2036 13.7893 2.92464C13.0683 3.64569 12.6627 4.62332 12.6615 5.64305L12.6618 6.32398ZM5.09236 9.6043V10.9135C5.09889 11.4896 5.33194 12.04 5.74111 12.4457C6.15029 12.8513 6.70269 13.0796 7.27885 13.0811H16.1677V12.9423C16.168 12.6022 16.3033 12.2761 16.5438 12.0356C16.7843 11.7951 17.1103 11.6598 17.4504 11.6595H22.5494C22.8895 11.6598 23.2156 11.7951 23.456 12.0356C23.6965 12.2761 23.8318 12.6022 23.8322 12.9423V13.0811H32.721C33.2963 13.0792 33.8478 12.8515 34.2568 12.4468C34.6658 12.0422 34.8995 11.4931 34.9074 10.9178V9.6043C34.9068 9.02458 34.6762 8.46879 34.2663 8.05887C33.8564 7.64895 33.3006 7.41838 32.7209 7.41773H7.27893C6.69921 7.41838 6.14342 7.64895 5.7335 8.05887C5.32358 8.46879 5.093 9.02458 5.09236 9.6043ZM8.49565 30.6162L13.6223 22.5798C13.6577 22.5231 13.6695 22.4548 13.6551 22.3895C13.6407 22.3242 13.6012 22.2672 13.5452 22.2307L11.0283 20.625C10.9883 20.5997 10.9418 20.5863 10.8945 20.5865C10.8518 20.5862 10.8097 20.5967 10.7721 20.6169C10.7345 20.6371 10.7025 20.6664 10.6792 20.7022L5.55244 28.7387C5.51728 28.7955 5.50568 28.8638 5.52012 28.929C5.53455 28.9942 5.57387 29.0512 5.62971 29.0878L8.1465 30.6934C8.20327 30.7286 8.27155 30.7403 8.33678 30.7259C8.402 30.7114 8.45901 30.6721 8.49565 30.6162ZM11.0072 33.5431C12.0113 32.34 12.4072 31.4999 12.5629 31.0385C12.5058 30.8884 12.4132 30.7545 12.2929 30.648C12.1727 30.5416 12.0285 30.4659 11.8726 30.4273C11.7355 30.3932 11.5915 30.3977 11.4568 30.4403C11.322 30.483 11.2017 30.562 11.1092 30.6688C11.0012 30.7902 10.887 30.9116 10.7763 31.0292C10.2373 31.6021 9.72799 32.1433 9.78213 32.7723C9.81111 33.1089 9.90541 33.338 10.0624 33.4532C10.2469 33.5885 10.5717 33.6187 11.0072 33.5431ZM12.1791 35.0644C12.3771 35.251 12.6947 35.349 13.1203 35.3595L15.6926 31.7338C15.6821 31.3075 15.5156 31.0274 15.1955 30.9012C14.7202 30.7137 14.0305 30.8917 13.6313 31.2898C13.4649 31.822 13.0227 32.8312 11.8571 34.2319C11.8862 34.6099 11.9938 34.8899 12.1788 35.0644H12.1791ZM15.5059 36.6484C15.6343 36.4929 15.8685 36.2084 16.1731 35.8383C16.5523 35.3778 17.0692 34.7502 17.7239 33.9555C17.9317 33.3773 17.9271 32.9027 17.7078 32.6463C17.5069 32.4111 17.0921 32.3283 16.5538 32.4099L13.9843 36.032C14.0434 36.2809 14.146 36.4554 14.2968 36.5598C14.538 36.7266 14.9542 36.7566 15.5059 36.6484ZM18.5799 36.9195C19.0974 36.228 19.2596 35.6468 19.21 35.455C19.1338 35.162 18.7744 34.9724 18.4021 34.8521C17.8257 35.5517 17.3642 36.1121 17.0176 36.5334C16.7199 36.8951 16.5332 37.1215 16.4153 37.2648C16.5916 37.7101 16.9083 37.8898 17.4596 37.8723C17.6278 37.8672 18.1003 37.5606 18.5799 36.9196V36.9195ZM30.0818 32.3779C30.0042 32.0098 29.6842 31.6455 29.1311 31.2951C28.7561 31.0616 28.214 30.6755 27.5863 30.2284C26.5917 29.5197 25.3537 28.6377 24.2651 28.0009C22.6616 27.063 22.2417 27.1657 22.1958 27.182C20.4885 28.6212 18.1626 30.2205 16.7628 29.6791C16.2992 29.5 16.0053 29.1128 15.9356 28.5888C15.7571 27.2508 17.0785 25.2257 19.1899 23.5483C18.8739 23.3077 18.3563 23.378 17.2938 23.642C16.3624 23.8734 15.2304 24.1541 14.1336 23.812L10.2812 29.8516C10.2981 29.8706 10.314 29.8879 10.329 29.9035C10.5523 29.663 10.8355 29.4862 11.1495 29.3909C11.4636 29.2957 11.7973 29.2855 12.1166 29.3615C12.597 29.4745 13.0209 29.7564 13.3109 30.1558C13.9968 29.7241 14.8781 29.6011 15.5966 29.8841C16.2156 30.1281 16.6142 30.6263 16.7423 31.2913C17.5147 31.2472 18.1398 31.4681 18.5392 31.9359C18.9487 32.4152 19.0675 33.0868 18.8897 33.8642C19.6509 34.1446 20.1137 34.5859 20.2683 35.1802C20.4741 35.9716 19.8842 36.9624 19.5682 37.4183C20.5499 38.0645 21.3539 38.3241 21.8589 38.1502C22.1317 38.0564 22.3515 37.8149 22.5152 37.4327L20.6117 36.0796L21.2453 35.1881L23.4374 36.7457C23.955 36.9702 24.3602 37.0136 24.6413 36.8739C24.8878 36.7515 25.0849 36.4695 25.23 36.0346L21.7627 33.7723C21.7025 33.733 21.6507 33.6823 21.6102 33.623C21.5696 33.5638 21.5411 33.4971 21.5264 33.4268C21.5116 33.3565 21.5108 33.284 21.524 33.2134C21.5373 33.1428 21.5643 33.0755 21.6035 33.0154C21.6428 32.9552 21.6935 32.9034 21.7528 32.8629C21.812 32.8223 21.8787 32.7938 21.949 32.7791C22.0193 32.7643 22.0918 32.7635 22.1624 32.7767C22.233 32.79 22.3003 32.817 22.3604 32.8563L26.0713 35.2777C26.528 35.3616 26.8656 35.3262 27.0727 35.1692C27.2424 35.0406 27.356 34.8056 27.4132 34.4715L22.78 31.3403C22.6607 31.2587 22.5785 31.1333 22.5515 30.9913C22.5244 30.8493 22.5546 30.7024 22.6355 30.5827C22.7164 30.4629 22.8415 30.3801 22.9833 30.3522C23.1251 30.3244 23.2722 30.3538 23.3924 30.4341L28.2111 33.6905C28.8847 33.8234 29.4115 33.7229 29.8161 33.3836C30.0576 33.0049 30.1446 32.6753 30.0818 32.3779ZM34.4474 28.9582L29.3207 20.9219C29.2974 20.8861 29.2654 20.8568 29.2278 20.8366C29.1902 20.8164 29.1481 20.8059 29.1054 20.8062C29.058 20.806 29.0116 20.8194 28.9716 20.8448L26.4547 22.4503C26.3987 22.4868 26.3592 22.5438 26.3448 22.6091C26.3304 22.6744 26.3422 22.7427 26.3776 22.7994L31.5043 30.8359C31.5409 30.8918 31.5979 30.9311 31.6631 30.9455C31.7284 30.96 31.7966 30.9483 31.8534 30.9131L34.3702 29.3075C34.4261 29.2709 34.4654 29.2138 34.4798 29.1486C34.4943 29.0834 34.4827 29.015 34.4474 28.9582Z" fill="white"/>
</svg>
