<svg width="1582" height="428" viewBox="0 0 1582 428" fill="none" xmlns="http://www.w3.org/2000/svg">
<g opacity="0.025">
<path d="M1501.49 397.446C1501.03 397.446 1500.65 397.827 1500.65 398.295C1500.65 398.764 1501.03 399.145 1501.49 399.145C1501.96 399.145 1502.34 398.764 1502.34 398.295C1502.34 397.827 1501.96 397.446 1501.49 397.446Z" fill="#0A165E"/>
<path d="M1422.53 395.316C1420.83 395.316 1419.41 396.734 1419.41 398.435C1419.41 400.137 1420.83 401.555 1422.53 401.555C1424.23 401.555 1425.65 400.137 1425.65 398.435C1425.65 396.734 1424.23 395.316 1422.53 395.316Z" fill="#0A165E"/>
<path d="M1343.7 393.047C1340.8 393.047 1338.45 395.396 1338.45 398.293C1338.45 401.19 1340.8 403.539 1343.7 403.539C1346.59 403.539 1348.94 401.19 1348.94 398.293C1348.94 395.396 1346.59 393.047 1343.7 393.047Z" fill="#0A165E"/>
<path d="M1264.86 390.919C1260.75 390.919 1257.49 394.181 1257.49 398.292C1257.49 402.404 1260.75 405.665 1264.86 405.665C1268.97 405.665 1272.23 402.404 1272.23 398.292C1272.23 394.181 1268.97 390.919 1264.86 390.919Z" fill="#0A165E"/>
<path d="M1186.03 388.935C1180.87 388.935 1176.67 393.125 1176.67 398.293C1176.67 403.461 1180.87 407.65 1186.03 407.65C1191.2 407.65 1195.39 403.461 1195.39 398.293C1195.39 393.125 1191.2 388.935 1186.03 388.935Z" fill="#0A165E"/>
<path d="M1107.05 387.235C1100.96 387.235 1095.85 392.197 1095.85 398.436C1095.85 404.674 1100.81 409.637 1107.05 409.637C1113.29 409.637 1118.25 404.674 1118.25 398.436C1118.25 392.197 1113.29 387.235 1107.05 387.235Z" fill="#0A165E"/>
<path d="M1028.23 385.391C1021.14 385.391 1015.33 391.204 1015.33 398.293C1015.33 405.382 1021.14 411.195 1028.23 411.195C1035.31 411.195 1041.13 405.382 1041.13 398.293C1041.13 391.204 1035.31 385.391 1028.23 385.391Z" fill="#0A165E"/>
<path d="M949.393 384.256C941.641 384.256 935.354 390.54 935.354 398.293C935.354 406.045 941.641 412.329 949.393 412.329C957.145 412.329 963.428 406.045 963.428 398.293C963.428 390.54 957.145 384.256 949.393 384.256Z" fill="#0A165E"/>
<path d="M870.562 383.548C862.338 383.548 855.674 390.212 855.674 398.435C855.674 406.658 862.338 413.322 870.562 413.322C878.783 413.322 885.45 406.658 885.45 398.435C885.45 390.212 878.783 383.548 870.562 383.548Z" fill="#0A165E"/>
<path d="M791.591 383.264C783.291 383.264 776.56 389.993 776.56 398.293C776.56 406.594 783.291 413.322 791.591 413.322C799.891 413.322 806.619 406.594 806.619 398.293C806.619 389.993 799.891 383.264 791.591 383.264Z" fill="#0A165E"/>
<path d="M712.754 383.407C704.529 383.407 697.866 390.072 697.866 398.294C697.866 406.516 704.529 413.182 712.754 413.182C720.975 413.182 727.641 406.516 727.641 398.294C727.641 390.072 720.975 383.407 712.754 383.407Z" fill="#0A165E"/>
<path d="M633.923 384.256C626.171 384.256 619.884 390.54 619.884 398.293C619.884 406.045 626.171 412.329 633.923 412.329C641.675 412.329 647.958 406.045 647.958 398.293C647.958 390.54 641.675 384.256 633.923 384.256Z" fill="#0A165E"/>
<path d="M555.095 385.391C548.008 385.391 542.194 391.204 542.194 398.293C542.194 405.382 548.008 411.195 555.095 411.195C562.187 411.195 568.001 405.382 568.001 398.293C568.001 391.204 562.187 385.391 555.095 385.391Z" fill="#0A165E"/>
<path d="M476.114 386.95C469.851 386.95 464.773 392.029 464.773 398.293C464.773 404.557 469.851 409.636 476.114 409.636C482.38 409.636 487.457 404.557 487.457 398.293C487.457 392.029 482.38 386.95 476.114 386.95Z" fill="#0A165E"/>
<path d="M397.283 388.652C391.959 388.652 387.641 392.969 387.641 398.293C387.641 403.618 391.959 407.935 397.283 407.935C402.608 407.935 406.925 403.618 406.925 398.293C406.925 392.969 402.608 388.652 397.283 388.652Z" fill="#0A165E"/>
<path d="M318.449 390.637C314.196 390.637 310.793 394.039 310.793 398.293C310.793 402.546 314.196 405.949 318.449 405.949C322.701 405.949 326.105 402.546 326.105 398.293C326.105 394.039 322.701 390.637 318.449 390.637Z" fill="#0A165E"/>
<path d="M239.622 392.764C236.567 392.764 234.091 395.24 234.091 398.294C234.091 401.348 236.567 403.823 239.622 403.823C242.676 403.823 245.152 401.348 245.152 398.294C245.152 395.24 242.676 392.764 239.622 392.764Z" fill="#0A165E"/>
<path d="M160.654 395.033C158.808 395.033 157.391 396.45 157.391 398.294C157.391 400.137 158.808 401.555 160.654 401.555C162.496 401.555 163.914 400.137 163.914 398.294C163.914 396.45 162.496 395.033 160.654 395.033Z" fill="#0A165E"/>
<path d="M81.8168 397.446C81.3478 397.446 80.9679 397.827 80.9679 398.295C80.9679 398.764 81.3478 399.145 81.8168 399.145C82.2858 399.145 82.6658 398.764 82.6658 398.295C82.6658 397.827 82.2858 397.446 81.8168 397.446Z" fill="#0A165E"/>
<path d="M1501.49 319.321C1501.49 319.321 1501.21 319.321 1501.21 319.604C1501.21 319.887 1501.21 319.887 1501.49 319.887C1501.78 319.887 1501.78 319.887 1501.78 319.604C1501.78 319.321 1501.78 319.321 1501.49 319.321Z" fill="#0A165E"/>
<path d="M1422.53 317.903C1421.67 317.903 1420.97 318.601 1420.97 319.462C1420.97 320.323 1421.67 321.021 1422.53 321.021C1423.39 321.021 1424.09 320.323 1424.09 319.462C1424.09 318.601 1423.39 317.903 1422.53 317.903Z" fill="#0A165E"/>
<path d="M1343.69 315.777C1341.71 315.777 1340.01 317.478 1340.01 319.463C1340.01 321.448 1341.71 323.149 1343.69 323.149C1345.68 323.149 1347.38 321.448 1347.38 319.463C1347.38 317.478 1345.68 315.777 1343.69 315.777Z" fill="#0A165E"/>
<path d="M1264.86 313.791C1261.74 313.791 1259.19 316.343 1259.19 319.462C1259.19 322.582 1261.74 325.134 1264.86 325.134C1267.98 325.134 1270.53 322.582 1270.53 319.462C1270.53 316.343 1267.98 313.791 1264.86 313.791Z" fill="#0A165E"/>
<path d="M1186.02 312.089C1181.91 312.089 1178.65 315.351 1178.65 319.462C1178.65 323.574 1181.91 326.835 1186.02 326.835C1190.13 326.835 1193.39 323.574 1193.39 319.462C1193.39 315.351 1190.13 312.089 1186.02 312.089Z" fill="#0A165E"/>
<path d="M1107.05 310.53C1102.11 310.53 1098.11 314.529 1098.11 319.462C1098.11 324.395 1102.11 328.395 1107.05 328.395C1111.98 328.395 1115.98 324.395 1115.98 319.462C1115.98 314.529 1111.98 310.53 1107.05 310.53Z" fill="#0A165E"/>
<path d="M1028.23 308.97C1022.44 308.97 1017.74 313.667 1017.74 319.462C1017.74 325.257 1022.44 329.954 1028.23 329.954C1034.02 329.954 1038.72 325.257 1038.72 319.462C1038.72 313.667 1034.02 308.97 1028.23 308.97Z" fill="#0A165E"/>
<path d="M949.4 308.118C943.134 308.118 938.057 313.196 938.057 319.461C938.057 325.725 943.134 330.804 949.4 330.804C955.666 330.804 960.744 325.725 960.744 319.461C960.744 313.196 955.666 308.118 949.4 308.118Z" fill="#0A165E"/>
<path d="M870.562 307.268C863.827 307.268 858.369 312.727 858.369 319.461C858.369 326.195 863.827 331.654 870.562 331.654C877.297 331.654 882.755 326.195 882.755 319.461C882.755 312.727 877.297 307.268 870.562 307.268Z" fill="#0A165E"/>
<path d="M791.581 306.986C784.692 306.986 779.104 312.572 779.104 319.463C779.104 326.354 784.692 331.939 791.581 331.939C798.473 331.939 804.058 326.354 804.058 319.463C804.058 312.572 798.473 306.986 791.581 306.986Z" fill="#0A165E"/>
<path d="M712.75 307.268C706.019 307.268 700.557 312.727 700.557 319.461C700.557 326.195 706.019 331.654 712.75 331.654C719.485 331.654 724.947 326.195 724.947 319.461C724.947 312.727 719.485 307.268 712.75 307.268Z" fill="#0A165E"/>
<path d="M633.922 307.834C627.499 307.834 622.295 313.04 622.295 319.461C622.295 325.882 627.499 331.087 633.922 331.087C640.342 331.087 645.547 325.882 645.547 319.461C645.547 313.04 640.342 307.834 633.922 307.834Z" fill="#0A165E"/>
<path d="M555.095 308.97C549.285 308.97 544.604 313.649 544.604 319.462C544.604 325.275 549.285 329.954 555.095 329.954C560.909 329.954 565.59 325.275 565.59 319.462C565.59 313.649 560.909 308.97 555.095 308.97Z" fill="#0A165E"/>
<path d="M476.121 310.247C471.019 310.247 466.907 314.359 466.907 319.463C466.907 324.567 471.019 328.679 476.121 328.679C481.226 328.679 485.339 324.567 485.339 319.463C485.339 314.359 481.226 310.247 476.121 310.247Z" fill="#0A165E"/>
<path d="M397.286 311.807C393.034 311.807 389.634 315.209 389.634 319.463C389.634 323.716 393.034 327.119 397.286 327.119C401.542 327.119 404.946 323.716 404.946 319.463C404.946 315.209 401.542 311.807 397.286 311.807Z" fill="#0A165E"/>
<path d="M318.459 313.791C315.339 313.791 312.785 316.343 312.785 319.462C312.785 322.582 315.339 325.134 318.459 325.134C321.578 325.134 324.129 322.582 324.129 319.462C324.129 316.343 321.578 313.791 318.459 313.791Z" fill="#0A165E"/>
<path d="M239.618 315.777C237.581 315.777 235.93 317.427 235.93 319.463C235.93 321.499 237.581 323.149 239.618 323.149C241.656 323.149 243.306 321.499 243.306 319.463C243.306 317.427 241.656 315.777 239.618 315.777Z" fill="#0A165E"/>
<path d="M160.647 317.76C159.709 317.76 158.946 318.522 158.946 319.462C158.946 320.401 159.709 321.163 160.647 321.163C161.589 321.163 162.349 320.401 162.349 319.462C162.349 318.522 161.589 317.76 160.647 317.76Z" fill="#0A165E"/>
<path d="M81.8126 319.321C81.8126 319.321 81.5282 319.321 81.5282 319.604C81.5282 319.887 81.5282 319.887 81.8126 319.887C82.0936 319.887 82.0969 319.887 82.0969 319.604C82.0969 319.321 82.0936 319.321 81.8126 319.321Z" fill="#0A165E"/>
<path d="M1422.53 240.347C1422.53 240.347 1422.24 240.347 1422.24 240.63C1422.24 240.913 1422.24 240.913 1422.53 240.913C1422.81 240.913 1422.81 240.913 1422.81 240.63C1422.81 240.347 1422.81 240.347 1422.53 240.347Z" fill="#0A165E"/>
<path d="M1343.69 238.644C1342.55 238.644 1341.7 239.495 1341.7 240.629C1341.7 241.764 1342.55 242.614 1343.69 242.614C1344.82 242.614 1345.67 241.764 1345.67 240.629C1345.67 239.495 1344.82 238.644 1343.69 238.644Z" fill="#0A165E"/>
<path d="M1264.87 236.944C1262.88 236.944 1261.18 238.645 1261.18 240.63C1261.18 242.615 1262.88 244.316 1264.87 244.316C1266.85 244.316 1268.55 242.615 1268.55 240.63C1268.55 238.645 1266.85 236.944 1264.87 236.944Z" fill="#0A165E"/>
<path d="M1186.03 235.384C1183.19 235.384 1180.78 237.794 1180.78 240.63C1180.78 243.465 1183.19 245.876 1186.03 245.876C1188.86 245.876 1191.27 243.465 1191.27 240.63C1191.27 237.794 1188.86 235.384 1186.03 235.384Z" fill="#0A165E"/>
<path d="M1107.06 233.825C1103.37 233.825 1100.25 236.803 1100.25 240.631C1100.25 244.459 1103.23 247.437 1107.06 247.437C1110.89 247.437 1113.87 244.459 1113.87 240.631C1113.87 236.803 1110.89 233.825 1107.06 233.825Z" fill="#0A165E"/>
<path d="M1028.22 232.548C1023.68 232.548 1020.14 236.234 1020.14 240.629C1020.14 245.025 1023.82 248.711 1028.22 248.711C1032.62 248.711 1036.3 245.025 1036.3 240.629C1036.3 236.234 1032.62 232.548 1028.22 232.548Z" fill="#0A165E"/>
<path d="M949.383 231.697C944.421 231.697 940.449 235.667 940.449 240.629C940.449 245.591 944.421 249.562 949.383 249.562C954.344 249.562 958.316 245.591 958.316 240.629C958.316 235.667 954.344 231.697 949.383 231.697Z" fill="#0A165E"/>
<path d="M870.563 231.272C865.317 231.272 861.205 235.525 861.205 240.63C861.205 245.734 865.461 249.987 870.563 249.987C875.668 249.987 879.92 245.734 879.92 240.63C879.92 235.525 875.668 231.272 870.563 231.272Z" fill="#0A165E"/>
<path d="M791.591 230.989C786.346 230.989 781.949 235.242 781.949 240.63C781.949 246.018 786.202 250.271 791.591 250.271C796.981 250.271 801.233 246.018 801.233 240.63C801.233 235.242 796.981 230.989 791.591 230.989Z" fill="#0A165E"/>
<path d="M712.754 230.989C707.508 230.989 703.112 235.242 703.112 240.63C703.112 246.018 707.364 250.271 712.754 250.271C718.14 250.271 722.392 246.018 722.392 240.63C722.392 235.242 718.14 230.989 712.754 230.989Z" fill="#0A165E"/>
<path d="M633.92 231.697C628.955 231.697 624.986 235.667 624.986 240.629C624.986 245.591 628.955 249.562 633.92 249.562C638.881 249.562 642.849 245.591 642.849 240.629C642.849 235.667 638.881 231.697 633.92 231.697Z" fill="#0A165E"/>
<path d="M555.099 232.548C550.562 232.548 547.018 236.234 547.018 240.629C547.018 245.025 550.702 248.711 555.099 248.711C559.495 248.711 563.18 245.025 563.18 240.629C563.18 236.234 559.495 232.548 555.099 232.548Z" fill="#0A165E"/>
<path d="M476.117 233.682C472.289 233.682 469.17 236.801 469.17 240.63C469.17 244.458 472.289 247.577 476.117 247.577C479.945 247.577 483.065 244.458 483.065 240.63C483.065 236.801 479.945 233.682 476.117 233.682Z" fill="#0A165E"/>
<path d="M397.286 235.099C394.307 235.099 391.756 237.509 391.756 240.628C391.756 243.748 394.167 246.158 397.286 246.158C400.406 246.158 402.816 243.748 402.816 240.628C402.816 237.509 400.406 235.099 397.286 235.099Z" fill="#0A165E"/>
<path d="M318.455 236.944C316.473 236.944 314.771 238.645 314.771 240.63C314.771 242.615 316.473 244.316 318.455 244.316C320.441 244.316 322.143 242.615 322.143 240.63C322.143 238.645 320.441 236.944 318.455 236.944Z" fill="#0A165E"/>
<path d="M239.618 238.644C238.482 238.644 237.633 239.495 237.633 240.629C237.633 241.764 238.482 242.614 239.618 242.614C240.752 242.614 241.604 241.764 241.604 240.629C241.604 239.495 240.752 238.644 239.618 238.644Z" fill="#0A165E"/>
<path d="M160.651 240.207C160.651 240.207 160.226 240.348 160.226 240.631C160.226 240.914 160.367 241.056 160.651 241.056C160.936 241.056 161.076 240.914 161.076 240.631C161.076 240.348 160.936 240.207 160.651 240.207Z" fill="#0A165E"/>
<path d="M1343.69 161.517C1343.69 161.517 1343.4 161.517 1343.4 161.8C1343.4 162.083 1343.4 162.083 1343.69 162.083C1343.97 162.083 1343.97 162.083 1343.97 161.8C1343.97 161.517 1343.97 161.517 1343.69 161.517Z" fill="#0A165E"/>
<path d="M1264.86 160.239C1264.01 160.239 1263.3 160.948 1263.3 161.799C1263.3 162.65 1264.01 163.358 1264.86 163.358C1265.71 163.358 1266.42 162.65 1266.42 161.799C1266.42 160.948 1265.71 160.239 1264.86 160.239Z" fill="#0A165E"/>
<path d="M1186.03 158.679C1184.32 158.679 1182.9 160.097 1182.9 161.799C1182.9 163.5 1184.32 164.918 1186.03 164.918C1187.73 164.918 1189.15 163.5 1189.15 161.799C1189.15 160.097 1187.73 158.679 1186.03 158.679Z" fill="#0A165E"/>
<path d="M1107.06 157.403C1104.63 157.403 1102.66 159.371 1102.66 161.798C1102.66 164.226 1104.63 166.193 1107.06 166.193C1109.49 166.193 1111.45 164.226 1111.45 161.798C1111.45 159.371 1109.49 157.403 1107.06 157.403Z" fill="#0A165E"/>
<path d="M1028.22 156.269C1025.24 156.269 1022.69 158.679 1022.69 161.799C1022.69 164.918 1025.1 167.328 1028.22 167.328C1031.34 167.328 1033.75 164.918 1033.75 161.799C1033.75 158.679 1031.34 156.269 1028.22 156.269Z" fill="#0A165E"/>
<path d="M949.389 155.417C945.866 155.417 943.01 158.274 943.01 161.797C943.01 165.321 945.866 168.178 949.389 168.178C952.913 168.178 955.772 165.321 955.772 161.797C955.772 158.274 952.913 155.417 949.389 155.417Z" fill="#0A165E"/>
<path d="M870.555 154.992C866.868 154.992 863.749 157.97 863.749 161.798C863.749 165.626 866.727 168.604 870.555 168.604C874.384 168.604 877.359 165.626 877.359 161.798C877.359 157.97 874.384 154.992 870.555 154.992Z" fill="#0A165E"/>
<path d="M791.584 154.852C787.746 154.852 784.637 157.962 784.637 161.799C784.637 165.636 787.746 168.746 791.584 168.746C795.419 168.746 798.531 165.636 798.531 161.799C798.531 157.962 795.419 154.852 791.584 154.852Z" fill="#0A165E"/>
<path d="M712.761 154.852C708.926 154.852 705.813 157.962 705.813 161.799C705.813 165.636 708.926 168.746 712.761 168.746C716.599 168.746 719.708 165.636 719.708 161.799C719.708 157.962 716.599 154.852 712.761 154.852Z" fill="#0A165E"/>
<path d="M633.919 155.417C630.396 155.417 627.54 158.274 627.54 161.797C627.54 165.321 630.396 168.178 633.919 168.178C637.446 168.178 640.302 165.321 640.302 161.797C640.302 158.274 637.446 155.417 633.919 155.417Z" fill="#0A165E"/>
<path d="M555.088 156.269C552.112 156.269 549.561 158.679 549.561 161.799C549.561 164.918 551.968 167.328 555.088 167.328C558.207 167.328 560.618 164.918 560.618 161.799C560.618 158.679 558.207 156.269 555.088 156.269Z" fill="#0A165E"/>
<path d="M476.121 157.261C473.615 157.261 471.584 159.292 471.584 161.798C471.584 164.303 473.615 166.335 476.121 166.335C478.628 166.335 480.659 164.303 480.659 161.798C480.659 159.292 478.628 157.261 476.121 157.261Z" fill="#0A165E"/>
<path d="M397.28 158.537C395.437 158.537 394.02 159.954 394.02 161.798C394.02 163.641 395.437 165.059 397.28 165.059C399.125 165.059 400.543 163.641 400.543 161.798C400.543 159.954 399.125 158.537 397.28 158.537Z" fill="#0A165E"/>
<path d="M318.453 160.097C317.515 160.097 316.752 160.859 316.752 161.799C316.752 162.739 317.515 163.5 318.453 163.5C319.391 163.5 320.154 162.739 320.154 161.799C320.154 160.859 319.391 160.097 318.453 160.097Z" fill="#0A165E"/>
<path d="M239.628 161.375C239.628 161.375 239.204 161.517 239.204 161.8C239.204 162.083 239.347 162.225 239.628 162.225C239.913 162.225 240.053 162.083 240.053 161.8C240.053 161.517 239.913 161.375 239.628 161.375Z" fill="#0A165E"/>
<path d="M1264.86 82.6826C1264.86 82.6826 1264.58 82.6826 1264.58 82.9668C1264.58 83.251 1264.58 83.251 1264.86 83.251C1265.14 83.251 1265.14 83.251 1265.14 82.9668C1265.14 82.6826 1265.14 82.6826 1264.86 82.6826Z" fill="#0A165E"/>
<path d="M1186.03 81.9775C1185.56 81.9775 1185.18 82.3575 1185.18 82.8266C1185.18 83.2957 1185.56 83.6758 1186.03 83.6758C1186.5 83.6758 1186.88 83.2957 1186.88 82.8266C1186.88 82.3575 1186.5 81.9775 1186.03 81.9775Z" fill="#0A165E"/>
<path d="M1107.06 80.9813C1105.93 80.9813 1105.08 81.8339 1105.08 82.9672C1105.08 84.1006 1105.93 84.9531 1107.06 84.9531C1108.19 84.9531 1109.05 84.1006 1109.05 82.9672C1109.05 81.8339 1108.19 80.9813 1107.06 80.9813Z" fill="#0A165E"/>
<path d="M1028.22 79.8473C1026.52 79.8473 1025.1 81.2649 1025.1 82.9666C1025.1 84.6683 1026.52 86.0869 1028.22 86.0869C1029.93 86.0869 1031.34 84.6683 1031.34 82.9666C1031.34 81.2649 1029.93 79.8473 1028.22 79.8473Z" fill="#0A165E"/>
<path d="M949.396 79.1385C947.358 79.1385 945.708 80.7889 945.708 82.8228C945.708 84.86 947.358 86.5107 949.396 86.5107C951.43 86.5107 953.084 84.86 953.084 82.8228C953.084 80.7889 951.43 79.1385 949.396 79.1385Z" fill="#0A165E"/>
<path d="M870.563 78.7141C868.297 78.7141 866.451 80.5562 866.451 82.8264C866.451 85.093 868.297 86.9365 870.563 86.9365C872.833 86.9365 874.675 85.093 874.675 82.8264C874.675 80.5562 872.833 78.7141 870.563 78.7141Z" fill="#0A165E"/>
<path d="M791.591 78.431C789.163 78.431 787.194 80.3998 787.194 82.824C787.194 85.2516 789.163 87.2207 791.591 87.2207C794.019 87.2207 795.988 85.2516 795.988 82.824C795.988 80.3998 794.019 78.431 791.591 78.431Z" fill="#0A165E"/>
<path d="M712.761 78.7141C710.491 78.7141 708.653 80.5528 708.653 82.8264C708.653 85.0965 710.491 86.9365 712.761 86.9365C715.034 86.9365 716.873 85.0965 716.873 82.8264C716.873 80.5528 715.034 78.7141 712.761 78.7141Z" fill="#0A165E"/>
<path d="M633.929 79.1385C631.892 79.1385 630.241 80.7889 630.241 82.8228C630.241 84.86 631.892 86.5107 633.929 86.5107C635.967 86.5107 637.617 84.86 637.617 82.8228C637.617 80.7889 635.967 79.1385 633.929 79.1385Z" fill="#0A165E"/>
<path d="M555.084 79.8473C553.382 79.8473 551.964 81.2649 551.964 82.9666C551.964 84.6683 553.382 86.0869 555.084 86.0869C556.787 86.0869 558.204 84.6683 558.204 82.9666C558.204 81.2649 556.787 79.8473 555.084 79.8473Z" fill="#0A165E"/>
<path d="M476.125 80.6971C474.847 80.6971 473.995 81.6901 473.995 82.8234C473.995 83.9602 474.988 84.9531 476.125 84.9531C477.258 84.9531 478.251 83.9602 478.251 82.8234C478.251 81.6901 477.258 80.6971 476.125 80.6971Z" fill="#0A165E"/>
<path d="M397.283 81.9775C396.815 81.9775 396.435 82.3575 396.435 82.8266C396.435 83.2957 396.815 83.6758 397.283 83.6758C397.752 83.6758 398.132 83.2957 398.132 82.8266C398.132 82.3575 397.752 81.9775 397.283 81.9775Z" fill="#0A165E"/>
<path d="M318.457 82.6826C318.457 82.6826 318.172 82.6826 318.172 82.9668C318.172 83.251 318.172 83.251 318.457 83.251C318.741 83.251 318.741 83.251 318.741 82.9668C318.741 82.6826 318.741 82.6826 318.457 82.6826Z" fill="#0A165E"/>
<path d="M1107.06 3.85154C1107.06 3.85154 1106.78 3.85154 1106.78 4.13573C1106.78 4.41992 1106.78 4.41992 1107.06 4.41992C1107.34 4.41992 1107.34 4.41992 1107.34 4.13573C1107.34 3.85154 1107.34 3.85154 1107.06 3.85154Z" fill="#0A165E"/>
<path d="M1028.23 3.42719C1028.23 3.42719 1027.52 3.71138 1027.52 4.13596C1027.52 4.56053 1027.8 4.84473 1028.23 4.84473C1028.65 4.84473 1028.94 4.56053 1028.94 4.13596C1028.94 3.71138 1028.65 3.42719 1028.23 3.42719Z" fill="#0A165E"/>
<path d="M949.386 3.00283C949.386 3.00283 948.252 3.42742 948.252 4.13618C948.252 4.84495 948.677 5.26953 949.386 5.26953C950.095 5.26953 950.52 4.84495 950.52 4.13618C950.52 3.42742 950.095 3.00283 949.386 3.00283Z" fill="#0A165E"/>
<path d="M870.563 2.43444C869.714 2.43444 869.005 3.14321 869.005 3.99236C869.005 4.84494 869.714 5.55371 870.563 5.55371C871.415 5.55371 872.124 4.84494 872.124 3.99236C872.124 3.14321 871.415 2.43444 870.563 2.43444Z" fill="#0A165E"/>
<path d="M791.59 2.43444C790.741 2.43444 790.033 3.14321 790.033 3.99236C790.033 4.84494 790.741 5.55371 791.59 5.55371C792.439 5.55371 793.152 4.84494 793.152 3.99236C793.152 3.14321 792.439 2.43444 791.59 2.43444Z" fill="#0A165E"/>
<path d="M712.754 2.43444C711.901 2.43444 711.193 3.14321 711.193 3.99236C711.193 4.84494 711.901 5.55371 712.754 5.55371C713.603 5.55371 714.311 4.84494 714.311 3.99236C714.311 3.14321 713.603 2.43444 712.754 2.43444Z" fill="#0A165E"/>
<path d="M633.933 2.71864C633.224 2.71864 632.655 3.28361 632.655 3.99238C632.655 4.70114 633.224 5.26953 633.933 5.26953C634.642 5.26953 635.21 4.70114 635.21 3.99238C635.21 3.28361 634.642 2.71864 633.933 2.71864Z" fill="#0A165E"/>
<path d="M555.093 3.42719C555.093 3.42719 554.384 3.71138 554.384 4.13596C554.384 4.56053 554.668 4.84473 555.093 4.84473C555.517 4.84473 555.798 4.56053 555.798 4.13596C555.798 3.71138 555.517 3.42719 555.093 3.42719Z" fill="#0A165E"/>
<path d="M476.125 3.85154C476.125 3.85154 475.84 3.85154 475.84 4.13573C475.84 4.41992 475.84 4.41992 476.125 4.41992C476.409 4.41992 476.409 4.41992 476.409 4.13573C476.409 3.85154 476.409 3.85154 476.125 3.85154Z" fill="#0A165E"/>
</g>
</svg>
