<svg width="462" height="125" viewBox="0 0 462 125" fill="none" xmlns="http://www.w3.org/2000/svg">
<path d="M23.4794 8.92368C23.6164 8.92368 23.7274 8.81265 23.7274 8.6757C23.7274 8.53874 23.6164 8.42773 23.4794 8.42773C23.3425 8.42773 23.2314 8.53874 23.2314 8.6757C23.2314 8.81265 23.3425 8.92368 23.4794 8.92368Z" fill="#0A165E"/>
<path d="M46.5419 9.54562C47.0388 9.54562 47.4529 9.13153 47.4529 8.63463C47.4529 8.13772 47.0388 7.72363 46.5419 7.72363C46.045 7.72363 45.6309 8.13772 45.6309 8.63463C45.6309 9.13153 46.045 9.54562 46.5419 9.54562Z" fill="#0A165E"/>
<path d="M69.5653 10.2078C70.4115 10.2078 71.0974 9.52184 71.0974 8.67567C71.0974 7.8295 70.4115 7.14355 69.5653 7.14355C68.7191 7.14355 68.0332 7.8295 68.0332 8.67567C68.0332 9.52184 68.7191 10.2078 69.5653 10.2078Z" fill="#0A165E"/>
<path d="M92.5896 10.83C93.7905 10.83 94.7428 9.87755 94.7428 8.6767C94.7428 7.47584 93.7905 6.52344 92.5896 6.52344C91.3888 6.52344 90.4363 7.47584 90.4363 8.6767C90.4363 9.87755 91.3888 10.83 92.5896 10.83Z" fill="#0A165E"/>
<path d="M115.612 11.4093C117.121 11.4093 118.345 10.1857 118.345 8.67633C118.345 7.16695 117.121 5.94336 115.612 5.94336C114.103 5.94336 112.879 7.16695 112.879 8.67633C112.879 10.1857 114.103 11.4093 115.612 11.4093Z" fill="#0A165E"/>
<path d="M138.679 11.9058C140.459 11.9058 141.95 10.4565 141.95 8.63457C141.95 6.81259 140.501 5.36328 138.679 5.36328C136.857 5.36328 135.407 6.81259 135.407 8.63457C135.407 10.4565 136.857 11.9058 138.679 11.9058Z" fill="#0A165E"/>
<path d="M161.7 12.4445C163.771 12.4445 165.468 10.7468 165.468 8.67639C165.468 6.60596 163.771 4.9082 161.7 4.9082C159.63 4.9082 157.932 6.60596 157.932 8.67639C157.932 10.7468 159.63 12.4445 161.7 12.4445Z" fill="#0A165E"/>
<path d="M184.724 12.776C186.988 12.776 188.824 10.9406 188.824 8.67661C188.824 6.41254 186.988 4.57715 184.724 4.57715C182.46 4.57715 180.625 6.41254 180.625 8.67661C180.625 10.9406 182.46 12.776 184.724 12.776Z" fill="#0A165E"/>
<path d="M207.747 12.9819C210.149 12.9819 212.095 11.0357 212.095 8.63404C212.095 6.23234 210.149 4.28613 207.747 4.28613C205.346 4.28613 203.399 6.23234 203.399 8.63404C203.399 11.0357 205.346 12.9819 207.747 12.9819Z" fill="#0A165E"/>
<path d="M230.811 13.0648C233.235 13.0648 235.201 11.0996 235.201 8.67545C235.201 6.25129 233.235 4.28613 230.811 4.28613C228.387 4.28613 226.422 6.25129 226.422 8.67545C226.422 11.0996 228.387 13.0648 230.811 13.0648Z" fill="#0A165E"/>
<path d="M253.836 13.0239C256.238 13.0239 258.184 11.0773 258.184 8.67603C258.184 6.27476 256.238 4.32812 253.836 4.32812C251.435 4.32812 249.488 6.27476 249.488 8.67603C249.488 11.0773 251.435 13.0239 253.836 13.0239Z" fill="#0A165E"/>
<path d="M276.859 12.776C279.123 12.776 280.959 10.9406 280.959 8.67661C280.959 6.41254 279.123 4.57715 276.859 4.57715C274.595 4.57715 272.76 6.41254 272.76 8.67661C272.76 10.9406 274.595 12.776 276.859 12.776Z" fill="#0A165E"/>
<path d="M299.881 12.4445C301.951 12.4445 303.649 10.7468 303.649 8.67639C303.649 6.60596 301.951 4.9082 299.881 4.9082C297.81 4.9082 296.112 6.60596 296.112 8.67639C296.112 10.7468 297.81 12.4445 299.881 12.4445Z" fill="#0A165E"/>
<path d="M322.948 11.9887C324.777 11.9887 326.26 10.5055 326.26 8.67598C326.26 6.84642 324.777 5.36328 322.948 5.36328C321.118 5.36328 319.635 6.84642 319.635 8.67598C319.635 10.5055 321.118 11.9887 322.948 11.9887Z" fill="#0A165E"/>
<path d="M345.971 11.4919C347.526 11.4919 348.787 10.2312 348.787 8.67614C348.787 7.12102 347.526 5.86035 345.971 5.86035C344.416 5.86035 343.155 7.12102 343.155 8.67614C343.155 10.2312 344.416 11.4919 345.971 11.4919Z" fill="#0A165E"/>
<path d="M368.995 10.9116C370.237 10.9116 371.231 9.91777 371.231 8.67551C371.231 7.43325 370.237 6.43945 368.995 6.43945C367.753 6.43945 366.759 7.43325 366.759 8.67551C366.759 9.91777 367.753 10.9116 368.995 10.9116Z" fill="#0A165E"/>
<path d="M392.017 10.2914C392.909 10.2914 393.632 9.56836 393.632 8.67645C393.632 7.78455 392.909 7.06152 392.017 7.06152C391.125 7.06152 390.402 7.78455 390.402 8.67645C390.402 9.56836 391.125 10.2914 392.017 10.2914Z" fill="#0A165E"/>
<path d="M415.08 9.62843C415.619 9.62843 416.033 9.21434 416.033 8.67603C416.033 8.13771 415.619 7.72363 415.08 7.72363C414.542 7.72363 414.128 8.13771 414.128 8.67603C414.128 9.21434 414.542 9.62843 415.08 9.62843Z" fill="#0A165E"/>
<path d="M438.105 8.92368C438.242 8.92368 438.353 8.81265 438.353 8.6757C438.353 8.53874 438.242 8.42773 438.105 8.42773C437.968 8.42773 437.857 8.53874 437.857 8.6757C437.857 8.81265 437.968 8.92368 438.105 8.92368Z" fill="#0A165E"/>
<path d="M23.4801 31.7405C23.4801 31.7405 23.5627 31.7405 23.5627 31.6578C23.5627 31.5752 23.5627 31.5752 23.4801 31.5752C23.3974 31.5752 23.3975 31.5752 23.3975 31.6578C23.3975 31.7405 23.3974 31.7405 23.4801 31.7405Z" fill="#0A165E"/>
<path d="M46.5425 32.155C46.794 32.155 46.9979 31.9511 46.9979 31.6996C46.9979 31.448 46.794 31.2441 46.5425 31.2441C46.2909 31.2441 46.0869 31.448 46.0869 31.6996C46.0869 31.9511 46.2909 32.155 46.5425 32.155Z" fill="#0A165E"/>
<path d="M69.5659 32.7754C70.1456 32.7754 70.6425 32.2785 70.6425 31.6987C70.6425 31.119 70.1456 30.6221 69.5659 30.6221C68.9862 30.6221 68.4893 31.119 68.4893 31.6987C68.4893 32.2785 68.9862 32.7754 69.5659 32.7754Z" fill="#0A165E"/>
<path d="M92.5898 33.3557C93.5008 33.3557 94.2461 32.6104 94.2461 31.6994C94.2461 30.7884 93.5008 30.043 92.5898 30.043C91.6788 30.043 90.9333 30.7884 90.9333 31.6994C90.9333 32.6104 91.6788 33.3557 92.5898 33.3557Z" fill="#0A165E"/>
<path d="M115.615 33.8524C116.816 33.8524 117.768 32.9 117.768 31.6992C117.768 30.4983 116.816 29.5459 115.615 29.5459C114.414 29.5459 113.462 30.4983 113.462 31.6992C113.462 32.9 114.414 33.8524 115.615 33.8524Z" fill="#0A165E"/>
<path d="M138.68 34.3073C140.121 34.3073 141.289 33.1394 141.289 31.6986C141.289 30.2578 140.121 29.0898 138.68 29.0898C137.239 29.0898 136.071 30.2578 136.071 31.6986C136.071 33.1394 137.239 34.3073 138.68 34.3073Z" fill="#0A165E"/>
<path d="M161.699 34.7633C163.391 34.7633 164.763 33.3914 164.763 31.6991C164.763 30.0067 163.391 28.6348 161.699 28.6348C160.007 28.6348 158.635 30.0067 158.635 31.6991C158.635 33.3914 160.007 34.7633 161.699 34.7633Z" fill="#0A165E"/>
<path d="M184.722 35.0121C186.552 35.0121 188.035 33.529 188.035 31.6994C188.035 29.8699 186.552 28.3867 184.722 28.3867C182.892 28.3867 181.409 29.8699 181.409 31.6994C181.409 33.529 182.892 35.0121 184.722 35.0121Z" fill="#0A165E"/>
<path d="M207.747 35.261C209.714 35.261 211.308 33.6666 211.308 31.6998C211.308 29.7331 209.714 28.1387 207.747 28.1387C205.78 28.1387 204.186 29.7331 204.186 31.6998C204.186 33.6666 205.78 35.261 207.747 35.261Z" fill="#0A165E"/>
<path d="M230.814 35.3436C232.826 35.3436 234.458 33.7122 234.458 31.6996C234.458 29.6871 232.826 28.0557 230.814 28.0557C228.801 28.0557 227.17 29.6871 227.17 31.6996C227.17 33.7122 228.801 35.3436 230.814 35.3436Z" fill="#0A165E"/>
<path d="M253.837 35.261C255.803 35.261 257.398 33.6666 257.398 31.6998C257.398 29.7331 255.803 28.1387 253.837 28.1387C251.87 28.1387 250.275 29.7331 250.275 31.6998C250.275 33.6666 251.87 35.261 253.837 35.261Z" fill="#0A165E"/>
<path d="M276.859 35.0947C278.735 35.0947 280.255 33.5745 280.255 31.6992C280.255 29.8239 278.735 28.3037 276.859 28.3037C274.984 28.3037 273.464 29.8239 273.464 31.6992C273.464 33.5745 274.984 35.0947 276.859 35.0947Z" fill="#0A165E"/>
<path d="M299.881 34.7633C301.578 34.7633 302.945 33.3968 302.945 31.6991C302.945 30.0013 301.578 28.6348 299.881 28.6348C298.183 28.6348 296.816 30.0013 296.816 31.6991C296.816 33.3968 298.183 34.7633 299.881 34.7633Z" fill="#0A165E"/>
<path d="M322.946 34.39C324.436 34.39 325.637 33.1891 325.637 31.6984C325.637 30.2077 324.436 29.0068 322.946 29.0068C321.455 29.0068 320.254 30.2077 320.254 31.6984C320.254 33.1891 321.455 34.39 322.946 34.39Z" fill="#0A165E"/>
<path d="M345.97 33.935C347.212 33.935 348.205 32.9412 348.205 31.699C348.205 30.4567 347.212 29.4629 345.97 29.4629C344.727 29.4629 343.733 30.4567 343.733 31.699C343.733 32.9412 344.727 33.935 345.97 33.935Z" fill="#0A165E"/>
<path d="M368.992 33.3557C369.903 33.3557 370.649 32.6104 370.649 31.6994C370.649 30.7884 369.903 30.043 368.992 30.043C368.081 30.043 367.336 30.7884 367.336 31.6994C367.336 32.6104 368.081 33.3557 368.992 33.3557Z" fill="#0A165E"/>
<path d="M392.018 32.7754C392.613 32.7754 393.095 32.2933 393.095 31.6987C393.095 31.1041 392.613 30.6221 392.018 30.6221C391.423 30.6221 390.941 31.1041 390.941 31.6987C390.941 32.2933 391.423 32.7754 392.018 32.7754Z" fill="#0A165E"/>
<path d="M415.082 32.1959C415.356 32.1959 415.579 31.9734 415.579 31.699C415.579 31.4246 415.356 31.2021 415.082 31.2021C414.807 31.2021 414.585 31.4246 414.585 31.699C414.585 31.9734 414.807 32.1959 415.082 32.1959Z" fill="#0A165E"/>
<path d="M438.106 31.7405C438.106 31.7405 438.189 31.7405 438.189 31.6578C438.189 31.5752 438.189 31.5752 438.106 31.5752C438.024 31.5752 438.023 31.5752 438.023 31.6578C438.023 31.7405 438.024 31.7405 438.106 31.7405Z" fill="#0A165E"/>
<path d="M46.5427 54.8049C46.5427 54.8049 46.6253 54.8049 46.6253 54.7223C46.6253 54.6396 46.6254 54.6396 46.5427 54.6396C46.46 54.6396 46.46 54.6396 46.46 54.7223C46.46 54.8049 46.46 54.8049 46.5427 54.8049Z" fill="#0A165E"/>
<path d="M69.5681 55.303C69.8993 55.303 70.1477 55.0546 70.1477 54.7233C70.1477 54.392 69.8993 54.1436 69.5681 54.1436C69.2368 54.1436 68.9883 54.392 68.9883 54.7233C68.9883 55.0546 69.2368 55.303 69.5681 55.303Z" fill="#0A165E"/>
<path d="M92.5884 55.7998C93.1681 55.7998 93.6651 55.3029 93.6651 54.7231C93.6651 54.1434 93.1681 53.6465 92.5884 53.6465C92.0087 53.6465 91.5117 54.1434 91.5117 54.7231C91.5117 55.3029 92.0087 55.7998 92.5884 55.7998Z" fill="#0A165E"/>
<path d="M115.613 56.2547C116.441 56.2547 117.145 55.5507 117.145 54.7226C117.145 53.8944 116.441 53.1904 115.613 53.1904C114.785 53.1904 114.081 53.8944 114.081 54.7226C114.081 55.5507 114.785 56.2547 115.613 56.2547Z" fill="#0A165E"/>
<path d="M138.677 56.7097C139.754 56.7097 140.665 55.8401 140.665 54.7221C140.665 53.604 139.795 52.7344 138.677 52.7344C137.559 52.7344 136.689 53.604 136.689 54.7221C136.689 55.8401 137.559 56.7097 138.677 56.7097Z" fill="#0A165E"/>
<path d="M161.702 57.0829C163.027 57.0829 164.062 56.0063 164.062 54.7226C164.062 53.4389 162.986 52.3623 161.702 52.3623C160.418 52.3623 159.342 53.4389 159.342 54.7226C159.342 56.0063 160.418 57.0829 161.702 57.0829Z" fill="#0A165E"/>
<path d="M184.727 57.3318C186.176 57.3318 187.336 56.1724 187.336 54.7231C187.336 53.2738 186.176 52.1143 184.727 52.1143C183.278 52.1143 182.118 53.2738 182.118 54.7231C182.118 56.1724 183.278 57.3318 184.727 57.3318Z" fill="#0A165E"/>
<path d="M207.747 57.4553C209.279 57.4553 210.48 56.213 210.48 54.7223C210.48 53.2316 209.237 51.9893 207.747 51.9893C206.256 51.9893 205.014 53.2316 205.014 54.7223C205.014 56.213 206.256 57.4553 207.747 57.4553Z" fill="#0A165E"/>
<path d="M230.811 57.5378C232.343 57.5378 233.627 56.2956 233.627 54.722C233.627 53.1485 232.385 51.9062 230.811 51.9062C229.237 51.9062 227.995 53.1485 227.995 54.722C227.995 56.2956 229.237 57.5378 230.811 57.5378Z" fill="#0A165E"/>
<path d="M253.836 57.5378C255.368 57.5378 256.652 56.2956 256.652 54.722C256.652 53.1485 255.41 51.9062 253.836 51.9062C252.263 51.9062 251.021 53.1485 251.021 54.722C251.021 56.2956 252.263 57.5378 253.836 57.5378Z" fill="#0A165E"/>
<path d="M276.86 57.3318C278.31 57.3318 279.469 56.1724 279.469 54.7231C279.469 53.2738 278.31 52.1143 276.86 52.1143C275.411 52.1143 274.252 53.2738 274.252 54.7231C274.252 56.1724 275.411 57.3318 276.86 57.3318Z" fill="#0A165E"/>
<path d="M299.88 57.0829C301.205 57.0829 302.24 56.0063 302.24 54.7226C302.24 53.4389 301.164 52.3623 299.88 52.3623C298.596 52.3623 297.52 53.4389 297.52 54.7226C297.52 56.0063 298.596 57.0829 299.88 57.0829Z" fill="#0A165E"/>
<path d="M322.947 56.7515C324.065 56.7515 324.976 55.8405 324.976 54.7224C324.976 53.6044 324.065 52.6934 322.947 52.6934C321.829 52.6934 320.918 53.6044 320.918 54.7224C320.918 55.8405 321.829 56.7515 322.947 56.7515Z" fill="#0A165E"/>
<path d="M345.97 56.3373C346.84 56.3373 347.585 55.6334 347.585 54.7224C347.585 53.8114 346.881 53.1074 345.97 53.1074C345.059 53.1074 344.355 53.8114 344.355 54.7224C344.355 55.6334 345.059 56.3373 345.97 56.3373Z" fill="#0A165E"/>
<path d="M368.993 55.7998C369.572 55.7998 370.069 55.3029 370.069 54.7231C370.069 54.1434 369.572 53.6465 368.993 53.6465C368.413 53.6465 367.916 54.1434 367.916 54.7231C367.916 55.3029 368.413 55.7998 368.993 55.7998Z" fill="#0A165E"/>
<path d="M392.018 55.303C392.35 55.303 392.598 55.0546 392.598 54.7233C392.598 54.392 392.35 54.1436 392.018 54.1436C391.687 54.1436 391.438 54.392 391.438 54.7233C391.438 55.0546 391.687 55.303 392.018 55.303Z" fill="#0A165E"/>
<path d="M415.081 54.8466C415.081 54.8466 415.205 54.8052 415.205 54.7226C415.205 54.6399 415.164 54.5986 415.081 54.5986C414.998 54.5986 414.957 54.6399 414.957 54.7226C414.957 54.8052 414.998 54.8466 415.081 54.8466Z" fill="#0A165E"/>
<path d="M69.5681 77.8274C69.5681 77.8274 69.6507 77.8274 69.6507 77.7448C69.6507 77.6621 69.6507 77.6621 69.5681 77.6621C69.4854 77.6621 69.4854 77.6621 69.4854 77.7448C69.4854 77.8274 69.4854 77.8274 69.5681 77.8274Z" fill="#0A165E"/>
<path d="M92.5896 78.201C92.838 78.201 93.045 77.9939 93.045 77.7455C93.045 77.497 92.838 77.29 92.5896 77.29C92.3411 77.29 92.134 77.497 92.134 77.7455C92.134 77.9939 92.3411 78.201 92.5896 78.201Z" fill="#0A165E"/>
<path d="M115.614 78.657C116.111 78.657 116.525 78.2429 116.525 77.746C116.525 77.2491 116.111 76.835 115.614 76.835C115.117 76.835 114.703 77.2491 114.703 77.746C114.703 78.2429 115.117 78.657 115.614 78.657Z" fill="#0A165E"/>
<path d="M138.677 79.0292C139.386 79.0292 139.961 78.4545 139.961 77.7455C139.961 77.0366 139.386 76.4619 138.677 76.4619C137.968 76.4619 137.394 77.0366 137.394 77.7455C137.394 78.4545 137.968 79.0292 138.677 79.0292Z" fill="#0A165E"/>
<path d="M161.702 79.3607C162.571 79.3607 163.317 78.6568 163.317 77.7458C163.317 76.8348 162.613 76.1309 161.702 76.1309C160.791 76.1309 160.087 76.8348 160.087 77.7458C160.087 78.6568 160.791 79.3607 161.702 79.3607Z" fill="#0A165E"/>
<path d="M184.725 79.6096C185.754 79.6096 186.588 78.7753 186.588 77.7462C186.588 76.717 185.754 75.8828 184.725 75.8828C183.696 75.8828 182.861 76.717 182.861 77.7462C182.861 78.7753 183.696 79.6096 184.725 79.6096Z" fill="#0A165E"/>
<path d="M207.749 79.733C208.826 79.733 209.737 78.8635 209.737 77.7454C209.737 76.6274 208.867 75.7578 207.749 75.7578C206.631 75.7578 205.762 76.6274 205.762 77.7454C205.762 78.8635 206.631 79.733 207.749 79.733Z" fill="#0A165E"/>
<path d="M230.813 79.7748C231.934 79.7748 232.842 78.8664 232.842 77.7458C232.842 76.6252 231.934 75.7168 230.813 75.7168C229.693 75.7168 228.784 76.6252 228.784 77.7458C228.784 78.8664 229.693 79.7748 230.813 79.7748Z" fill="#0A165E"/>
<path d="M253.834 79.7748C254.954 79.7748 255.863 78.8664 255.863 77.7458C255.863 76.6252 254.954 75.7168 253.834 75.7168C252.713 75.7168 251.805 76.6252 251.805 77.7458C251.805 78.8664 252.713 79.7748 253.834 79.7748Z" fill="#0A165E"/>
<path d="M276.86 79.6096C277.889 79.6096 278.723 78.7753 278.723 77.7462C278.723 76.717 277.889 75.8828 276.86 75.8828C275.83 75.8828 274.996 76.717 274.996 77.7462C274.996 78.7753 275.83 79.6096 276.86 79.6096Z" fill="#0A165E"/>
<path d="M299.883 79.3607C300.752 79.3607 301.497 78.6568 301.497 77.7458C301.497 76.8348 300.794 76.1309 299.883 76.1309C298.972 76.1309 298.268 76.8348 298.268 77.7458C298.268 78.6568 298.972 79.3607 299.883 79.3607Z" fill="#0A165E"/>
<path d="M322.946 79.0711C323.678 79.0711 324.271 78.4778 324.271 77.746C324.271 77.0142 323.678 76.4209 322.946 76.4209C322.214 76.4209 321.621 77.0142 321.621 77.746C321.621 78.4778 322.214 79.0711 322.946 79.0711Z" fill="#0A165E"/>
<path d="M345.972 78.6987C346.51 78.6987 346.924 78.2846 346.924 77.7463C346.924 77.2079 346.51 76.7939 345.972 76.7939C345.433 76.7939 345.019 77.2079 345.019 77.7463C345.019 78.2846 345.433 78.6987 345.972 78.6987Z" fill="#0A165E"/>
<path d="M368.994 78.2428C369.268 78.2428 369.491 78.0203 369.491 77.7459C369.491 77.4714 369.268 77.249 368.994 77.249C368.72 77.249 368.497 77.4714 368.497 77.7459C368.497 78.0203 368.72 78.2428 368.994 78.2428Z" fill="#0A165E"/>
<path d="M392.015 77.8691C392.015 77.8691 392.139 77.8278 392.139 77.7451C392.139 77.6625 392.097 77.6211 392.015 77.6211C391.932 77.6211 391.891 77.6625 391.891 77.7451C391.891 77.8278 391.932 77.8691 392.015 77.8691Z" fill="#0A165E"/>
<path d="M92.5896 100.852C92.5896 100.852 92.6722 100.852 92.6722 100.769C92.6722 100.686 92.6722 100.686 92.5896 100.686C92.5069 100.686 92.5068 100.686 92.5068 100.769C92.5068 100.852 92.5069 100.852 92.5896 100.852Z" fill="#0A165E"/>
<path d="M115.613 101.058C115.75 101.058 115.861 100.947 115.861 100.81C115.861 100.673 115.75 100.562 115.613 100.562C115.476 100.562 115.365 100.673 115.365 100.81C115.365 100.947 115.476 101.058 115.613 101.058Z" fill="#0A165E"/>
<path d="M138.676 101.349C139.007 101.349 139.256 101.1 139.256 100.769C139.256 100.438 139.007 100.189 138.676 100.189C138.345 100.189 138.096 100.438 138.096 100.769C138.096 101.1 138.345 101.349 138.676 101.349Z" fill="#0A165E"/>
<path d="M161.701 101.68C162.198 101.68 162.612 101.266 162.612 100.769C162.612 100.272 162.198 99.8574 161.701 99.8574C161.204 99.8574 160.79 100.272 160.79 100.769C160.79 101.266 161.204 101.68 161.701 101.68Z" fill="#0A165E"/>
<path d="M184.723 101.887C185.318 101.887 185.8 101.405 185.8 100.811C185.8 100.216 185.318 99.7344 184.723 99.7344C184.129 99.7344 183.646 100.216 183.646 100.811C183.646 101.405 184.129 101.887 184.723 101.887Z" fill="#0A165E"/>
<path d="M207.747 102.011C208.409 102.011 208.948 101.473 208.948 100.81C208.948 100.148 208.409 99.6094 207.747 99.6094C207.084 99.6094 206.546 100.148 206.546 100.81C206.546 101.473 207.084 102.011 207.747 102.011Z" fill="#0A165E"/>
<path d="M230.811 102.094C231.52 102.094 232.095 101.519 232.095 100.811C232.095 100.102 231.52 99.5273 230.811 99.5273C230.102 99.5273 229.527 100.102 229.527 100.811C229.527 101.519 230.102 102.094 230.811 102.094Z" fill="#0A165E"/>
<path d="M253.834 102.011C254.497 102.011 255.034 101.474 255.034 100.81C255.034 100.147 254.497 99.6094 253.834 99.6094C253.17 99.6094 252.633 100.147 252.633 100.81C252.633 101.474 253.17 102.011 253.834 102.011Z" fill="#0A165E"/>
<path d="M276.857 101.887C277.452 101.887 277.934 101.405 277.934 100.811C277.934 100.216 277.452 99.7344 276.857 99.7344C276.262 99.7344 275.78 100.216 275.78 100.811C275.78 101.405 276.262 101.887 276.857 101.887Z" fill="#0A165E"/>
<path d="M299.884 101.68C300.381 101.68 300.795 101.266 300.795 100.769C300.795 100.272 300.381 99.8574 299.884 99.8574C299.387 99.8574 298.973 100.272 298.973 100.769C298.973 101.266 299.387 101.68 299.884 101.68Z" fill="#0A165E"/>
<path d="M322.945 101.432C323.318 101.432 323.567 101.142 323.567 100.811C323.567 100.479 323.277 100.189 322.945 100.189C322.614 100.189 322.324 100.479 322.324 100.811C322.324 101.142 322.614 101.432 322.945 101.432Z" fill="#0A165E"/>
<path d="M345.971 101.058C346.108 101.058 346.219 100.947 346.219 100.81C346.219 100.673 346.108 100.562 345.971 100.562C345.834 100.562 345.723 100.673 345.723 100.81C345.723 100.947 345.834 101.058 345.971 101.058Z" fill="#0A165E"/>
<path d="M368.993 100.852C368.993 100.852 369.076 100.852 369.076 100.769C369.076 100.686 369.076 100.686 368.993 100.686C368.91 100.686 368.91 100.686 368.91 100.769C368.91 100.852 368.91 100.852 368.993 100.852Z" fill="#0A165E"/>
<path d="M138.676 123.875C138.676 123.875 138.759 123.875 138.759 123.792C138.759 123.709 138.759 123.709 138.676 123.709C138.594 123.709 138.594 123.709 138.594 123.792C138.594 123.875 138.594 123.875 138.676 123.875Z" fill="#0A165E"/>
<path d="M161.7 123.999C161.7 123.999 161.906 123.916 161.906 123.792C161.906 123.668 161.824 123.585 161.7 123.585C161.576 123.585 161.493 123.668 161.493 123.792C161.493 123.916 161.576 123.999 161.7 123.999Z" fill="#0A165E"/>
<path d="M184.726 124.123C184.726 124.123 185.057 123.999 185.057 123.792C185.057 123.585 184.933 123.461 184.726 123.461C184.519 123.461 184.395 123.585 184.395 123.792C184.395 123.999 184.519 124.123 184.726 124.123Z" fill="#0A165E"/>
<path d="M207.747 124.289C207.995 124.289 208.202 124.082 208.202 123.834C208.202 123.585 207.995 123.378 207.747 123.378C207.498 123.378 207.291 123.585 207.291 123.834C207.291 124.082 207.498 124.289 207.747 124.289Z" fill="#0A165E"/>
<path d="M230.811 124.289C231.059 124.289 231.266 124.082 231.266 123.834C231.266 123.585 231.059 123.378 230.811 123.378C230.563 123.378 230.355 123.585 230.355 123.834C230.355 124.082 230.563 124.289 230.811 124.289Z" fill="#0A165E"/>
<path d="M253.836 124.289C254.085 124.289 254.292 124.082 254.292 123.834C254.292 123.585 254.085 123.378 253.836 123.378C253.588 123.378 253.381 123.585 253.381 123.834C253.381 124.082 253.588 124.289 253.836 124.289Z" fill="#0A165E"/>
<path d="M276.856 124.206C277.063 124.206 277.229 124.041 277.229 123.834C277.229 123.627 277.063 123.461 276.856 123.461C276.649 123.461 276.483 123.627 276.483 123.834C276.483 124.041 276.649 124.206 276.856 124.206Z" fill="#0A165E"/>
<path d="M299.882 123.999C299.882 123.999 300.089 123.916 300.089 123.792C300.089 123.668 300.006 123.585 299.882 123.585C299.758 123.585 299.676 123.668 299.676 123.792C299.676 123.916 299.758 123.999 299.882 123.999Z" fill="#0A165E"/>
<path d="M322.945 123.875C322.945 123.875 323.028 123.875 323.028 123.792C323.028 123.709 323.028 123.709 322.945 123.709C322.862 123.709 322.862 123.709 322.862 123.792C322.862 123.875 322.862 123.875 322.945 123.875Z" fill="#0A165E"/>
</svg>
