<svg width="462" height="125" viewBox="0 0 462 125" fill="none" xmlns="http://www.w3.org/2000/svg">
<path d="M438.521 116.076C438.384 116.076 438.273 116.187 438.273 116.324C438.273 116.461 438.384 116.572 438.521 116.572C438.658 116.572 438.769 116.461 438.769 116.324C438.769 116.187 438.658 116.076 438.521 116.076Z" fill="#0A165E"/>
<path d="M415.458 115.454C414.961 115.454 414.547 115.868 414.547 116.365C414.547 116.862 414.961 117.276 415.458 117.276C415.955 117.276 416.369 116.862 416.369 116.365C416.369 115.868 415.955 115.454 415.458 115.454Z" fill="#0A165E"/>
<path d="M392.435 114.792C391.589 114.792 390.903 115.478 390.903 116.324C390.903 117.17 391.589 117.856 392.435 117.856C393.281 117.856 393.967 117.17 393.967 116.324C393.967 115.478 393.281 114.792 392.435 114.792Z" fill="#0A165E"/>
<path d="M369.41 114.17C368.209 114.17 367.257 115.122 367.257 116.323C367.257 117.524 368.209 118.477 369.41 118.477C370.611 118.477 371.564 117.524 371.564 116.323C371.564 115.122 370.611 114.17 369.41 114.17Z" fill="#0A165E"/>
<path d="M346.388 113.591C344.879 113.591 343.655 114.814 343.655 116.324C343.655 117.833 344.879 119.057 346.388 119.057C347.897 119.057 349.121 117.833 349.121 116.324C349.121 114.814 347.897 113.591 346.388 113.591Z" fill="#0A165E"/>
<path d="M323.321 113.094C321.541 113.094 320.05 114.543 320.05 116.365C320.05 118.187 321.499 119.637 323.321 119.637C325.143 119.637 326.593 118.187 326.593 116.365C326.593 114.543 325.143 113.094 323.321 113.094Z" fill="#0A165E"/>
<path d="M300.3 112.555C298.229 112.555 296.532 114.253 296.532 116.324C296.532 118.394 298.229 120.092 300.3 120.092C302.37 120.092 304.068 118.394 304.068 116.324C304.068 114.253 302.37 112.555 300.3 112.555Z" fill="#0A165E"/>
<path d="M277.276 112.224C275.012 112.224 273.176 114.059 273.176 116.323C273.176 118.587 275.012 120.423 277.276 120.423C279.54 120.423 281.375 118.587 281.375 116.323C281.375 114.059 279.54 112.224 277.276 112.224Z" fill="#0A165E"/>
<path d="M254.253 112.018C251.851 112.018 249.905 113.964 249.905 116.366C249.905 118.768 251.851 120.714 254.253 120.714C256.654 120.714 258.601 118.768 258.601 116.366C258.601 113.964 256.654 112.018 254.253 112.018Z" fill="#0A165E"/>
<path d="M231.189 111.935C228.765 111.935 226.799 113.9 226.799 116.325C226.799 118.749 228.765 120.714 231.189 120.714C233.613 120.714 235.578 118.749 235.578 116.325C235.578 113.9 233.613 111.935 231.189 111.935Z" fill="#0A165E"/>
<path d="M208.164 111.976C205.762 111.976 203.816 113.923 203.816 116.324C203.816 118.725 205.762 120.672 208.164 120.672C210.565 120.672 212.512 118.725 212.512 116.324C212.512 113.923 210.565 111.976 208.164 111.976Z" fill="#0A165E"/>
<path d="M185.141 112.224C182.877 112.224 181.041 114.059 181.041 116.323C181.041 118.587 182.877 120.423 185.141 120.423C187.405 120.423 189.24 118.587 189.24 116.323C189.24 114.059 187.405 112.224 185.141 112.224Z" fill="#0A165E"/>
<path d="M162.119 112.555C160.049 112.555 158.351 114.253 158.351 116.324C158.351 118.394 160.049 120.092 162.119 120.092C164.19 120.092 165.888 118.394 165.888 116.324C165.888 114.253 164.19 112.555 162.119 112.555Z" fill="#0A165E"/>
<path d="M139.052 113.011C137.223 113.011 135.74 114.494 135.74 116.324C135.74 118.154 137.223 119.637 139.052 119.637C140.882 119.637 142.365 118.154 142.365 116.324C142.365 114.494 140.882 113.011 139.052 113.011Z" fill="#0A165E"/>
<path d="M116.029 113.508C114.474 113.508 113.213 114.769 113.213 116.324C113.213 117.879 114.474 119.14 116.029 119.14C117.584 119.14 118.845 117.879 118.845 116.324C118.845 114.769 117.584 113.508 116.029 113.508Z" fill="#0A165E"/>
<path d="M93.005 114.088C91.763 114.088 90.769 115.082 90.769 116.324C90.769 117.567 91.763 118.561 93.005 118.561C94.247 118.561 95.241 117.567 95.241 116.324C95.241 115.082 94.247 114.088 93.005 114.088Z" fill="#0A165E"/>
<path d="M69.983 114.709C69.091 114.709 68.368 115.432 68.368 116.324C68.368 117.215 69.091 117.938 69.983 117.938C70.875 117.938 71.598 117.215 71.598 116.324C71.598 115.432 70.875 114.709 69.983 114.709Z" fill="#0A165E"/>
<path d="M46.92 115.372C46.381 115.372 45.967 115.786 45.967 116.324C45.967 116.862 46.381 117.276 46.92 117.276C47.458 117.276 47.872 116.862 47.872 116.324C47.872 115.786 47.458 115.372 46.92 115.372Z" fill="#0A165E"/>
<path d="M23.895 116.076C23.758 116.076 23.647 116.187 23.647 116.324C23.647 116.461 23.758 116.572 23.895 116.572C24.032 116.572 24.143 116.461 24.143 116.324C24.143 116.187 24.032 116.076 23.895 116.076Z" fill="#0A165E"/>
<path d="M438.52 93.2595C438.52 93.2595 438.437 93.2595 438.437 93.3422C438.437 93.4248 438.437 93.4248 438.52 93.4248C438.603 93.4248 438.603 93.4248 438.603 93.3422C438.603 93.2595 438.603 93.2595 438.52 93.2595Z" fill="#0A165E"/>
<path d="M415.457 92.845C415.206 92.845 415.002 93.0489 415.002 93.3004C415.002 93.552 415.206 93.7559 415.457 93.7559C415.709 93.7559 415.913 93.552 415.913 93.3004C415.913 93.0489 415.709 92.845 415.457 92.845Z" fill="#0A165E"/>
<path d="M392.434 92.2246C391.854 92.2246 391.357 92.7215 391.357 93.3013C391.357 93.881 391.854 94.3779 392.434 94.3779C393.014 94.3779 393.511 93.881 393.511 93.3013C393.511 92.7215 393.014 92.2246 392.434 92.2246Z" fill="#0A165E"/>
<path d="M369.41 91.6443C368.499 91.6443 367.754 92.3896 367.754 93.3006C367.754 94.2116 368.499 94.957 369.41 94.957C370.321 94.957 371.067 94.2116 371.067 93.3006C371.067 92.3896 370.321 91.6443 369.41 91.6443Z" fill="#0A165E"/>
<path d="M346.385 91.1476C345.184 91.1476 344.232 92.1 344.232 93.3008C344.232 94.5017 345.184 95.4541 346.385 95.4541C347.586 95.4541 348.538 94.5017 348.538 93.3008C348.538 92.1 347.586 91.1476 346.385 91.1476Z" fill="#0A165E"/>
<path d="M323.32 90.6927C321.879 90.6927 320.711 91.8606 320.711 93.3014C320.711 94.7422 321.879 95.9102 323.32 95.9102C324.761 95.9102 325.929 94.7422 325.929 93.3014C325.929 91.8606 324.761 90.6927 323.32 90.6927Z" fill="#0A165E"/>
<path d="M300.301 90.2367C298.609 90.2367 297.237 91.6086 297.237 93.3009C297.237 94.9933 298.609 96.3652 300.301 96.3652C301.993 96.3652 303.365 94.9933 303.365 93.3009C303.365 91.6086 301.993 90.2367 300.301 90.2367Z" fill="#0A165E"/>
<path d="M277.278 89.9879C275.448 89.9879 273.965 91.471 273.965 93.3006C273.965 95.1301 275.448 96.6133 277.278 96.6133C279.108 96.6133 280.591 95.1301 280.591 93.3006C280.591 91.471 279.108 89.9879 277.278 89.9879Z" fill="#0A165E"/>
<path d="M254.253 89.739C252.286 89.739 250.692 91.3334 250.692 93.3002C250.692 95.2669 252.286 96.8613 254.253 96.8613C256.22 96.8613 257.814 95.2669 257.814 93.3002C257.814 91.3334 256.22 89.739 254.253 89.739Z" fill="#0A165E"/>
<path d="M231.186 89.6564C229.174 89.6564 227.542 91.2878 227.542 93.3004C227.542 95.3129 229.174 96.9443 231.186 96.9443C233.199 96.9443 234.83 95.3129 234.83 93.3004C234.83 91.2878 233.199 89.6564 231.186 89.6564Z" fill="#0A165E"/>
<path d="M208.163 89.739C206.197 89.739 204.602 91.3334 204.602 93.3002C204.602 95.2669 206.197 96.8613 208.163 96.8613C210.13 96.8613 211.725 95.2669 211.725 93.3002C211.725 91.3334 210.13 89.739 208.163 89.739Z" fill="#0A165E"/>
<path d="M185.141 89.9053C183.265 89.9053 181.745 91.4255 181.745 93.3008C181.745 95.1761 183.265 96.6963 185.141 96.6963C187.016 96.6963 188.536 95.1761 188.536 93.3008C188.536 91.4255 187.016 89.9053 185.141 89.9053Z" fill="#0A165E"/>
<path d="M162.119 90.2367C160.422 90.2367 159.055 91.6032 159.055 93.3009C159.055 94.9987 160.422 96.3652 162.119 96.3652C163.817 96.3652 165.184 94.9987 165.184 93.3009C165.184 91.6032 163.817 90.2367 162.119 90.2367Z" fill="#0A165E"/>
<path d="M139.054 90.61C137.564 90.61 136.363 91.8109 136.363 93.3016C136.363 94.7923 137.564 95.9932 139.054 95.9932C140.545 95.9932 141.746 94.7923 141.746 93.3016C141.746 91.8109 140.545 90.61 139.054 90.61Z" fill="#0A165E"/>
<path d="M116.03 91.065C114.788 91.065 113.795 92.0588 113.795 93.301C113.795 94.5433 114.788 95.5371 116.03 95.5371C117.273 95.5371 118.267 94.5433 118.267 93.301C118.267 92.0588 117.273 91.065 116.03 91.065Z" fill="#0A165E"/>
<path d="M93.008 91.6443C92.097 91.6443 91.351 92.3896 91.351 93.3006C91.351 94.2116 92.097 94.957 93.008 94.957C93.919 94.957 94.664 94.2116 94.664 93.3006C94.664 92.3896 93.919 91.6443 93.008 91.6443Z" fill="#0A165E"/>
<path d="M69.982 92.2246C69.387 92.2246 68.905 92.7067 68.905 93.3013C68.905 93.8959 69.387 94.3779 69.982 94.3779C70.577 94.3779 71.059 93.8959 71.059 93.3013C71.059 92.7067 70.577 92.2246 69.982 92.2246Z" fill="#0A165E"/>
<path d="M46.918 92.8041C46.644 92.8041 46.421 93.0266 46.421 93.301C46.421 93.5754 46.644 93.7979 46.918 93.7979C47.193 93.7979 47.415 93.5754 47.415 93.301C47.415 93.0266 47.193 92.8041 46.918 92.8041Z" fill="#0A165E"/>
<path d="M23.894 93.2595C23.894 93.2595 23.811 93.2595 23.811 93.3422C23.811 93.4248 23.811 93.4248 23.894 93.4248C23.976 93.4248 23.977 93.4248 23.977 93.3422C23.977 93.2595 23.976 93.2595 23.894 93.2595Z" fill="#0A165E"/>
<path d="M415.457 70.1951C415.457 70.1951 415.375 70.1951 415.375 70.2777C415.375 70.3604 415.375 70.3604 415.457 70.3604C415.54 70.3604 415.54 70.3604 415.54 70.2777C415.54 70.1951 415.54 70.1951 415.457 70.1951Z" fill="#0A165E"/>
<path d="M392.432 69.697C392.101 69.697 391.852 69.9454 391.852 70.2767C391.852 70.608 392.101 70.8564 392.432 70.8564C392.763 70.8564 393.012 70.608 393.012 70.2767C393.012 69.9454 392.763 69.697 392.432 69.697Z" fill="#0A165E"/>
<path d="M369.412 69.2002C368.832 69.2002 368.335 69.6971 368.335 70.2769C368.335 70.8566 368.832 71.3535 369.412 71.3535C369.991 71.3535 370.488 70.8566 370.488 70.2769C370.488 69.6971 369.991 69.2002 369.412 69.2002Z" fill="#0A165E"/>
<path d="M346.387 68.7453C345.559 68.7453 344.855 69.4493 344.855 70.2774C344.855 71.1056 345.559 71.8096 346.387 71.8096C347.215 71.8096 347.919 71.1056 347.919 70.2774C347.919 69.4493 347.215 68.7453 346.387 68.7453Z" fill="#0A165E"/>
<path d="M323.323 68.2903C322.246 68.2903 321.335 69.1599 321.335 70.2779C321.335 71.396 322.205 72.2656 323.323 72.2656C324.441 72.2656 325.311 71.396 325.311 70.2779C325.311 69.1599 324.441 68.2903 323.323 68.2903Z" fill="#0A165E"/>
<path d="M300.298 67.9171C298.973 67.9171 297.938 68.9937 297.938 70.2774C297.938 71.5611 299.014 72.6377 300.298 72.6377C301.582 72.6377 302.658 71.5611 302.658 70.2774C302.658 68.9937 301.582 67.9171 300.298 67.9171Z" fill="#0A165E"/>
<path d="M277.273 67.6682C275.824 67.6682 274.664 68.8276 274.664 70.2769C274.664 71.7262 275.824 72.8857 277.273 72.8857C278.722 72.8857 279.882 71.7262 279.882 70.2769C279.882 68.8276 278.722 67.6682 277.273 67.6682Z" fill="#0A165E"/>
<path d="M254.253 67.5447C252.721 67.5447 251.52 68.787 251.52 70.2777C251.52 71.7684 252.763 73.0107 254.253 73.0107C255.744 73.0107 256.986 71.7684 256.986 70.2777C256.986 68.787 255.744 67.5447 254.253 67.5447Z" fill="#0A165E"/>
<path d="M231.189 67.4622C229.657 67.4622 228.373 68.7044 228.373 70.278C228.373 71.8515 229.615 73.0938 231.189 73.0938C232.763 73.0938 234.005 71.8515 234.005 70.278C234.005 68.7044 232.763 67.4622 231.189 67.4622Z" fill="#0A165E"/>
<path d="M208.164 67.4622C206.632 67.4622 205.348 68.7044 205.348 70.278C205.348 71.8515 206.59 73.0938 208.164 73.0938C209.737 73.0938 210.979 71.8515 210.979 70.278C210.979 68.7044 209.737 67.4622 208.164 67.4622Z" fill="#0A165E"/>
<path d="M185.14 67.6682C183.69 67.6682 182.531 68.8276 182.531 70.2769C182.531 71.7262 183.69 72.8857 185.14 72.8857C186.589 72.8857 187.748 71.7262 187.748 70.2769C187.748 68.8276 186.589 67.6682 185.14 67.6682Z" fill="#0A165E"/>
<path d="M162.12 67.9171C160.795 67.9171 159.76 68.9937 159.76 70.2774C159.76 71.5611 160.836 72.6377 162.12 72.6377C163.404 72.6377 164.48 71.5611 164.48 70.2774C164.48 68.9937 163.404 67.9171 162.12 67.9171Z" fill="#0A165E"/>
<path d="M139.053 68.2485C137.935 68.2485 137.024 69.1595 137.024 70.2776C137.024 71.3956 137.935 72.3066 139.053 72.3066C140.171 72.3066 141.082 71.3956 141.082 70.2776C141.082 69.1595 140.171 68.2485 139.053 68.2485Z" fill="#0A165E"/>
<path d="M116.03 68.6627C115.16 68.6627 114.415 69.3666 114.415 70.2776C114.415 71.1886 115.119 71.8926 116.03 71.8926C116.941 71.8926 117.645 71.1886 117.645 70.2776C117.645 69.3666 116.941 68.6627 116.03 68.6627Z" fill="#0A165E"/>
<path d="M93.007 69.2002C92.428 69.2002 91.931 69.6971 91.931 70.2769C91.931 70.8566 92.428 71.3535 93.007 71.3535C93.587 71.3535 94.084 70.8566 94.084 70.2769C94.084 69.6971 93.587 69.2002 93.007 69.2002Z" fill="#0A165E"/>
<path d="M69.982 69.697C69.65 69.697 69.402 69.9454 69.402 70.2767C69.402 70.608 69.65 70.8564 69.982 70.8564C70.313 70.8564 70.562 70.608 70.562 70.2767C70.562 69.9454 70.313 69.697 69.982 69.697Z" fill="#0A165E"/>
<path d="M46.919 70.1534C46.919 70.1534 46.795 70.1948 46.795 70.2774C46.795 70.3601 46.836 70.4014 46.919 70.4014C47.002 70.4014 47.043 70.3601 47.043 70.2774C47.043 70.1948 47.002 70.1534 46.919 70.1534Z" fill="#0A165E"/>
<path d="M392.432 47.1726C392.432 47.1726 392.349 47.1726 392.349 47.2552C392.349 47.3379 392.349 47.3379 392.432 47.3379C392.515 47.3379 392.515 47.3379 392.515 47.2552C392.515 47.1726 392.515 47.1726 392.432 47.1726Z" fill="#0A165E"/>
<path d="M369.41 46.799C369.162 46.799 368.955 47.0061 368.955 47.2545C368.955 47.503 369.162 47.71 369.41 47.71C369.659 47.71 369.866 47.503 369.866 47.2545C369.866 47.0061 369.659 46.799 369.41 46.799Z" fill="#0A165E"/>
<path d="M346.386 46.343C345.889 46.343 345.475 46.7571 345.475 47.254C345.475 47.7509 345.889 48.165 346.386 48.165C346.883 48.165 347.297 47.7509 347.297 47.254C347.297 46.7571 346.883 46.343 346.386 46.343Z" fill="#0A165E"/>
<path d="M323.323 45.9708C322.614 45.9708 322.039 46.5455 322.039 47.2545C322.039 47.9634 322.614 48.5381 323.323 48.5381C324.032 48.5381 324.606 47.9634 324.606 47.2545C324.606 46.5455 324.032 45.9708 323.323 45.9708Z" fill="#0A165E"/>
<path d="M300.298 45.6393C299.429 45.6393 298.683 46.3432 298.683 47.2542C298.683 48.1652 299.387 48.8691 300.298 48.8691C301.209 48.8691 301.913 48.1652 301.913 47.2542C301.913 46.3432 301.209 45.6393 300.298 45.6393Z" fill="#0A165E"/>
<path d="M277.275 45.3904C276.246 45.3904 275.412 46.2247 275.412 47.2538C275.412 48.283 276.246 49.1172 277.275 49.1172C278.304 49.1172 279.139 48.283 279.139 47.2538C279.139 46.2247 278.304 45.3904 277.275 45.3904Z" fill="#0A165E"/>
<path d="M254.251 45.267C253.174 45.267 252.263 46.1365 252.263 47.2546C252.263 48.3726 253.133 49.2422 254.251 49.2422C255.369 49.2422 256.238 48.3726 256.238 47.2546C256.238 46.1365 255.369 45.267 254.251 45.267Z" fill="#0A165E"/>
<path d="M231.187 45.2252C230.066 45.2252 229.158 46.1336 229.158 47.2542C229.158 48.3748 230.066 49.2832 231.187 49.2832C232.307 49.2832 233.216 48.3748 233.216 47.2542C233.216 46.1336 232.307 45.2252 231.187 45.2252Z" fill="#0A165E"/>
<path d="M208.166 45.2252C207.046 45.2252 206.137 46.1336 206.137 47.2542C206.137 48.3748 207.046 49.2832 208.166 49.2832C209.287 49.2832 210.195 48.3748 210.195 47.2542C210.195 46.1336 209.287 45.2252 208.166 45.2252Z" fill="#0A165E"/>
<path d="M185.14 45.3904C184.111 45.3904 183.277 46.2247 183.277 47.2538C183.277 48.283 184.111 49.1172 185.14 49.1172C186.17 49.1172 187.004 48.283 187.004 47.2538C187.004 46.2247 186.17 45.3904 185.14 45.3904Z" fill="#0A165E"/>
<path d="M162.117 45.6393C161.248 45.6393 160.503 46.3432 160.503 47.2542C160.503 48.1652 161.206 48.8691 162.117 48.8691C163.028 48.8691 163.732 48.1652 163.732 47.2542C163.732 46.3432 163.028 45.6393 162.117 45.6393Z" fill="#0A165E"/>
<path d="M139.054 45.9289C138.322 45.9289 137.729 46.5222 137.729 47.254C137.729 47.9858 138.322 48.5791 139.054 48.5791C139.786 48.5791 140.379 47.9858 140.379 47.254C140.379 46.5222 139.786 45.9289 139.054 45.9289Z" fill="#0A165E"/>
<path d="M116.028 46.3013C115.49 46.3013 115.076 46.7154 115.076 47.2537C115.076 47.7921 115.49 48.2061 116.028 48.2061C116.567 48.2061 116.981 47.7921 116.981 47.2537C116.981 46.7154 116.567 46.3013 116.028 46.3013Z" fill="#0A165E"/>
<path d="M93.006 46.7572C92.732 46.7572 92.509 46.9797 92.509 47.2541C92.509 47.5286 92.732 47.751 93.006 47.751C93.28 47.751 93.503 47.5286 93.503 47.2541C93.503 46.9797 93.28 46.7572 93.006 46.7572Z" fill="#0A165E"/>
<path d="M69.985 47.1309C69.985 47.1309 69.861 47.1722 69.861 47.2549C69.861 47.3375 69.903 47.3789 69.985 47.3789C70.068 47.3789 70.109 47.3375 70.109 47.2549C70.109 47.1722 70.068 47.1309 69.985 47.1309Z" fill="#0A165E"/>
<path d="M369.41 24.1485C369.41 24.1485 369.328 24.1485 369.328 24.2315C369.328 24.3145 369.328 24.3145 369.41 24.3145C369.493 24.3145 369.493 24.3145 369.493 24.2315C369.493 24.1485 369.493 24.1485 369.41 24.1485Z" fill="#0A165E"/>
<path d="M346.387 23.9425C346.25 23.9425 346.139 24.0535 346.139 24.1905C346.139 24.3275 346.25 24.4385 346.387 24.4385C346.524 24.4385 346.635 24.3275 346.635 24.1905C346.635 24.0535 346.524 23.9425 346.387 23.9425Z" fill="#0A165E"/>
<path d="M323.324 23.6506C322.993 23.6506 322.744 23.8996 322.744 24.2306C322.744 24.5616 322.993 24.8105 323.324 24.8105C323.655 24.8105 323.904 24.5616 323.904 24.2306C323.904 23.8996 323.655 23.6506 323.324 23.6506Z" fill="#0A165E"/>
<path d="M300.299 23.3203C299.802 23.3203 299.388 23.7343 299.388 24.2313C299.388 24.7283 299.802 25.1426 300.299 25.1426C300.796 25.1426 301.21 24.7283 301.21 24.2313C301.21 23.7343 300.796 23.3203 300.299 23.3203Z" fill="#0A165E"/>
<path d="M277.277 23.1125C276.682 23.1125 276.2 23.5945 276.2 24.1885C276.2 24.7835 276.682 25.2656 277.277 25.2656C277.871 25.2656 278.354 24.7835 278.354 24.1885C278.354 23.5945 277.871 23.1125 277.277 23.1125Z" fill="#0A165E"/>
<path d="M254.253 22.9892C253.591 22.9892 253.052 23.5272 253.052 24.1902C253.052 24.8522 253.591 25.3906 254.253 25.3906C254.916 25.3906 255.454 24.8522 255.454 24.1902C255.454 23.5272 254.916 22.9892 254.253 22.9892Z" fill="#0A165E"/>
<path d="M231.189 22.9056C230.48 22.9056 229.905 23.4806 229.905 24.1886C229.905 24.8976 230.48 25.4727 231.189 25.4727C231.898 25.4727 232.473 24.8976 232.473 24.1886C232.473 23.4806 231.898 22.9056 231.189 22.9056Z" fill="#0A165E"/>
<path d="M208.166 22.9892C207.503 22.9892 206.966 23.5262 206.966 24.1902C206.966 24.8532 207.503 25.3906 208.166 25.3906C208.83 25.3906 209.367 24.8532 209.367 24.1902C209.367 23.5262 208.83 22.9892 208.166 22.9892Z" fill="#0A165E"/>
<path d="M185.143 23.1125C184.548 23.1125 184.066 23.5945 184.066 24.1885C184.066 24.7835 184.548 25.2656 185.143 25.2656C185.738 25.2656 186.22 24.7835 186.22 24.1885C186.22 23.5945 185.738 23.1125 185.143 23.1125Z" fill="#0A165E"/>
<path d="M162.116 23.3203C161.619 23.3203 161.205 23.7343 161.205 24.2313C161.205 24.7283 161.619 25.1426 162.116 25.1426C162.613 25.1426 163.027 24.7283 163.027 24.2313C163.027 23.7343 162.613 23.3203 162.116 23.3203Z" fill="#0A165E"/>
<path d="M139.055 23.5676C138.682 23.5676 138.433 23.8576 138.433 24.1886C138.433 24.5206 138.723 24.8105 139.055 24.8105C139.386 24.8105 139.676 24.5206 139.676 24.1886C139.676 23.8576 139.386 23.5676 139.055 23.5676Z" fill="#0A165E"/>
<path d="M116.029 23.9425C115.892 23.9425 115.781 24.0535 115.781 24.1905C115.781 24.3275 115.892 24.4385 116.029 24.4385C116.166 24.4385 116.277 24.3275 116.277 24.1905C116.277 24.0535 116.166 23.9425 116.029 23.9425Z" fill="#0A165E"/>
<path d="M93.007 24.1485C93.007 24.1485 92.924 24.1485 92.924 24.2315C92.924 24.3145 92.924 24.3145 93.007 24.3145C93.09 24.3145 93.09 24.3145 93.09 24.2315C93.09 24.1485 93.09 24.1485 93.007 24.1485Z" fill="#0A165E"/>
<path d="M323.324 1.12502C323.324 1.12502 323.241 1.12502 323.241 1.20802C323.241 1.29102 323.241 1.29102 323.324 1.29102C323.406 1.29102 323.406 1.29102 323.406 1.20802C323.406 1.12502 323.406 1.12502 323.324 1.12502Z" fill="#0A165E"/>
<path d="M300.3 1.00104C300.3 1.00104 300.094 1.08404 300.094 1.20804C300.094 1.33204 300.176 1.41504 300.3 1.41504C300.424 1.41504 300.507 1.33204 300.507 1.20804C300.507 1.08404 300.424 1.00104 300.3 1.00104Z" fill="#0A165E"/>
<path d="M277.274 0.87706C277.274 0.87706 276.943 1.00106 276.943 1.20806C276.943 1.41506 277.067 1.53906 277.274 1.53906C277.481 1.53906 277.605 1.41506 277.605 1.20806C277.605 1.00106 277.481 0.87706 277.274 0.87706Z" fill="#0A165E"/>
<path d="M254.253 0.711067C254.005 0.711067 253.798 0.918069 253.798 1.16607C253.798 1.41507 254.005 1.62207 254.253 1.62207C254.502 1.62207 254.709 1.41507 254.709 1.16607C254.709 0.918069 254.502 0.711067 254.253 0.711067Z" fill="#0A165E"/>
<path d="M231.189 0.711067C230.941 0.711067 230.734 0.918069 230.734 1.16607C230.734 1.41507 230.941 1.62207 231.189 1.62207C231.437 1.62207 231.645 1.41507 231.645 1.16607C231.645 0.918069 231.437 0.711067 231.189 0.711067Z" fill="#0A165E"/>
<path d="M208.164 0.711067C207.915 0.711067 207.708 0.918069 207.708 1.16607C207.708 1.41507 207.915 1.62207 208.164 1.62207C208.412 1.62207 208.619 1.41507 208.619 1.16607C208.619 0.918069 208.412 0.711067 208.164 0.711067Z" fill="#0A165E"/>
<path d="M185.144 0.79406C184.937 0.79406 184.771 0.959061 184.771 1.16606C184.771 1.37306 184.937 1.53906 185.144 1.53906C185.351 1.53906 185.517 1.37306 185.517 1.16606C185.517 0.959061 185.351 0.79406 185.144 0.79406Z" fill="#0A165E"/>
<path d="M162.118 1.00104C162.118 1.00104 161.911 1.08404 161.911 1.20804C161.911 1.33204 161.994 1.41504 162.118 1.41504C162.242 1.41504 162.324 1.33204 162.324 1.20804C162.324 1.08404 162.242 1.00104 162.118 1.00104Z" fill="#0A165E"/>
<path d="M139.055 1.12502C139.055 1.12502 138.972 1.12502 138.972 1.20802C138.972 1.29102 138.972 1.29102 139.055 1.29102C139.138 1.29102 139.138 1.29102 139.138 1.20802C139.138 1.12502 139.138 1.12502 139.055 1.12502Z" fill="#0A165E"/>
</svg>
